<svg xmlns="http://www.w3.org/2000/svg" viewBox="0 0 653.09 332"><defs><style>.cls-1{fill:#2e7d32}</style></defs><g id="Слой_2" data-name="Слой 2"><g id="Слой_1-2" data-name="Слой 1"><path class="cls-1" d="M32.85 228.15v8.1H5.32v-8.1h27.53m1-1H4.32v10.1h29.53v-10.1zm-5.41-23.5v22.5H10v-22.5h18.44m1-1H9v24.5h20.44v-24.5zm3.41-9.12v8.12H5.32v-8.12h27.53m1-1H4.32v10.12h29.53v-10.12zm-3.35-44.11v43.11H7.67v-43.11H30.5m1-1H6.67v45.11H31.5v-45.11zm7.14-6.72v5.72H1v-5.72h37.64m1-1H0v7.72h39.64v-7.72zm-3.06-4.01v3H3.16v-3h33.42m1-1H2.16v5h35.42v-5zm-9.14 103.56V331H10v-92.75h18.44m1-1H9V332h20.44v-94.75zm195.38-106.79v200.39h-6.64V130.46h6.64m1-1h-8.64v202.39h8.64V129.46zm204 1v200.39h-6.63V130.46h6.63m1-1h-8.63v202.39h8.63V129.46zm-214.64 1v200.39h-36.55V130.46h36.55m-25.7 81.39h17v-65.72h-17v65.72m26.7-82.39h-38.55v202.39h38.55V129.46zm-25.7 81.39v-63.72h15v63.72zm31.66-95.11v12.72h-49.93v-12.72h49.93m1-1h-51.93v14.72h51.93v-14.72zm199.25 8.36v5.36H225.14v-5.36h198.25m1-1H224.14v7.36h200.25v-7.36zM216.18 82.27v31.47h-36.55V82.27h36.55m1-1h-38.55v33.47h38.55V81.27zm3.02-11.58v10.58h-44.58V69.69h44.58m1-1h-46.58v12.58h46.58V68.69z"/><path class="cls-1" d="M213 62.73v5h-29.89v-5H213m1-1h-31.89v7H214v-7z"/><path class="cls-1" d="M210 51v9.78h-23.41V51H210m1-1h-25.41v11.73H211V50zm257.37 80.46v200.39h-36.55V130.46h36.55m-25.7 81.39h17v-65.72h-17v65.72m26.7-82.39h-38.55v202.39h38.55V129.46zm-25.7 81.39v-63.72h15v63.72zm31.66-95.11v12.72h-49.94v-12.72h49.94m1-1h-51.94v14.72h51.94v-14.72zm-7.96-32.47v31.47h-36.55V82.27h36.55m1-1h-38.55v33.47h38.55V81.27zm3.02-11.58v10.58H427.8V69.69h44.59m1-1H426.8v12.58h46.59V68.69z"/><path class="cls-1" d="M465.16 62.73v5H435.3v-5h29.86m1-1H434.3v7h31.86v-7z"/><path class="cls-1" d="M462.21 51v9.78h-23.43V51h23.43m1-1h-25.43v11.73h25.43V50zm-105 80.46L352 148.68l-.46 1.33h1.4c26.62 0 64.45 34.43 68.28 38v44.2a140.26 140.26 0 0 0-21.95-29.4c-14.77-15.1-39.77-33.1-75-33.1s-60.34 18-75.24 33.09a141.43 141.43 0 0 0-22.21 29.47V187c19.11-23.48 72.62-38.79 73.16-38.95l1.12-.31-.48-1.06-7.39-16.26h65m1.4-1h-67.96l8 17.67s-54.55 15.39-73.89 39.56v49.59s31-65.59 98.45-65.59 97.92 65.59 97.92 65.59v-48.68S381.56 149 352.91 149l6.7-19.55zm-4.09-63.21l74.28 28.4v19.13h-6.43v7.36H225.14v-7.36h-7v-22.3l79.67-25.23h57.69m67.13 32.85l-5.14-2-64.22-24.75-.17-.07H301l-.16.06-68.12 23.09-5.58 1.89h5.9L417.16 99h5.51m-66.94-33.79h-58l-80.52 25.5v24h7v7.36h200.18v-7.36h6.43V93.92l-75.09-28.71zM417.17 98l-184.12-1.67 68.06-23.09h51.8L417.17 98zm-62.44-38.82v5H298.5v-5h56.23m1-1H297.5v7h58.23v-7zm3.81-13.85v12.85h-65.86V44.33h65.86m1-1h-67.86v14.85h67.86V43.33zm-16.26-10.65v9.65h-36.14v-9.65h36.14m1-1h-38.14v11.65h38.14V31.68zm-10.43-10.85v9.85h-16.07v-9.85h16.07m1-1h-18.07v11.85h18.07V19.83z"/><path class="cls-1" d="M326.81 2l10.29 17.81h-20.57L326.81 2m0-2l-12 20.81h24L326.81 0zm320.86 201.74v8.11h-28.22v-8.11h28.22m1-1h-30.22v10.11h30.22v-10.11zm-5.82-23.49v22.49H624v-22.49h18.88m1-1H623v24.49h20.88v-24.49zm3.79-9.13v8.13h-28.22v-8.13h28.22m1-1h-30.22v10.13h30.22v-10.13zM645.26 122v43.11h-23.4V122h23.4m1-1h-25.4v45.11h25.4V121zm5.83-6.7v5.7h-38.56v-5.7h38.56m1-1h-40.56v7.7h40.56v-7.7zm-3.21-4.02v3h-34.24v-3h34.24m1-1h-36.24v5h36.24v-5zm-8.03 103.57v119H624v-119h18.88m1-1H623v121h20.88v-121zm-88.17-48.46v23.9h-23.9v-23.9h23.9m-12 22.69A10.74 10.74 0 1 0 533 174.34a10.75 10.75 0 0 0 10.74 10.74m13-23.69h-25.9v25.9h25.9v-25.9zm-13 22.69a9.74 9.74 0 1 1 9.74-9.74 9.74 9.74 0 0 1-9.74 9.74z"/><path class="cls-1" d="M622 211.85v119h-26.9l16-73.48.12-.54-.4-.38a95.1 95.1 0 0 0-18.06-13c-10.4-5.92-26.92-13-46.59-13a68.06 68.06 0 0 0-41.88 13.76A56.9 56.9 0 0 0 491 258l-.21.34.08.39 14.81 72.08h-35.31V213.59H485v-1.74h117.8v2.54h16.65v-2.54H622m1-1h-4.52v2.54H603.8v-2.54H484v1.74h-14.63v119.26h37.55l-15.06-73.28s16.66-27.11 54.31-27.11 64 25.7 64 25.7l-16.26 74.69H623v-121zm-504.48-22.06v23.9H95.2v-23.9h23.32m-11.66 22.69a10.74 10.74 0 1 0-10.52-10.74 10.65 10.65 0 0 0 10.52 10.74m12.66-23.69H94.2v25.9h25.32v-25.9zm-12.66 22.69a9.74 9.74 0 1 1 9.52-9.74 9.63 9.63 0 0 1-9.52 9.74z"/><path class="cls-1" d="M164.24 211.85v1.74h14.33v117.26h-34.48l14.48-72.09.08-.38-.2-.33a56.67 56.67 0 0 0-13-13.82 65.63 65.63 0 0 0-41-13.77c-19.23 0-35.38 7.06-45.55 13a93.68 93.68 0 0 0-17.66 13l-.38.39.11.53 15.64 73.48H30.44v-119h2.41v2.54h16.33v-2.54h115.06m1-1H48.18v2.54H33.85v-2.54h-4.41v121h28.45L42 257.16s25.71-25.7 62.5-25.7 53.09 27.11 53.09 27.11l-14.72 73.28h36.7V212.59h-14.33v-1.74zm-58.55-75.71l38.77 21.56.23.12h32.88v40.1h-14.33v2.81h-41.37v-13.45h-2.35v-25.9H93.2v25.9h-2.55v13.45H49.18v-2H32.85v2h-2.41v-22.49h4.41v-12.13H32.5v-8.29h32.18l.21-.11 41.8-21.57m0-1.14l-42.25 21.82H31.5v10.29h2.35v10.13h-4.41v24.49h4.41v-2h14.33v2h43.47v-13.45h2.55v-25.9h25.32v25.9h2.35v13.45h43.37v-2.81h14.33v-42.1h-33.63L106.71 134zm437.24 1.13l42.78 21.58.22.11h32.93v8.29h-2.41v12.13H622v22.49h-2.52v-2H602.8v2h-42.48v-13.45h-2.61v-25.9h-27.9v25.9h-2.41v13.45H485v-2.81h-14.63v-40.1H504l.22-.12 39.68-21.57m0-1.13l-40.14 21.82h-34.4v42.1H484v2.81h44.4v-13.45h2.41v-25.9h25.9v25.9h2.61v13.45h44.48v-2h14.65v2H623v-24.49h-4.52v-10.13h2.41v-10.29h-33.7L543.91 134z"/></g></g></svg>