<svg xmlns="http://www.w3.org/2000/svg" viewBox="0 0 2009.86 809.29"><defs><style>.cls-2{fill:#37474f;fill-rule:evenodd}</style></defs><g id="Слой_2" data-name="Слой 2"><g id="Слой_1-2" data-name="Слой 1"><path d="M61.97 553.11v-35.78l-30.98-17.89L0 517.33v35.78L30.99 571l30.98-17.89zm33.99 59.75v-35.78l-30.98-17.89-30.99 17.89v35.78l30.99 17.89 30.98-17.89zm-33.99 59.39v-35.78l-30.98-17.89L0 636.47v35.78l30.99 17.89 30.98-17.89zm0 119.15v-35.78l-30.98-17.89L0 755.62v35.78l30.99 17.89 30.98-17.89zm33.99-59.39v-35.78l-30.98-17.89-30.99 17.89v35.78l30.99 17.89 30.98-17.89zm34.89-178.9v-35.78l-30.99-17.89-30.98 17.89v35.78L99.86 571l30.99-17.89zm68.16 0v-35.78l-30.98-17.89-30.99 17.89v35.78L168.03 571l30.98-17.89zM233 612.86v-35.78l-30.98-17.89-30.99 17.89v35.78l30.99 17.89L233 612.86zm-68.34 0v-35.78l-30.98-17.89-30.99 17.89v35.78l30.99 17.89 30.98-17.89zm-33.99 59.39v-35.78l-30.99-17.89-30.98 17.89v35.78l30.98 17.89 30.99-17.89zm68.34 0v-35.78l-30.98-17.89-30.99 17.89v35.78l30.99 17.89 30.98-17.89zm0 119.15v-35.78l-30.98-17.89-30.99 17.89v35.78l30.99 17.89 30.98-17.89zm-34.35-59.39v-35.78l-30.98-17.89-30.99 17.89v35.78l30.99 17.89 30.98-17.89zm68.34 0v-35.78l-30.98-17.89-30.99 17.89v35.78l30.99 17.89L233 732.01zM130.67 791.4v-35.78l-30.99-17.89-30.98 17.89v35.78l30.98 17.89 30.99-17.89zm205-238.29v-35.78l-30.98-17.89-30.99 17.89v35.78L304.69 571l30.98-17.89zm-68.16 0v-35.78l-30.98-17.89-30.99 17.89v35.78L236.53 571l30.98-17.89zm136.32 0v-35.78l-30.98-17.89-30.99 17.89v35.78L372.85 571l30.98-17.89zm-34.16 59.75v-35.78l-30.99-17.89-30.99 17.89v35.78l30.99 17.89 30.99-17.89zm-68.35 0v-35.78l-30.98-17.89-30.99 17.89v35.78l30.99 17.89 30.98-17.89zM472 553.11v-35.78l-30.99-17.89-30.99 17.89v35.78L441.01 571 472 553.11zm33.99 59.75v-35.78L475 559.19l-30.99 17.89v35.78L475 630.75l30.99-17.89zm-68.34 0v-35.78l-30.99-17.89-30.99 17.89v35.78l30.99 17.89 30.99-17.89zm-101.98 59.39v-35.78l-30.98-17.89-30.99 17.89v35.78l30.99 17.89 30.98-17.89zm67.99 0v-35.78l-30.99-17.89-30.99 17.89v35.78l30.99 17.89 30.99-17.89zm68.34 0v-35.78l-30.99-17.89-30.99 17.89v35.78l30.99 17.89L472 672.25zm0 119.15v-35.78l-30.99-17.89-30.99 17.89v35.78l30.99 17.89L472 791.4zm-34.35-59.39v-35.78l-30.99-17.89-30.99 17.89v35.78l30.99 17.89 30.99-17.89zm68.34 0v-35.78L475 678.34l-30.99 17.89v35.78L475 749.9l30.99-17.89zm-136.68 0v-35.78l-30.99-17.89-30.99 17.89v35.78l30.99 17.89 30.99-17.89zm34.35 59.39v-35.78l-30.99-17.89-30.99 17.89v35.78l30.99 17.89 30.99-17.89zM267.51 672.25v-35.78l-30.98-17.89-30.99 17.89v35.78l30.99 17.89 30.98-17.89zm33.99 59.76v-35.78l-30.98-17.89-30.99 17.89v35.78l30.99 17.89 30.98-17.89zm-33.99 59.39v-35.78l-30.98-17.89-30.99 17.89v35.78l30.99 17.89 30.98-17.89zm67.99 0v-35.78l-30.99-17.89-30.99 17.89v35.78l30.99 17.89 30.99-17.89zm205.37-238.29v-35.78l-30.98-17.89-30.99 17.89v35.78L509.89 571l30.98-17.89zm68.16 0v-35.78l-30.98-17.89-30.99 17.89v35.78L578.05 571l30.98-17.89zm33.99 59.75v-35.78l-30.98-17.89-30.99 17.89v35.78l30.99 17.89 30.98-17.89zm-68.34 0v-35.78l-30.98-17.89-30.99 17.89v35.78l30.99 17.89 30.98-17.89zm-33.99 59.39v-35.78l-30.98-17.89-30.99 17.89v35.78l30.99 17.89 30.98-17.89zm68.34 0v-35.78l-30.98-17.89-30.99 17.89v35.78l30.99 17.89 30.98-17.89zm0 119.15v-35.78l-30.98-17.89-30.99 17.89v35.78l30.99 17.89 30.98-17.89zm-34.35-59.39v-35.78l-30.98-17.89-30.99 17.89v35.78l30.99 17.89 30.98-17.89zm68.34 0v-35.78l-30.98-17.89-30.99 17.89v35.78l30.99 17.89 30.98-17.89zM540.69 791.4v-35.78l-30.98-17.89-30.99 17.89v35.78l30.99 17.89 30.98-17.89zm136.76-238.29v-35.78l-30.99-17.89-30.99 17.89v35.78L646.46 571l30.99-17.89zm68.16 0v-35.78l-30.99-17.89-30.99 17.89v35.78L714.62 571l30.99-17.89zm33.99 59.75v-35.78l-30.99-17.89-30.98 17.89v35.78l30.98 17.89 30.99-17.89zm-68.34 0v-35.78l-30.99-17.89-30.98 17.89v35.78l30.98 17.89 30.99-17.89zm-33.99 59.39v-35.78l-30.99-17.89-30.99 17.89v35.78l30.99 17.89 30.99-17.89zm68.34 0v-35.78l-30.99-17.89-30.99 17.89v35.78l30.99 17.89 30.99-17.89zm0 119.15v-35.78l-30.99-17.89-30.99 17.89v35.78l30.99 17.89 30.99-17.89zm-34.35-59.39v-35.78l-30.99-17.89-30.98 17.89v35.78l30.98 17.89 30.99-17.89zm68.34 0v-35.78l-30.99-17.89-30.98 17.89v35.78l30.98 17.89 30.99-17.89zM677.27 791.4v-35.78l-30.99-17.89-30.99 17.89v35.78l30.99 17.89 30.99-17.89zm205.28-238.29v-35.78l-30.99-17.89-30.99 17.89v35.78L851.56 571l30.99-17.89zm-68.17 0v-35.78l-30.98-17.89-30.99 17.89v35.78L783.4 571l30.98-17.89zm136.33 0v-35.78l-30.99-17.89-30.99 17.89v35.78L919.72 571l30.99-17.89zm-34.17 59.75v-35.78l-30.99-17.89-30.99 17.89v35.78l30.99 17.89 30.99-17.89zm-68.34 0v-35.78l-30.99-17.89-30.99 17.89v35.78l30.99 17.89 30.99-17.89zm170.67-59.75v-35.78l-30.99-17.89-30.98 17.89v35.78L987.88 571l30.99-17.89zm33.99 59.75v-35.78l-30.99-17.89-30.98 17.89v35.78l30.98 17.89 30.99-17.89zm-68.34 0v-35.78l-30.99-17.89-30.98 17.89v35.78l30.98 17.89 30.99-17.89zm-101.97 59.39v-35.78l-30.99-17.89-30.99 17.89v35.78l30.99 17.89 30.99-17.89zm67.98 0v-35.78l-30.99-17.89-30.98 17.89v35.78l30.98 17.89 30.99-17.89zm68.34 0v-35.78l-30.99-17.89-30.98 17.89v35.78l30.98 17.89 30.99-17.89zm0 119.15v-35.78l-30.99-17.89-30.98 17.89v35.78l30.98 17.89 30.99-17.89zm-34.35-59.39v-35.78l-30.99-17.89-30.98 17.89v35.78l30.98 17.89 30.99-17.89zm68.34 0v-35.78l-30.99-17.89-30.98 17.89v35.78l30.98 17.89 30.99-17.89zm-136.68 0v-35.78l-30.99-17.89-30.98 17.89v35.78l30.98 17.89 30.99-17.89zm34.35 59.39v-35.78l-30.99-17.89-30.98 17.89v35.78l30.98 17.89 30.99-17.89zM814.38 672.25v-35.78l-30.98-17.89-30.99 17.89v35.78l30.99 17.89 30.98-17.89zm34 59.76v-35.78l-30.99-17.89-30.99 17.89v35.78l30.99 17.89 30.99-17.89zm-34 59.39v-35.78l-30.98-17.89-30.99 17.89v35.78l30.99 17.89 30.98-17.89zm67.99 0v-35.78l-30.99-17.89-30.99 17.89v35.78l30.99 17.89 30.99-17.89zm205.38-238.29v-35.78l-30.99-17.89-30.99 17.89v35.78l30.99 17.89 30.99-17.89zm68.16 0v-35.78l-30.99-17.89-30.99 17.89v35.78l30.99 17.89 30.99-17.89zm33.99 59.75v-35.78l-30.99-17.89-30.99 17.89v35.78l30.99 17.89 30.99-17.89zm-68.34 0v-35.78l-30.99-17.89-30.98 17.89v35.78l30.98 17.89 30.99-17.89zm-33.99 59.39v-35.78l-30.99-17.89-30.99 17.89v35.78l30.99 17.89 30.99-17.89zm68.34 0v-35.78l-30.99-17.89-30.99 17.89v35.78l30.99 17.89 30.99-17.89zm0 119.15v-35.78l-30.99-17.89-30.99 17.89v35.78l30.99 17.89 30.99-17.89zm-34.35-59.39v-35.78l-30.99-17.89-30.98 17.89v35.78l30.98 17.89 30.99-17.89zm68.34 0v-35.78l-30.99-17.89-30.99 17.89v35.78l30.99 17.89 30.99-17.89zm-102.33 59.39v-35.78l-30.99-17.89-30.99 17.89v35.78l30.99 17.89 30.99-17.89zm205-238.29v-35.78l-30.99-17.89-30.98 17.89v35.78l30.98 17.89 30.99-17.89zm-68.16 0v-35.78l-30.99-17.89-30.99 17.89v35.78l30.99 17.89 30.99-17.89zm136.32 0v-35.78l-30.99-17.89-30.98 17.89v35.78l30.98 17.89 30.99-17.89zm-34.17 59.75v-35.78l-30.99-17.89-30.98 17.89v35.78l30.98 17.89 30.99-17.89zm-68.34 0v-35.78l-30.99-17.89-30.98 17.89v35.78l30.98 17.89 30.99-17.89zm170.67-59.75v-35.78l-30.99-17.89-30.98 17.89v35.78L1397.9 571l30.99-17.89zm33.99 59.75v-35.78l-30.98-17.89-30.99 17.89v35.78l30.99 17.89 30.98-17.89zm-68.34 0v-35.78l-30.98-17.89-30.99 17.89v35.78l30.99 17.89 30.98-17.89zm-101.97 59.39v-35.78l-30.99-17.89-30.98 17.89v35.78l30.98 17.89 30.99-17.89zm67.98 0v-35.78l-30.98-17.89-30.99 17.89v35.78l30.99 17.89 30.98-17.89zm68.34 0v-35.78l-30.99-17.89-30.98 17.89v35.78l30.98 17.89 30.99-17.89zm0 119.15v-35.78l-30.99-17.89-30.98 17.89v35.78l30.98 17.89 30.99-17.89zm-34.35-59.39v-35.78l-30.98-17.89-30.99 17.89v35.78l30.99 17.89 30.98-17.89zm68.34 0v-35.78l-30.98-17.89-30.99 17.89v35.78l30.99 17.89 30.98-17.89zm-136.68 0v-35.78l-30.98-17.89-30.99 17.89v35.78l30.99 17.89 30.98-17.89zm34.35 59.39v-35.78l-30.98-17.89-30.99 17.89v35.78l30.99 17.89 30.98-17.89zm-136.14-119.15v-35.78l-30.99-17.89-30.99 17.89v35.78l30.99 17.89 30.99-17.89zm33.99 59.76v-35.78l-30.99-17.89-30.98 17.89v35.78l30.98 17.89 30.99-17.89zm-33.99 59.39v-35.78l-30.99-17.89-30.99 17.89v35.78l30.99 17.89 30.99-17.89zm67.98 0v-35.78l-30.99-17.89-30.98 17.89v35.78l30.98 17.89 30.99-17.89zm205.38-238.29v-35.78l-30.99-17.89-30.98 17.89v35.78l30.98 17.89 30.99-17.89zm68.16 0v-35.78l-30.99-17.89-30.98 17.89v35.78l30.98 17.89 30.99-17.89zm33.99 59.75v-35.78l-30.99-17.89-30.98 17.89v35.78l30.98 17.89 30.99-17.89zm-68.34 0v-35.78l-30.99-17.89-30.98 17.89v35.78l30.98 17.89 30.99-17.89zm-33.99 59.39v-35.78l-30.99-17.89-30.98 17.89v35.78l30.98 17.89 30.99-17.89zm68.34 0v-35.78l-30.99-17.89-30.98 17.89v35.78l30.98 17.89 30.99-17.89zm0 119.15v-35.78l-30.99-17.89-30.98 17.89v35.78l30.98 17.89 30.99-17.89zm-34.35-59.39v-35.78l-30.99-17.89-30.98 17.89v35.78l30.98 17.89 30.99-17.89zm68.34 0v-35.78l-30.99-17.89-30.98 17.89v35.78l30.98 17.89 30.99-17.89zm-102.33 59.39v-35.78l-30.99-17.89-30.98 17.89v35.78l30.98 17.89 30.99-17.89zm136.75-238.29v-35.78l-30.98-17.89-30.99 17.89v35.78l30.99 17.89 30.98-17.89zm68.16 0v-35.78l-30.98-17.89-30.99 17.89v35.78l30.99 17.89 30.98-17.89zm33.99 59.75v-35.78l-30.98-17.89-30.99 17.89v35.78l30.99 17.89 30.98-17.89zm-68.34 0v-35.78l-30.98-17.89-30.99 17.89v35.78l30.99 17.89 30.98-17.89zm-33.99 59.39v-35.78l-30.98-17.89-30.99 17.89v35.78l30.99 17.89 30.98-17.89zm68.34 0v-35.78l-30.98-17.89-30.99 17.89v35.78l30.99 17.89 30.98-17.89zm0 119.15v-35.78l-30.98-17.89-30.99 17.89v35.78l30.99 17.89 30.98-17.89zm-34.35-59.39v-35.78l-30.98-17.89-30.99 17.89v35.78l30.99 17.89 30.98-17.89zm68.34 0v-35.78l-30.98-17.89-30.99 17.89v35.78l30.99 17.89 30.98-17.89zm-102.33 59.39v-35.78l-30.98-17.89-30.99 17.89v35.78l30.99 17.89 30.98-17.89zm205.38-238.29v-35.78l-30.98-17.89-30.99 17.89v35.78l30.99 17.89 30.98-17.89zm-68.16 0v-35.78l-30.99-17.89-30.98 17.89v35.78l30.98 17.89 30.99-17.89zm136.32 0v-35.78l-30.98-17.89-30.99 17.89v35.78l30.99 17.89 30.98-17.89zm-34.17 59.75v-35.78l-30.98-17.89-30.99 17.89v35.78l30.99 17.89 30.98-17.89zm-68.34 0v-35.78l-30.98-17.89-30.99 17.89v35.78l30.99 17.89 30.98-17.89zm170.67-59.75v-35.78l-30.98-17.89-30.99 17.89v35.78l30.99 17.89 30.98-17.89zm34 59.75v-35.78l-30.99-17.89-30.99 17.89v35.78l30.99 17.89 30.99-17.89zm-68.34 0v-35.78l-30.99-17.89-30.99 17.89v35.78l30.99 17.89 30.99-17.89zm-101.98 59.39v-35.78l-30.98-17.89-30.99 17.89v35.78l30.99 17.89 30.98-17.89zm67.98 0v-35.78l-30.98-17.89-30.99 17.89v35.78l30.99 17.89 30.98-17.89zm68.34 0v-35.78l-30.98-17.89-30.99 17.89v35.78l30.99 17.89 30.98-17.89zm0 119.15v-35.78l-30.98-17.89-30.99 17.89v35.78l30.99 17.89 30.98-17.89zm-34.34-59.39v-35.78l-30.99-17.89-30.99 17.89v35.78l30.99 17.89 30.99-17.89zm68.34 0v-35.78l-30.99-17.89-30.99 17.89v35.78l30.99 17.89 30.99-17.89zm-136.69 0v-35.78l-30.98-17.89-30.99 17.89v35.78l30.99 17.89 30.98-17.89zm34.35 59.39v-35.78l-30.98-17.89-30.99 17.89v35.78l30.99 17.89 30.98-17.89zm-136.14-119.15v-35.78l-30.99-17.89-30.98 17.89v35.78l30.98 17.89 30.99-17.89zm33.99 59.76v-35.78l-30.99-17.89-30.98 17.89v35.78l30.98 17.89 30.99-17.89zm-33.99 59.39v-35.78l-30.99-17.89-30.98 17.89v35.78l30.98 17.89 30.99-17.89zm67.98 0v-35.78l-30.98-17.89-30.99 17.89v35.78l30.99 17.89 30.98-17.89z" fill="#2e7d32"/><path class="cls-2" d="M191.81 684h325l16-35.79-6.47-7.68-12.34 5.56-7.55 7-8.8-4.87-9.55 1.38.79-9.06-9.32 6.36-5.33 1.67 2.37-3.67h-6.87l-3.91-74.62-1.42 2v70.12l-4-1.06-5.61 4.11h-2l-1.46-7.88-3.87-2-.68 10-7 2.22V636.5l-8.45 1.36v8.84l-3.34-2.4.4-4.8-6.4-2.22v9.42h-11.29l-1-5.69-10.38-3.73v7l-4.9 3.11L384 634.63l-3-1.17 1.47 8.81-19.19 4.43.67-9.42-4.42-2.35 1.58 7.34h-12.27l-2.45-16.37 4-8.52 1.47-4.75-4.66-2.27h-3.63V603h-3.87l-3.91 2.76-5.29 4.32-.68 1.43-9.94.31.39-12h-8.87l.4-17.78 9.36-7.45v-11.85l-2.09.84V570l-4 1.17-.67-9.56-4.15 2-.79 7.55h-4.26l.8-32.92-.75 2v52.91h-7.66L287 598.68l1.47 4.34-16.86 4.4.67 4.11-4.42 2.62 1.46 6.86-9.87 4.39-5.57-5.4-7.62 6.71-7.66-6.21-3.4 9.09-2.68-1.08h-6v2.93l-19.22 2-6.75 3.5-2.45 8.59 3.59-1.25.4 4.63 2.09.33-.67 7.59c-3.21.14-16.62 6.45-16.58 10.9-3.74 7.73-3.34 15.41 4.88 16.27zM40.67 521L1658 510.46c-61.68-8.9-113.42-29.43-187.6-21l-8.79-.71v-20.81h-8.35v-6.86h-7.49v6.86h-3.51v7.23H1437v-6.87h-8.4v-3.7h-5.3v3.7h-8.37v6.05h-74.53v6.24c-43.69-4.25-95.38 1.21-123.11-4.23-18.26-5.91-32.45-1.66-37.17 5.56l-48.5-1.38.4-21h-7.89v-1.86H1117v1.86h-5.93v24h-11.64v-20.45h-5.27V460H1085v3.06h-6.45v14.76c-29.16-5.24-58.53-3.39-89.84-7.23v-6.84h-5.31v-3.06h-8.68v3.06h-7.82v-3.06h-7.44v3.06h-3.85v6.36c-40.43 3.6-81.09 13.84-116.27 16.64-120.89-16.63-248.08-12.65-377.54 5.91l-238-19c-28.83-12.85-59.7-10.33-88.8-9.83-7-2.32-9.91-.89-19.17-.73v-51.82h1.4v52c-42.36.28-35.41 5.12-76.51-2.82z"/><path class="cls-2" d="M1906.2 634.26l-16.69 10.24v48.23l-225.33 6.37-52.54-44.62-90.56.51-46.5-30.12-118.52.92v-21.06h5.65v-10.8l-.27-.59-6.44-6.27h-6.7l-7.54 6.27v11.39h5.09v22.36l-38.16.7V605h5.52v-10.33l-.13 1.59-6.64-7.46h-6.7l-7.54 7.46V605h5.09v23.29l-31.36.08-.75-12.79.38-24.76-29.94 1.68-8.94-399.64 10.24-9.73h54v-3.63h-52.12l.91-3.13v-27.91l-7.37-.41.3-55h-13.11v-6.63h-10.92c-4.31-7-14.75-16-27.37-16.27v-6.71c2-1.24 2.23-5.78 2.23-4.6 0-6.63-2.27-4.6-5.31-7.71V0h-3.05v51.13c-3 3.11-5.31 1.08-5.31 7.71 0-1.18 1.49 3.36 1.49 4.6v6.71c-11.86.23-22.32 9.24-26.67 16.27h-12v6.66h-13.82v86.42H1061v3.59h55.49l10.06 9.73-1.27 400c-17.2-3.21-5.15 10.75-8 11.94-10.49 4.46-16.21 12.51-28.19 16.4v-60.91h-2.26v59.59c-2.34-.3-2.69.35-5.51-.51V483.62h-2.61v134.22c-1.41 1.53-3.08-.3-4.19-.94-7.58-2.65-17.53-6.35-25.35-11.59-1.62-2.91.11-6.8-1.55-7.68l-5.91-1.94-4.83 8.57c-6.69-4.08-14.62-7.56-20.44-2.87-9.9 4.56-20.67 2-28.84 10.79-6.54 5-11 16.73-18.34 20.58v14.06l2.38 5v14.27l-3 1.86v11.72l-21.75 3.34-.18 44.78c87.93 8 332.22-1.13 626.14-5.65 102.07-.49 242-2 388.06-2.35v-81.5l-54.76-4.07zM1132 157v-8.52h7.45V94.74h3.87v34.33h9.23V91.12h4.86v37.95h14.21v-7.33h-4.32v-21.6h4.32V93h11.32v7.13h4.32v21.6h-4.32v7.33H1196V91.91h3.87v37.16h11.39V94.74h3.81v84.76h-75.67V157zm54.52 524.88h-26.22V664h26.22v17.89zm38.72 0h-31.28V664h31.28v17.89zm35.46 0h-26.37V664h26.37v17.89zm64.94 7.23H1314v-28.74h11.61v28.72zm89 1.29h-7.45v-9.2h7.45v9.2zm0-12.21h-7.45v-8.49h7.45v8.47zm0-12.33h-7.45v-5.67h7.45v5.67zm10.17 24.54h-7.44v-9.2h7.44v9.2zm0-12.21h-7.44v-8.49h7.44v8.47zm0-12.33h-7.44v-5.67h7.44z"/></g></g></svg>