<svg xmlns="http://www.w3.org/2000/svg" viewBox="0 0 33.22 33.22"><g data-name="Слой 2"><path d="M16.61 11.59a4.9 4.9 0 1 1-4.9 4.9 4.9 4.9 0 0 1 4.9-4.9m0-1a5.9 5.9 0 1 0 5.89 5.9 5.9 5.9 0 0 0-5.89-5.9zM16.11.48v6.85a.5.5 0 0 0 1 0V.48a.5.5 0 0 0-1 0zm0 25.4v6.85a.5.5 0 0 0 1 0v-6.85a.5.5 0 0 0-1 0zm16.62-9.77h-6.85a.5.5 0 0 0 0 1h6.85a.5.5 0 0 0 0-1zm-25.4 0H.48a.5.5 0 0 0 0 1h6.85a.5.5 0 0 0 0-1zm21.3 11.28l-5-4.73c-.46-.45-1.17.26-.71.71l5 4.72c.47.45 1.17-.26.71-.7zM10.25 9.85L5.3 5.12c-.47-.44-1.18.26-.71.71l4.95 4.73c.47.44 1.18-.26.71-.71zM5.8 28.6l4.74-4.94c.45-.47-.26-1.18-.7-.71L5.1 27.9c-.45.46.26 1.17.7.7zm17.58-18.33l4.74-4.95c.44-.46-.26-1.17-.71-.71l-4.74 5c-.44.46.26 1.17.71.71z" fill="#2e6aff" data-name="Слой 1"/></g></svg>