<svg xmlns="http://www.w3.org/2000/svg" viewBox="0 0 774.58 141.32"><defs><style>.cls-1{fill:#fff}</style></defs><g id="Слой_2" data-name="Слой 2"><g id="Слой_1-2" data-name="Слой 1"><path class="cls-1" d="M333.76 68.5l-34.33-19a4.4 4.4 0 0 0-4.15 0L261 68.5a4 4 0 0 0-2.13 3.5v37.85a4 4 0 0 0 2.13 3.55l34.33 19a4.31 4.31 0 0 0 4.15 0l15.85-8.77a2.11 2.11 0 0 0 0-3.69l-34.44-18.78a1.86 1.86 0 0 1-1-1.61V82.33a1.85 1.85 0 0 1 .9-1.56l15.64-8.64a2 2 0 0 1 1-.25 1.85 1.85 0 0 1 .93.25L314 80.79a1.76 1.76 0 0 1 .93 1.54V96.4a1.7 1.7 0 0 0 .84 1.47 1.75 1.75 0 0 0 1.69 0l16.79-9.73a3.37 3.37 0 0 0 1.67-2.92V72.05a4 4 0 0 0-2.08-3.55zm-213.4-18.67L86 68.82a4 4 0 0 0-2 3.45v38a4 4 0 0 0 2 3.46l34.32 19a4.5 4.5 0 0 0 4.16 0l34.32-19a4 4 0 0 0 2.08-3.44v-38a4 4 0 0 0-2.08-3.45l-34.32-19a4.42 4.42 0 0 0-4.16 0"/><path class="cls-1" d="M297 85l-5.22 2.9a.58.58 0 0 0-.3.53v5.8a.58.58 0 0 0 .3.52l5.22 2.9a.76.76 0 0 0 .66 0l5.22-2.9a.59.59 0 0 0 .33-.52v-5.8a.59.59 0 0 0-.33-.53l-5.21-2.9a.7.7 0 0 0-.33-.07.82.82 0 0 0-.34.07M250.13 9.54L233.43.22a1.65 1.65 0 0 0-1.7 0 1.69 1.69 0 0 0-.84 1.45v56.39l-15.42-8.56a4.4 4.4 0 0 0-4.15 0L177 68.5a4 4 0 0 0-2.08 3.44v38a3.94 3.94 0 0 0 2.08 3.46l34.33 19a4.48 4.48 0 0 0 4.15 0l34.33-19a4 4 0 0 0 2.08-3.44V12.52a3.46 3.46 0 0 0-1.75-3zM230 101.16l-15.61 8.63a1.91 1.91 0 0 1-1.88 0l-15.61-8.63a1.8 1.8 0 0 1-1-1.56V82.33a1.81 1.81 0 0 1 1-1.59l15.61-8.63a1.92 1.92 0 0 1 1-.23 2.29 2.29 0 0 1 .95.23l15.58 8.63a1.83 1.83 0 0 1 1 1.59V99.6a1.81 1.81 0 0 1-.93 1.56zM120.36 49.83L84 110.29a4 4 0 0 0 2 3.44l34.32 19a4.5 4.5 0 0 0 4.16 0l36.4-60.48a4 4 0 0 0-2.08-3.45l-34.32-19a4.42 4.42 0 0 0-4.16 0"/><path class="cls-1" d="M120.36 49.83L86 68.82a4 4 0 0 0-2 3.45l36.4 60.48a4.5 4.5 0 0 0 4.16 0l34.32-19a4 4 0 0 0 2.08-3.44l-36.4-60.46a4.48 4.48 0 0 0-2.08-.52 4.15 4.15 0 0 0-2.08.52m288.73 6.3l-16.33 9a1.92 1.92 0 0 0-1 1.64v18.13a1.9 1.9 0 0 0 1 1.64l16.33 9a2.16 2.16 0 0 0 2 0l16.33-9a1.9 1.9 0 0 0 1-1.64V66.83a1.9 1.9 0 0 0-1-1.64l-16.33-9a2.16 2.16 0 0 0-2 0"/><path class="cls-1" d="M409.13 56.15l-17.32 28.77a1.9 1.9 0 0 0 1 1.64l16.33 9a2.16 2.16 0 0 0 2 0l17.32-28.78a1.9 1.9 0 0 0-1-1.64l-16.33-9a2.16 2.16 0 0 0-2 0"/><path class="cls-1" d="M409.13 56.15l-16.33 9a1.92 1.92 0 0 0-1 1.64l17.32 28.78a2.16 2.16 0 0 0 2 0l16.33-9a1.9 1.9 0 0 0 1-1.64l-17.34-28.78a2.22 2.22 0 0 0-1-.24 2 2 0 0 0-1 .24m118.03 16.24l-2.74 1.52a.29.29 0 0 0-.15.27v3a.3.3 0 0 0 .15.28l2.74 1.54a.43.43 0 0 0 .35 0l2.74-1.52a.32.32 0 0 0 .17-.28v-3a.31.31 0 0 0-.17-.27l-2.74-1.52a.37.37 0 0 0-.18 0 .38.38 0 0 0-.17 0"/><path class="cls-1" d="M544.78 64.93l-16.47-9.12a2.11 2.11 0 0 0-2 0l-16.47 9.12a1.92 1.92 0 0 0-1 1.69v18.16a1.92 1.92 0 0 0 1 1.69l16.47 9.13a2.07 2.07 0 0 0 2 0l7.6-4.21a1 1 0 0 0 0-1.77l-16.52-9a.92.92 0 0 1-.46-.78v-8.28a.9.9 0 0 1 .43-.75l7.5-4.14a1 1 0 0 1 .46-.12.87.87 0 0 1 .45.12l7.5 4.16a.84.84 0 0 1 .45.73v6.75a.81.81 0 0 0 .4.71.86.86 0 0 0 .81 0l8.07-4.68a1.61 1.61 0 0 0 .8-1.4v-6.31a1.93 1.93 0 0 0-1-1.7zm198.59 7.46l-2.74 1.52a.29.29 0 0 0-.16.27v3a.29.29 0 0 0 .16.28l2.74 1.54a.4.4 0 0 0 .34 0l2.74-1.52a.32.32 0 0 0 .17-.28v-3a.31.31 0 0 0-.17-.27l-2.74-1.52a.38.38 0 0 0-.34 0"/><path class="cls-1" d="M761 64.93l-16.47-9.12a2.11 2.11 0 0 0-2 0l-16.47 9.12a1.92 1.92 0 0 0-1 1.69v18.16a1.92 1.92 0 0 0 1 1.69l16.47 9.13a2.07 2.07 0 0 0 2 0l7.61-4.21a1 1 0 0 0 0-1.77l-16.52-9a.91.91 0 0 1-.47-.78v-8.28a.91.91 0 0 1 .44-.75l7.5-4.14a.93.93 0 0 1 .46-.12.86.86 0 0 1 .44.12l7.5 4.16a.82.82 0 0 1 .45.73v6.75a.82.82 0 0 0 .41.71.86.86 0 0 0 .81 0l8.05-4.67a1.61 1.61 0 0 0 .8-1.4v-6.32a1.93 1.93 0 0 0-1-1.7zm-159.84 7.46l-2.73 1.52a.29.29 0 0 0-.16.27v3a.29.29 0 0 0 .16.28l2.73 1.54a.43.43 0 0 0 .35 0l2.74-1.52a.32.32 0 0 0 .17-.28v-3a.31.31 0 0 0-.17-.27l-2.74-1.52a.35.35 0 0 0-.17 0 .39.39 0 0 0-.18 0"/><path class="cls-1" d="M618.8 64.93l-16.47-9.12a2.11 2.11 0 0 0-2 0l-16.47 9.12a1.92 1.92 0 0 0-1 1.69v18.16a1.92 1.92 0 0 0 1 1.69l16.47 9.13a2.07 2.07 0 0 0 2 0l7.61-4.21a1 1 0 0 0 0-1.77l-16.53-9a.92.92 0 0 1-.46-.78v-8.28a.91.91 0 0 1 .44-.75l7.5-4.14a.93.93 0 0 1 .46-.12.86.86 0 0 1 .44.12l7.5 4.16a.82.82 0 0 1 .45.73v6.75a.82.82 0 0 0 .41.71.86.86 0 0 0 .81 0l8-4.67a1.61 1.61 0 0 0 .8-1.4v-6.32a1.93 1.93 0 0 0-1-1.7zM74.88 68.5l-34.32-19a4.42 4.42 0 0 0-4.16 0l-34.32 19A4 4 0 0 0 0 72v52.23a1.73 1.73 0 0 0 .85 1.48 1.7 1.7 0 0 0 1.69 0L19.33 116a3.39 3.39 0 0 0 1.67-3V82.33a1.79 1.79 0 0 1 .9-1.56l15.63-8.64a2 2 0 0 1 1.92 0l15.63 8.64a1.85 1.85 0 0 1 .9 1.56V113a3.38 3.38 0 0 0 1.66 3l16.78 9.76a1.7 1.7 0 0 0 1.69 0 1.73 1.73 0 0 0 .85-1.48V72.05a4 4 0 0 0-2.08-3.55zm399.58-2.72l-18-10a2.32 2.32 0 0 0-2.17 0l-18 10a2.11 2.11 0 0 0-1.09 1.84V95a.89.89 0 0 0 .45.77.87.87 0 0 0 .88 0l8.79-5.11a1.76 1.76 0 0 0 .87-1.53V73a1 1 0 0 1 .47-.82l8.18-4.52a1.06 1.06 0 0 1 1 0l8.18 4.52a1 1 0 0 1 .47.82v16.09a1.76 1.76 0 0 0 .87 1.53l8.79 5.11a.89.89 0 0 0 1.33-.77V67.64a2.12 2.12 0 0 0-1.09-1.86zm194.8 0l-18-10a2.26 2.26 0 0 0-1.09-.27 2.29 2.29 0 0 0-1.09.27l-18 10a2.09 2.09 0 0 0-1.09 1.84V95a.89.89 0 0 0 1.33.77l8.78-5.11a1.75 1.75 0 0 0 .88-1.53V73a.93.93 0 0 1 .47-.82l8.18-4.52a1 1 0 0 1 1 0l8.18 4.52a1 1 0 0 1 .48.82v16.09a1.76 1.76 0 0 0 .87 1.53l8.84 5.11a.89.89 0 0 0 1.33-.77V67.64a2.11 2.11 0 0 0-1.08-1.86zm-314.35-9.13l-10 18a2.26 2.26 0 0 0-.27 1.09 2.29 2.29 0 0 0 .36 1.06l10 18a2.09 2.09 0 0 0 1.84 1.09h27.34a.91.91 0 0 0 .77-.44.89.89 0 0 0 0-.89l-5.11-8.78a1.75 1.75 0 0 0-1.53-.88h-16.16a.93.93 0 0 1-.82-.47l-4.52-8.18a1 1 0 0 1 0-1l4.52-8.25a1 1 0 0 1 .82-.48h16.07a1.74 1.74 0 0 0 1.53-.87l5.11-8.78a.89.89 0 0 0 0-.89.91.91 0 0 0-.77-.44h-27.32a2.11 2.11 0 0 0-1.86 1.08zm335.91 0l-10 18a2.26 2.26 0 0 0-.27 1.09 2.29 2.29 0 0 0 .27 1.09l10 18a2.1 2.1 0 0 0 1.84 1.09H720a.89.89 0 0 0 .77-1.33l-5.11-8.78a1.75 1.75 0 0 0-1.53-.88h-16.07a.93.93 0 0 1-.82-.47l-4.52-8.18a1 1 0 0 1 0-1l4.52-8.28a1 1 0 0 1 .82-.48h16.07a1.74 1.74 0 0 0 1.53-.87l5.11-8.78a.89.89 0 0 0-.77-1.33h-27.32a2.12 2.12 0 0 0-1.86 1.08zm-197.7 38.73a.93.93 0 0 1-1.05.76l-8.78-4.85a1.67 1.67 0 0 1-.89-1.42V40.59a2.46 2.46 0 0 1 .87-2.28l17.06-9.46s1.42-.51 1.93.58v9.37a1.44 1.44 0 0 1-.94 1.39l-7.6 4.2a1.26 1.26 0 0 0-.59 1.12l-.01 49.87z"/><path class="cls-1" d="M493.13 58s.57 1.42 1.84 1.42h6.19a1.07 1.07 0 0 1 1.1 1.2v9.23s-.18.93-.93.93h-6.41a1.8 1.8 0 0 0-1.79 2h-4.83v-9.46zm63.46 37.58l8-4.68s1.35-.38 1.35-2.81V73.67a1.66 1.66 0 0 1 .72-1.61l7.42-4.06a2.86 2.86 0 0 0 1.06-2.56V56.6a1.08 1.08 0 0 0-1.59-.49l-17.25 9.55A2.85 2.85 0 0 0 555 68v26.77a1.05 1.05 0 0 0 1.59.81z"/><text transform="translate(345.98 130.73)" font-size="31.26" font-family="Stolzl-Book,Stolzl" letter-spacing=".35em" fill="#fff">ODE<tspan x="100.19" y="0" letter-spacing=".36em">S</tspan><tspan x="131.48" y="0" letter-spacing=".34em">S</tspan><tspan x="162.21" y="0">A UKRAINE</tspan></text></g></g></svg>