<svg xmlns="http://www.w3.org/2000/svg" viewBox="0 0 653.09 332">
  <defs>
    <style>
      .cls-1 {
        fill: #2e7d32;
      }
    </style>
  </defs>
  <title>Ресурс 223</title>
  <g id="Слой_2" data-name="Слой 2">
    <g id="Слой_1-2" data-name="Слой 1">
      <path class="cls-1" d="M32.85,228.15v8.1H5.32v-8.1H32.85m1-1H4.32v10.1H33.85v-10.1Z"/>
      <path class="cls-1" d="M28.44,203.65v22.5H10v-22.5H28.44m1-1H9v24.5H29.44v-24.5Z"/>
      <path class="cls-1" d="M32.85,193.53v8.12H5.32v-8.12H32.85m1-1H4.32v10.12H33.85V192.53Z"/>
      <path class="cls-1" d="M30.5,148.42v43.11H7.67V148.42H30.5m1-1H6.67v45.11H31.5V147.42Z"/>
      <path class="cls-1" d="M38.64,140.7v5.72H1V140.7H38.64m1-1H0v7.72H39.64V139.7Z"/>
      <path class="cls-1" d="M36.58,135.69v3H3.16v-3H36.58m1-1H2.16v5H37.58v-5Z"/>
      <path class="cls-1" d="M28.44,238.25V331H10V238.25H28.44m1-1H9V332H29.44V237.25Z"/>
      <path class="cls-1" d="M224.82,130.46V330.85h-6.64V130.46h6.64m1-1h-8.64V331.85h8.64V129.46Z"/>
      <path class="cls-1" d="M429.82,130.46V330.85h-6.63V130.46h6.63m1-1h-8.63V331.85h8.63V129.46Z"/>
      <path class="cls-1" d="M216.18,130.46V330.85H179.63V130.46h36.55m-25.7,81.39h17V146.13h-17v65.72m26.7-82.39H178.63V331.85h38.55V129.46Zm-25.7,81.39V147.13h15v63.72Z"/>
      <path class="cls-1" d="M223.14,115.74v12.72H173.21V115.74h49.93m1-1H172.21v14.72h51.93V114.74Z"/>
      <path class="cls-1" d="M423.39,123.1v5.36H225.14V123.1H423.39m1-1H224.14v7.36H424.39V122.1Z"/>
      <path class="cls-1" d="M216.18,82.27v31.47H179.63V82.27h36.55m1-1H178.63v33.47h38.55V81.27Z"/>
      <path class="cls-1" d="M220.2,69.69V80.27H175.62V69.69H220.2m1-1H174.62V81.27H221.2V68.69Z"/>
      <path class="cls-1" d="M213,62.73v5H183.11v-5H213m1-1H182.11v7H214v-7Z"/>
      <path class="cls-1" d="M210,51v9.78H186.59V51H210m1-1H185.59V61.73H211V50Z"/>
      <path class="cls-1" d="M468.37,130.46V330.85H431.82V130.46h36.55m-25.7,81.39h17V146.13h-17v65.72m26.7-82.39H430.82V331.85h38.55V129.46Zm-25.7,81.39V147.13h15v63.72Z"/>
      <path class="cls-1" d="M475.33,115.74v12.72H425.39V115.74h49.94m1-1H424.39v14.72h51.94V114.74Z"/>
      <path class="cls-1" d="M468.37,82.27v31.47H431.82V82.27h36.55m1-1H430.82v33.47h38.55V81.27Z"/>
      <path class="cls-1" d="M472.39,69.69V80.27H427.8V69.69h44.59m1-1H426.8V81.27h46.59V68.69Z"/>
      <path class="cls-1" d="M465.16,62.73v5H435.3v-5h29.86m1-1H434.3v7h31.86v-7Z"/>
      <path class="cls-1" d="M462.21,51v9.78H438.78V51h23.43m1-1H437.78V61.73h25.43V50Z"/>
      <path class="cls-1" d="M358.21,130.46,352,148.68l-.46,1.33h1.4c26.62,0,64.45,34.43,68.28,38v44.2a140.26,140.26,0,0,0-21.95-29.4c-14.77-15.1-39.77-33.1-75-33.1s-60.34,18-75.24,33.09a141.43,141.43,0,0,0-22.21,29.47V187c19.11-23.48,72.62-38.79,73.16-38.95l1.12-.31-.48-1.06-7.39-16.26h65m1.4-1H291.67l8,17.67s-54.55,15.39-73.89,39.56v49.59s31-65.59,98.45-65.59,97.92,65.59,97.92,65.59V187.56S381.56,149,352.91,149l6.7-19.55Z"/>
      <path class="cls-1" d="M355.54,66.21l74.28,28.4v19.13h-6.43v7.36H225.14v-7.36h-7V91.44l79.67-25.23h57.69m67.13,32.85-5.14-2L353.27,72.31l-.17-.07H301l-.16.06L232.72,95.39l-5.58,1.89,5.9,0L417.16,99l5.51,0M355.73,65.21h-58l-80.52,25.5v24h7v7.36H424.39v-7.36h6.43V93.92L355.73,65.21ZM417.17,98,233.05,96.33l68.06-23.09h51.8L417.17,98Z"/>
      <path class="cls-1" d="M354.73,59.18v5H298.5v-5h56.23m1-1H297.5v7h58.23v-7Z"/>
      <path class="cls-1" d="M359.54,44.33V57.18H293.68V44.33h65.86m1-1H292.68V58.18h67.86V43.33Z"/>
      <path class="cls-1" d="M344.28,32.68v9.65H308.14V32.68h36.14m1-1H307.14V43.33h38.14V31.68Z"/>
      <path class="cls-1" d="M334.85,20.83v9.85H318.78V20.83h16.07m1-1H317.78V31.68h18.07V19.83Z"/>
      <path class="cls-1" d="M326.81,2,337.1,19.81H316.53L326.81,2m0-2-12,20.81h24L326.81,0Z"/>
      <path class="cls-1" d="M647.67,201.74v8.11H619.45v-8.11h28.22m1-1H618.45v10.11h30.22V200.74Z"/>
      <path class="cls-1" d="M642.85,177.25v22.49H624V177.25h18.88m1-1H623v24.49h20.88V176.25Z"/>
      <path class="cls-1" d="M647.67,167.12v8.13H619.45v-8.13h28.22m1-1H618.45v10.13h30.22V166.12Z"/>
      <path class="cls-1" d="M645.26,122v43.11h-23.4V122h23.4m1-1h-25.4v45.11h25.4V121Z"/>
      <path class="cls-1" d="M652.09,114.3V120H613.53V114.3h38.56m1-1H612.53V121h40.56V113.3Z"/>
      <path class="cls-1" d="M649.88,109.28v3H615.64v-3h34.24m1-1H614.64v5h36.24v-5Z"/>
      <path class="cls-1" d="M642.85,211.85v119H624v-119h18.88m1-1H623v121h20.88v-121Z"/>
      <path class="cls-1" d="M555.71,162.39v23.9h-23.9v-23.9h23.9m-12,22.69A10.74,10.74,0,1,0,533,174.34a10.75,10.75,0,0,0,10.74,10.74m13-23.69h-25.9v25.9h25.9v-25.9Zm-13,22.69a9.74,9.74,0,1,1,9.74-9.74,9.74,9.74,0,0,1-9.74,9.74Z"/>
      <path class="cls-1" d="M622,211.85v119H595.1l16-73.48.12-.54-.4-.38a95.1,95.1,0,0,0-18.06-13c-10.4-5.92-26.92-13-46.59-13a68.06,68.06,0,0,0-41.88,13.76A56.9,56.9,0,0,0,491,258l-.21.34.08.39,14.81,72.08H470.37V213.59H485v-1.74H602.8v2.54h16.65v-2.54H622m1-1h-4.52v2.54H603.8v-2.54H484v1.74H469.37V331.85h37.55l-15.06-73.28s16.66-27.11,54.31-27.11,64,25.7,64,25.7l-16.26,74.69H623v-121Z"/>
      <path class="cls-1" d="M118.52,188.79v23.9H95.2v-23.9h23.32m-11.66,22.69a10.74,10.74,0,1,0-10.52-10.74,10.65,10.65,0,0,0,10.52,10.74m12.66-23.69H94.2v25.9h25.32v-25.9Zm-12.66,22.69a9.74,9.74,0,1,1,9.52-9.74,9.63,9.63,0,0,1-9.52,9.74Z"/>
      <path class="cls-1" d="M164.24,211.85v1.74h14.33V330.85H144.09l14.48-72.09.08-.38-.2-.33a56.67,56.67,0,0,0-13-13.82,65.63,65.63,0,0,0-41-13.77c-19.23,0-35.38,7.06-45.55,13a93.68,93.68,0,0,0-17.66,13l-.38.39.11.53,15.64,73.48H30.44v-119h2.41v2.54H49.18v-2.54H164.24m1-1H48.18v2.54H33.85v-2.54H29.44v121H57.89L42,257.16s25.71-25.7,62.5-25.7,53.09,27.11,53.09,27.11l-14.72,73.28h36.7V212.59H165.24v-1.74Z"/>
      <path class="cls-1" d="M106.69,135.15l38.77,21.56.23.12h32.88v40.1H164.24v2.81H122.87V186.29h-2.35v-25.9H93.2v25.9H90.65v13.45H49.18v-2H32.85v2H30.44V177.25h4.41V165.12H32.5v-8.29H64.68l.21-.11,41.8-21.57m0-1.14L64.44,155.83H31.5v10.29h2.35v10.13H29.44v24.49h4.41v-2H48.18v2H91.65V187.29H94.2v-25.9h25.32v25.9h2.35v13.45h43.37v-2.81h14.33v-42.1H145.94L106.71,134Z"/>
      <path class="cls-1" d="M543.93,135.14l42.78,21.58.22.11h32.93v8.29h-2.41v12.13H622v22.49h-2.52v-2H602.8v2H560.32V186.29h-2.61v-25.9h-27.9v25.9H527.4v13.45H485v-2.81H470.37v-40.1H504l.22-.12,39.68-21.57m0-1.13-40.14,21.82h-34.4v42.1H484v2.81H528.4V187.29h2.41v-25.9h25.9v25.9h2.61v13.45H603.8v-2h14.65v2H623V176.25h-4.52V166.12h2.41V155.83h-33.7L543.91,134Z"/>
    </g>
  </g>
</svg>
