<svg xmlns="http://www.w3.org/2000/svg" viewBox="0 0 2009.86 809.29">
  <defs>
    <style>
      .cls-1 {
        fill: #2e7d32;
      }

      .cls-2 {
        fill: #37474f;
        fill-rule: evenodd;
      }
    </style>
  </defs>
  <title>Ресурс 211</title>
  <g id="Слой_2" data-name="Слой 2">
    <g id="Слой_1-2" data-name="Слой 1">
      <polygon class="cls-1" points="61.97 553.11 61.97 517.33 30.99 499.44 0 517.33 0 553.11 30.99 571 61.97 553.11"/>
      <polygon class="cls-1" points="95.96 612.86 95.96 577.08 64.98 559.19 33.99 577.08 33.99 612.86 64.98 630.75 95.96 612.86"/>
      <polygon class="cls-1" points="61.97 672.25 61.97 636.47 30.99 618.58 0 636.47 0 672.25 30.99 690.14 61.97 672.25"/>
      <polygon class="cls-1" points="61.97 791.4 61.97 755.62 30.99 737.73 0 755.62 0 791.4 30.99 809.29 61.97 791.4"/>
      <polygon class="cls-1" points="95.96 732.01 95.96 696.23 64.98 678.34 33.99 696.23 33.99 732.01 64.98 749.9 95.96 732.01"/>
      <polygon class="cls-1" points="130.85 553.11 130.85 517.33 99.86 499.44 68.88 517.33 68.88 553.11 99.86 571 130.85 553.11"/>
      <polygon class="cls-1" points="199.01 553.11 199.01 517.33 168.03 499.44 137.04 517.33 137.04 553.11 168.03 571 199.01 553.11"/>
      <polygon class="cls-1" points="233 612.86 233 577.08 202.02 559.19 171.03 577.08 171.03 612.86 202.02 630.75 233 612.86"/>
      <polygon class="cls-1" points="164.66 612.86 164.66 577.08 133.68 559.19 102.69 577.08 102.69 612.86 133.68 630.75 164.66 612.86"/>
      <polygon class="cls-1" points="130.67 672.25 130.67 636.47 99.68 618.58 68.7 636.47 68.7 672.25 99.68 690.14 130.67 672.25"/>
      <polygon class="cls-1" points="199.01 672.25 199.01 636.47 168.03 618.58 137.04 636.47 137.04 672.25 168.03 690.14 199.01 672.25"/>
      <polygon class="cls-1" points="199.01 791.4 199.01 755.62 168.03 737.73 137.04 755.62 137.04 791.4 168.03 809.29 199.01 791.4"/>
      <polygon class="cls-1" points="164.66 732.01 164.66 696.23 133.68 678.34 102.69 696.23 102.69 732.01 133.68 749.9 164.66 732.01"/>
      <polygon class="cls-1" points="233 732.01 233 696.23 202.02 678.34 171.03 696.23 171.03 732.01 202.02 749.9 233 732.01"/>
      <polygon class="cls-1" points="130.67 791.4 130.67 755.62 99.68 737.73 68.7 755.62 68.7 791.4 99.68 809.29 130.67 791.4"/>
      <polygon class="cls-1" points="335.67 553.11 335.67 517.33 304.69 499.44 273.7 517.33 273.7 553.11 304.69 571 335.67 553.11"/>
      <polygon class="cls-1" points="267.51 553.11 267.51 517.33 236.53 499.44 205.54 517.33 205.54 553.11 236.53 571 267.51 553.11"/>
      <polygon class="cls-1" points="403.83 553.11 403.83 517.33 372.85 499.44 341.86 517.33 341.86 553.11 372.85 571 403.83 553.11"/>
      <polygon class="cls-1" points="369.67 612.86 369.67 577.08 338.68 559.19 307.69 577.08 307.69 612.86 338.68 630.75 369.67 612.86"/>
      <polygon class="cls-1" points="301.32 612.86 301.32 577.08 270.34 559.19 239.35 577.08 239.35 612.86 270.34 630.75 301.32 612.86"/>
      <polygon class="cls-1" points="472 553.11 472 517.33 441.01 499.44 410.02 517.33 410.02 553.11 441.01 571 472 553.11"/>
      <polygon class="cls-1" points="505.99 612.86 505.99 577.08 475 559.19 444.01 577.08 444.01 612.86 475 630.75 505.99 612.86"/>
      <polygon class="cls-1" points="437.65 612.86 437.65 577.08 406.66 559.19 375.67 577.08 375.67 612.86 406.66 630.75 437.65 612.86"/>
      <polygon class="cls-1" points="335.67 672.25 335.67 636.47 304.69 618.58 273.7 636.47 273.7 672.25 304.69 690.14 335.67 672.25"/>
      <polygon class="cls-1" points="403.66 672.25 403.66 636.47 372.67 618.58 341.68 636.47 341.68 672.25 372.67 690.14 403.66 672.25"/>
      <polygon class="cls-1" points="472 672.25 472 636.47 441.01 618.58 410.02 636.47 410.02 672.25 441.01 690.14 472 672.25"/>
      <polygon class="cls-1" points="472 791.4 472 755.62 441.01 737.73 410.02 755.62 410.02 791.4 441.01 809.29 472 791.4"/>
      <polygon class="cls-1" points="437.65 732.01 437.65 696.23 406.66 678.34 375.67 696.23 375.67 732.01 406.66 749.9 437.65 732.01"/>
      <polygon class="cls-1" points="505.99 732.01 505.99 696.23 475 678.34 444.01 696.23 444.01 732.01 475 749.9 505.99 732.01"/>
      <polygon class="cls-1" points="369.31 732.01 369.31 696.23 338.32 678.34 307.33 696.23 307.33 732.01 338.32 749.9 369.31 732.01"/>
      <polygon class="cls-1" points="403.66 791.4 403.66 755.62 372.67 737.73 341.68 755.62 341.68 791.4 372.67 809.29 403.66 791.4"/>
      <polygon class="cls-1" points="267.51 672.25 267.51 636.47 236.53 618.58 205.54 636.47 205.54 672.25 236.53 690.14 267.51 672.25"/>
      <polygon class="cls-1" points="301.5 732.01 301.5 696.23 270.52 678.34 239.53 696.23 239.53 732.01 270.52 749.9 301.5 732.01"/>
      <polygon class="cls-1" points="267.51 791.4 267.51 755.62 236.53 737.73 205.54 755.62 205.54 791.4 236.53 809.29 267.51 791.4"/>
      <polygon class="cls-1" points="335.5 791.4 335.5 755.62 304.51 737.73 273.52 755.62 273.52 791.4 304.51 809.29 335.5 791.4"/>
      <polygon class="cls-1" points="540.87 553.11 540.87 517.33 509.89 499.44 478.9 517.33 478.9 553.11 509.89 571 540.87 553.11"/>
      <polygon class="cls-1" points="609.03 553.11 609.03 517.33 578.05 499.44 547.06 517.33 547.06 553.11 578.05 571 609.03 553.11"/>
      <polygon class="cls-1" points="643.02 612.86 643.02 577.08 612.04 559.19 581.05 577.08 581.05 612.86 612.04 630.75 643.02 612.86"/>
      <polygon class="cls-1" points="574.68 612.86 574.68 577.08 543.7 559.19 512.71 577.08 512.71 612.86 543.7 630.75 574.68 612.86"/>
      <polygon class="cls-1" points="540.69 672.25 540.69 636.47 509.71 618.58 478.72 636.47 478.72 672.25 509.71 690.14 540.69 672.25"/>
      <polygon class="cls-1" points="609.03 672.25 609.03 636.47 578.05 618.58 547.06 636.47 547.06 672.25 578.05 690.14 609.03 672.25"/>
      <polygon class="cls-1" points="609.03 791.4 609.03 755.62 578.05 737.73 547.06 755.62 547.06 791.4 578.05 809.29 609.03 791.4"/>
      <polygon class="cls-1" points="574.68 732.01 574.68 696.23 543.7 678.34 512.71 696.23 512.71 732.01 543.7 749.9 574.68 732.01"/>
      <polygon class="cls-1" points="643.02 732.01 643.02 696.23 612.04 678.34 581.05 696.23 581.05 732.01 612.04 749.9 643.02 732.01"/>
      <polygon class="cls-1" points="540.69 791.4 540.69 755.62 509.71 737.73 478.72 755.62 478.72 791.4 509.71 809.29 540.69 791.4"/>
      <polygon class="cls-1" points="677.45 553.11 677.45 517.33 646.46 499.44 615.47 517.33 615.47 553.11 646.46 571 677.45 553.11"/>
      <polygon class="cls-1" points="745.61 553.11 745.61 517.33 714.62 499.44 683.63 517.33 683.63 553.11 714.62 571 745.61 553.11"/>
      <polygon class="cls-1" points="779.6 612.86 779.6 577.08 748.61 559.19 717.63 577.08 717.63 612.86 748.61 630.75 779.6 612.86"/>
      <polygon class="cls-1" points="711.26 612.86 711.26 577.08 680.27 559.19 649.29 577.08 649.29 612.86 680.27 630.75 711.26 612.86"/>
      <polygon class="cls-1" points="677.27 672.25 677.27 636.47 646.28 618.58 615.29 636.47 615.29 672.25 646.28 690.14 677.27 672.25"/>
      <polygon class="cls-1" points="745.61 672.25 745.61 636.47 714.62 618.58 683.63 636.47 683.63 672.25 714.62 690.14 745.61 672.25"/>
      <polygon class="cls-1" points="745.61 791.4 745.61 755.62 714.62 737.73 683.63 755.62 683.63 791.4 714.62 809.29 745.61 791.4"/>
      <polygon class="cls-1" points="711.26 732.01 711.26 696.23 680.27 678.34 649.29 696.23 649.29 732.01 680.27 749.9 711.26 732.01"/>
      <polygon class="cls-1" points="779.6 732.01 779.6 696.23 748.61 678.34 717.63 696.23 717.63 732.01 748.61 749.9 779.6 732.01"/>
      <polygon class="cls-1" points="677.27 791.4 677.27 755.62 646.28 737.73 615.29 755.62 615.29 791.4 646.28 809.29 677.27 791.4"/>
      <polygon class="cls-1" points="882.55 553.11 882.55 517.33 851.56 499.44 820.57 517.33 820.57 553.11 851.56 571 882.55 553.11"/>
      <polygon class="cls-1" points="814.38 553.11 814.38 517.33 783.4 499.44 752.41 517.33 752.41 553.11 783.4 571 814.38 553.11"/>
      <polygon class="cls-1" points="950.71 553.11 950.71 517.33 919.72 499.44 888.73 517.33 888.73 553.11 919.72 571 950.71 553.11"/>
      <polygon class="cls-1" points="916.54 612.86 916.54 577.08 885.55 559.19 854.56 577.08 854.56 612.86 885.55 630.75 916.54 612.86"/>
      <polygon class="cls-1" points="848.2 612.86 848.2 577.08 817.21 559.19 786.22 577.08 786.22 612.86 817.21 630.75 848.2 612.86"/>
      <polygon class="cls-1" points="1018.87 553.11 1018.87 517.33 987.88 499.44 956.9 517.33 956.9 553.11 987.88 571 1018.87 553.11"/>
      <polygon class="cls-1" points="1052.86 612.86 1052.86 577.08 1021.87 559.19 990.89 577.08 990.89 612.86 1021.87 630.75 1052.86 612.86"/>
      <polygon class="cls-1" points="984.52 612.86 984.52 577.08 953.53 559.19 922.55 577.08 922.55 612.86 953.53 630.75 984.52 612.86"/>
      <polygon class="cls-1" points="882.55 672.25 882.55 636.47 851.56 618.58 820.57 636.47 820.57 672.25 851.56 690.14 882.55 672.25"/>
      <polygon class="cls-1" points="950.53 672.25 950.53 636.47 919.54 618.58 888.56 636.47 888.56 672.25 919.54 690.14 950.53 672.25"/>
      <polygon class="cls-1" points="1018.87 672.25 1018.87 636.47 987.88 618.58 956.9 636.47 956.9 672.25 987.88 690.14 1018.87 672.25"/>
      <polygon class="cls-1" points="1018.87 791.4 1018.87 755.62 987.88 737.73 956.9 755.62 956.9 791.4 987.88 809.29 1018.87 791.4"/>
      <polygon class="cls-1" points="984.52 732.01 984.52 696.23 953.53 678.34 922.55 696.23 922.55 732.01 953.53 749.9 984.52 732.01"/>
      <polygon class="cls-1" points="1052.86 732.01 1052.86 696.23 1021.87 678.34 990.89 696.23 990.89 732.01 1021.87 749.9 1052.86 732.01"/>
      <polygon class="cls-1" points="916.18 732.01 916.18 696.23 885.19 678.34 854.21 696.23 854.21 732.01 885.19 749.9 916.18 732.01"/>
      <polygon class="cls-1" points="950.53 791.4 950.53 755.62 919.54 737.73 888.56 755.62 888.56 791.4 919.54 809.29 950.53 791.4"/>
      <polygon class="cls-1" points="814.38 672.25 814.38 636.47 783.4 618.58 752.41 636.47 752.41 672.25 783.4 690.14 814.38 672.25"/>
      <polygon class="cls-1" points="848.38 732.01 848.38 696.23 817.39 678.34 786.4 696.23 786.4 732.01 817.39 749.9 848.38 732.01"/>
      <polygon class="cls-1" points="814.38 791.4 814.38 755.62 783.4 737.73 752.41 755.62 752.41 791.4 783.4 809.29 814.38 791.4"/>
      <polygon class="cls-1" points="882.37 791.4 882.37 755.62 851.38 737.73 820.39 755.62 820.39 791.4 851.38 809.29 882.37 791.4"/>
      <polygon class="cls-1" points="1087.75 553.11 1087.75 517.33 1056.76 499.44 1025.77 517.33 1025.77 553.11 1056.76 571 1087.75 553.11"/>
      <polygon class="cls-1" points="1155.91 553.11 1155.91 517.33 1124.92 499.44 1093.93 517.33 1093.93 553.11 1124.92 571 1155.91 553.11"/>
      <polygon class="cls-1" points="1189.9 612.86 1189.9 577.08 1158.91 559.19 1127.92 577.08 1127.92 612.86 1158.91 630.75 1189.9 612.86"/>
      <polygon class="cls-1" points="1121.56 612.86 1121.56 577.08 1090.57 559.19 1059.59 577.08 1059.59 612.86 1090.57 630.75 1121.56 612.86"/>
      <polygon class="cls-1" points="1087.57 672.25 1087.57 636.47 1056.58 618.58 1025.59 636.47 1025.59 672.25 1056.58 690.14 1087.57 672.25"/>
      <polygon class="cls-1" points="1155.91 672.25 1155.91 636.47 1124.92 618.58 1093.93 636.47 1093.93 672.25 1124.92 690.14 1155.91 672.25"/>
      <polygon class="cls-1" points="1155.91 791.4 1155.91 755.62 1124.92 737.73 1093.93 755.62 1093.93 791.4 1124.92 809.29 1155.91 791.4"/>
      <polygon class="cls-1" points="1121.56 732.01 1121.56 696.23 1090.57 678.34 1059.59 696.23 1059.59 732.01 1090.57 749.9 1121.56 732.01"/>
      <polygon class="cls-1" points="1189.9 732.01 1189.9 696.23 1158.91 678.34 1127.92 696.23 1127.92 732.01 1158.91 749.9 1189.9 732.01"/>
      <polygon class="cls-1" points="1087.57 791.4 1087.57 755.62 1056.58 737.73 1025.59 755.62 1025.59 791.4 1056.58 809.29 1087.57 791.4"/>
      <polygon class="cls-1" points="1292.57 553.11 1292.57 517.33 1261.58 499.44 1230.6 517.33 1230.6 553.11 1261.58 571 1292.57 553.11"/>
      <polygon class="cls-1" points="1224.41 553.11 1224.41 517.33 1193.42 499.44 1162.43 517.33 1162.43 553.11 1193.42 571 1224.41 553.11"/>
      <polygon class="cls-1" points="1360.73 553.11 1360.73 517.33 1329.74 499.44 1298.76 517.33 1298.76 553.11 1329.74 571 1360.73 553.11"/>
      <polygon class="cls-1" points="1326.56 612.86 1326.56 577.08 1295.57 559.19 1264.59 577.08 1264.59 612.86 1295.57 630.75 1326.56 612.86"/>
      <polygon class="cls-1" points="1258.22 612.86 1258.22 577.08 1227.23 559.19 1196.25 577.08 1196.25 612.86 1227.23 630.75 1258.22 612.86"/>
      <polygon class="cls-1" points="1428.89 553.11 1428.89 517.33 1397.9 499.44 1366.92 517.33 1366.92 553.11 1397.9 571 1428.89 553.11"/>
      <polygon class="cls-1" points="1462.88 612.86 1462.88 577.08 1431.9 559.19 1400.91 577.08 1400.91 612.86 1431.9 630.75 1462.88 612.86"/>
      <polygon class="cls-1" points="1394.54 612.86 1394.54 577.08 1363.56 559.19 1332.57 577.08 1332.57 612.86 1363.56 630.75 1394.54 612.86"/>
      <polygon class="cls-1" points="1292.57 672.25 1292.57 636.47 1261.58 618.58 1230.6 636.47 1230.6 672.25 1261.58 690.14 1292.57 672.25"/>
      <polygon class="cls-1" points="1360.55 672.25 1360.55 636.47 1329.57 618.58 1298.58 636.47 1298.58 672.25 1329.57 690.14 1360.55 672.25"/>
      <polygon class="cls-1" points="1428.89 672.25 1428.89 636.47 1397.9 618.58 1366.92 636.47 1366.92 672.25 1397.9 690.14 1428.89 672.25"/>
      <polygon class="cls-1" points="1428.89 791.4 1428.89 755.62 1397.9 737.73 1366.92 755.62 1366.92 791.4 1397.9 809.29 1428.89 791.4"/>
      <polygon class="cls-1" points="1394.54 732.01 1394.54 696.23 1363.56 678.34 1332.57 696.23 1332.57 732.01 1363.56 749.9 1394.54 732.01"/>
      <polygon class="cls-1" points="1462.88 732.01 1462.88 696.23 1431.9 678.34 1400.91 696.23 1400.91 732.01 1431.9 749.9 1462.88 732.01"/>
      <polygon class="cls-1" points="1326.2 732.01 1326.2 696.23 1295.22 678.34 1264.23 696.23 1264.23 732.01 1295.22 749.9 1326.2 732.01"/>
      <polygon class="cls-1" points="1360.55 791.4 1360.55 755.62 1329.57 737.73 1298.58 755.62 1298.58 791.4 1329.57 809.29 1360.55 791.4"/>
      <polygon class="cls-1" points="1224.41 672.25 1224.41 636.47 1193.42 618.58 1162.43 636.47 1162.43 672.25 1193.42 690.14 1224.41 672.25"/>
      <polygon class="cls-1" points="1258.4 732.01 1258.4 696.23 1227.41 678.34 1196.43 696.23 1196.43 732.01 1227.41 749.9 1258.4 732.01"/>
      <polygon class="cls-1" points="1224.41 791.4 1224.41 755.62 1193.42 737.73 1162.43 755.62 1162.43 791.4 1193.42 809.29 1224.41 791.4"/>
      <polygon class="cls-1" points="1292.39 791.4 1292.39 755.62 1261.4 737.73 1230.42 755.62 1230.42 791.4 1261.4 809.29 1292.39 791.4"/>
      <polygon class="cls-1" points="1497.77 553.11 1497.77 517.33 1466.78 499.44 1435.8 517.33 1435.8 553.11 1466.78 571 1497.77 553.11"/>
      <polygon class="cls-1" points="1565.93 553.11 1565.93 517.33 1534.94 499.44 1503.96 517.33 1503.96 553.11 1534.94 571 1565.93 553.11"/>
      <polygon class="cls-1" points="1599.92 612.86 1599.92 577.08 1568.93 559.19 1537.95 577.08 1537.95 612.86 1568.93 630.75 1599.92 612.86"/>
      <polygon class="cls-1" points="1531.58 612.86 1531.58 577.08 1500.59 559.19 1469.61 577.08 1469.61 612.86 1500.59 630.75 1531.58 612.86"/>
      <polygon class="cls-1" points="1497.59 672.25 1497.59 636.47 1466.6 618.58 1435.62 636.47 1435.62 672.25 1466.6 690.14 1497.59 672.25"/>
      <polygon class="cls-1" points="1565.93 672.25 1565.93 636.47 1534.94 618.58 1503.96 636.47 1503.96 672.25 1534.94 690.14 1565.93 672.25"/>
      <polygon class="cls-1" points="1565.93 791.4 1565.93 755.62 1534.94 737.73 1503.96 755.62 1503.96 791.4 1534.94 809.29 1565.93 791.4"/>
      <polygon class="cls-1" points="1531.58 732.01 1531.58 696.23 1500.59 678.34 1469.61 696.23 1469.61 732.01 1500.59 749.9 1531.58 732.01"/>
      <polygon class="cls-1" points="1599.92 732.01 1599.92 696.23 1568.93 678.34 1537.95 696.23 1537.95 732.01 1568.93 749.9 1599.92 732.01"/>
      <polygon class="cls-1" points="1497.59 791.4 1497.59 755.62 1466.6 737.73 1435.62 755.62 1435.62 791.4 1466.6 809.29 1497.59 791.4"/>
      <polygon class="cls-1" points="1634.34 553.11 1634.34 517.33 1603.36 499.44 1572.37 517.33 1572.37 553.11 1603.36 571 1634.34 553.11"/>
      <polygon class="cls-1" points="1702.5 553.11 1702.5 517.33 1671.52 499.44 1640.53 517.33 1640.53 553.11 1671.52 571 1702.5 553.11"/>
      <polygon class="cls-1" points="1736.49 612.86 1736.49 577.08 1705.51 559.19 1674.52 577.08 1674.52 612.86 1705.51 630.75 1736.49 612.86"/>
      <polygon class="cls-1" points="1668.15 612.86 1668.15 577.08 1637.17 559.19 1606.18 577.08 1606.18 612.86 1637.17 630.75 1668.15 612.86"/>
      <polygon class="cls-1" points="1634.16 672.25 1634.16 636.47 1603.18 618.58 1572.19 636.47 1572.19 672.25 1603.18 690.14 1634.16 672.25"/>
      <polygon class="cls-1" points="1702.5 672.25 1702.5 636.47 1671.52 618.58 1640.53 636.47 1640.53 672.25 1671.52 690.14 1702.5 672.25"/>
      <polygon class="cls-1" points="1702.5 791.4 1702.5 755.62 1671.52 737.73 1640.53 755.62 1640.53 791.4 1671.52 809.29 1702.5 791.4"/>
      <polygon class="cls-1" points="1668.15 732.01 1668.15 696.23 1637.17 678.34 1606.18 696.23 1606.18 732.01 1637.17 749.9 1668.15 732.01"/>
      <polygon class="cls-1" points="1736.49 732.01 1736.49 696.23 1705.51 678.34 1674.52 696.23 1674.52 732.01 1705.51 749.9 1736.49 732.01"/>
      <polygon class="cls-1" points="1634.16 791.4 1634.16 755.62 1603.18 737.73 1572.19 755.62 1572.19 791.4 1603.18 809.29 1634.16 791.4"/>
      <polygon class="cls-1" points="1839.54 553.11 1839.54 517.33 1808.56 499.44 1777.57 517.33 1777.57 553.11 1808.56 571 1839.54 553.11"/>
      <polygon class="cls-1" points="1771.38 553.11 1771.38 517.33 1740.39 499.44 1709.41 517.33 1709.41 553.11 1740.39 571 1771.38 553.11"/>
      <polygon class="cls-1" points="1907.7 553.11 1907.7 517.33 1876.72 499.44 1845.73 517.33 1845.73 553.11 1876.72 571 1907.7 553.11"/>
      <polygon class="cls-1" points="1873.53 612.86 1873.53 577.08 1842.55 559.19 1811.56 577.08 1811.56 612.86 1842.55 630.75 1873.53 612.86"/>
      <polygon class="cls-1" points="1805.19 612.86 1805.19 577.08 1774.21 559.19 1743.22 577.08 1743.22 612.86 1774.21 630.75 1805.19 612.86"/>
      <polygon class="cls-1" points="1975.86 553.11 1975.86 517.33 1944.88 499.44 1913.89 517.33 1913.89 553.11 1944.88 571 1975.86 553.11"/>
      <polygon class="cls-1" points="2009.86 612.86 2009.86 577.08 1978.87 559.19 1947.88 577.08 1947.88 612.86 1978.87 630.75 2009.86 612.86"/>
      <polygon class="cls-1" points="1941.52 612.86 1941.52 577.08 1910.53 559.19 1879.54 577.08 1879.54 612.86 1910.53 630.75 1941.52 612.86"/>
      <polygon class="cls-1" points="1839.54 672.25 1839.54 636.47 1808.56 618.58 1777.57 636.47 1777.57 672.25 1808.56 690.14 1839.54 672.25"/>
      <polygon class="cls-1" points="1907.52 672.25 1907.52 636.47 1876.54 618.58 1845.55 636.47 1845.55 672.25 1876.54 690.14 1907.52 672.25"/>
      <polygon class="cls-1" points="1975.86 672.25 1975.86 636.47 1944.88 618.58 1913.89 636.47 1913.89 672.25 1944.88 690.14 1975.86 672.25"/>
      <polygon class="cls-1" points="1975.86 791.4 1975.86 755.62 1944.88 737.73 1913.89 755.62 1913.89 791.4 1944.88 809.29 1975.86 791.4"/>
      <polygon class="cls-1" points="1941.52 732.01 1941.52 696.23 1910.53 678.34 1879.54 696.23 1879.54 732.01 1910.53 749.9 1941.52 732.01"/>
      <polygon class="cls-1" points="2009.86 732.01 2009.86 696.23 1978.87 678.34 1947.88 696.23 1947.88 732.01 1978.87 749.9 2009.86 732.01"/>
      <polygon class="cls-1" points="1873.17 732.01 1873.17 696.23 1842.19 678.34 1811.2 696.23 1811.2 732.01 1842.19 749.9 1873.17 732.01"/>
      <polygon class="cls-1" points="1907.52 791.4 1907.52 755.62 1876.54 737.73 1845.55 755.62 1845.55 791.4 1876.54 809.29 1907.52 791.4"/>
      <polygon class="cls-1" points="1771.38 672.25 1771.38 636.47 1740.39 618.58 1709.41 636.47 1709.41 672.25 1740.39 690.14 1771.38 672.25"/>
      <polygon class="cls-1" points="1805.37 732.01 1805.37 696.23 1774.38 678.34 1743.4 696.23 1743.4 732.01 1774.38 749.9 1805.37 732.01"/>
      <polygon class="cls-1" points="1771.38 791.4 1771.38 755.62 1740.39 737.73 1709.41 755.62 1709.41 791.4 1740.39 809.29 1771.38 791.4"/>
      <polygon class="cls-1" points="1839.36 791.4 1839.36 755.62 1808.38 737.73 1777.39 755.62 1777.39 791.4 1808.38 809.29 1839.36 791.4"/>
      <g>
        <path class="cls-2" d="M191.81,684h325l16-35.79-6.47-7.68L514,646.09l-7.55,7-8.8-4.87-9.55,1.38.79-9.06-9.32,6.36-5.33,1.67,2.37-3.67h-6.87l-3.91-74.62-1.42,2v70.12l-4-1.06-5.61,4.11h-2l-1.46-7.88-3.87-2-.68,10-7,2.22,0-1.68V636.5l-8.45,1.36v8.84L428,644.3l.4-4.8L422,637.28v9.42H410.71l-1-5.69-10.38-3.73v7l-4.9,3.11L384,634.63l-3-1.17,1.47,8.81-19.19,4.43.67-9.42-4.42-2.35,1.58,7.34H348.84l-2.45-16.37,4-8.52,1.47-4.75-4.66-2.27h-3.63V603h-3.87l-3.91,2.76-5.29,4.32-.68,1.43-9.94.31.39-12H311.4l.4-17.78,9.36-7.45V562.74l-2.09.84V570l-4,1.17-.67-9.56-4.15,2-.79,7.55H305.2l.8-32.92-.75,2v52.91h-7.66L287,598.68l1.47,4.34-16.86,4.4.67,4.11-4.42,2.62,1.46,6.86-9.87,4.39L253.88,620l-7.62,6.71-7.66-6.21-3.4,9.09-2.68-1.08h-6v2.93l-19.22,2-6.75,3.5-2.45,8.59,3.59-1.25.4,4.63,2.09.33-.67,7.59c-3.21.14-16.62,6.45-16.58,10.9C183.19,675.46,183.59,683.14,191.81,684Z"/>
        <path class="cls-2" d="M40.67,521,1658,510.46c-61.68-8.9-113.42-29.43-187.6-21l-8.79-.71V467.94h-8.35v-6.86h-7.49v6.86h-3.51v7.23H1437V468.3h-8.4v-3.7h-5.3v3.7h-8.37v6.05h-74.53v6.24c-43.69-4.25-95.38,1.21-123.11-4.23-18.26-5.91-32.45-1.66-37.17,5.56l-48.5-1.38.4-21h-7.89v-1.86H1117v1.86h-5.93v24h-11.64V463.09h-5.27V460H1085v3.06h-6.45v14.76c-29.16-5.24-58.53-3.39-89.84-7.23v-6.84h-5.31v-3.06h-8.68v3.06H966.9v-3.06h-7.44v3.06h-3.85v6.36c-40.43,3.6-81.09,13.84-116.27,16.64-120.89-16.63-248.08-12.65-377.54,5.91l-238-19c-28.83-12.85-59.7-10.33-88.8-9.83-7-2.32-9.91-.89-19.17-.73V411.28h1.4v52c-42.36.28-35.41,5.12-76.51-2.82Z"/>
        <path class="cls-2" d="M1906.2,634.26l-16.69,10.24v48.23l-225.33,6.37-52.54-44.62-90.56.51-46.5-30.12-118.52.92V604.73h5.65v-10.8l-.27-.59-6.44-6.27h-6.7l-7.54,6.27v11.39h5.09v22.36l-38.16.7V605h5.52V594.67l-.13,1.59-6.64-7.46h-6.7l-7.54,7.46V605h5.09v23.29l-31.36.08-.75-12.79.38-24.76-29.94,1.68-8.94-399.64,10.24-9.73h54V179.5H1238.8l.91-3.13V148.46l-7.37-.41.3-55h-13.11V86.42h-10.92c-4.31-7-14.75-16-27.37-16.27V63.44c2-1.24,2.23-5.78,2.23-4.6,0-6.63-2.27-4.6-5.31-7.71V0h-3.05V51.13c-3,3.11-5.31,1.08-5.31,7.71,0-1.18,1.49,3.36,1.49,4.6v6.71c-11.86.23-22.32,9.24-26.67,16.27h-12v6.66h-13.82V179.5H1061v3.59h55.49l10.06,9.73-1.27,400c-17.2-3.21-5.15,10.75-8,11.94-10.49,4.46-16.21,12.51-28.19,16.4V560.25h-2.26v59.59c-2.34-.3-2.69.35-5.51-.51V483.62h-2.61V617.84c-1.41,1.53-3.08-.3-4.19-.94-7.58-2.65-17.53-6.35-25.35-11.59-1.62-2.91.11-6.8-1.55-7.68l-5.91-1.94-4.83,8.57c-6.69-4.08-14.62-7.56-20.44-2.87-9.9,4.56-20.67,2-28.84,10.79-6.54,5-11,16.73-18.34,20.58v14.06l2.38,5v14.27l-3,1.86v11.72l-21.75,3.34-.18,44.78c87.93,8,332.22-1.13,626.14-5.65,102.07-.49,242-2,388.06-2.35v-81.5l-54.76-4.07ZM1132,157h0v-8.52h7.45V94.74h3.87v34.33h9.23V91.12h4.86v37.95h14.21v-7.33h-4.32v-21.6h4.32V93h11.32v7.13h4.32v21.6h-4.32v7.33H1196V91.91h3.87v37.16h11.39V94.74h3.81V179.5H1139.4V157Zm54.52,524.88h-26.22V664h26.22v17.89Zm38.72,0h-31.28V664h31.28v17.89Zm35.46,0h-26.37V664h26.37v17.89Zm64.94,7.23H1314V660.37h11.61v28.72Zm89,1.29h-7.45v-9.2h7.45v9.2Zm0-12.21h-7.45V669.7h7.45v8.47Zm0-12.33h-7.45v-5.67h7.45v5.67Zm10.17,24.54h-7.44v-9.2h7.44v9.2Zm0-12.21h-7.44V669.7h7.44v8.47Zm0-12.33h-7.44v-5.67h7.44Z"/>
      </g>
    </g>
  </g>
</svg>
