<svg xmlns="http://www.w3.org/2000/svg" viewBox="0 0 33.22 33.22">
  <defs>
    <style>
      .cls-1 {
        fill: #2e6aff;
      }
    </style>
  </defs>
  <title>Ресурс 24i4</title>
  <g id="Слой_2" data-name="Слой 2">
    <g id="Слой_1-2" data-name="Слой 1">
      <g>
        <path class="cls-1" d="M16.61,11.59a4.9,4.9,0,1,1-4.9,4.9,4.9,4.9,0,0,1,4.9-4.9m0-1a5.9,5.9,0,1,0,5.89,5.9,5.9,5.9,0,0,0-5.89-5.9Z"/>
        <path class="cls-1" d="M16.11.48V7.33a.5.5,0,0,0,1,0V.48a.5.5,0,0,0-1,0Z"/>
        <path class="cls-1" d="M16.11,25.88v6.85a.5.5,0,0,0,1,0V25.88a.5.5,0,0,0-1,0Z"/>
        <path class="cls-1" d="M32.73,16.11H25.88a.5.5,0,0,0,0,1h6.85a.5.5,0,0,0,0-1Z"/>
        <path class="cls-1" d="M7.33,16.11H.48a.5.5,0,0,0,0,1H7.33a.5.5,0,0,0,0-1Z"/>
        <path class="cls-1" d="M28.63,27.39l-5-4.73c-.46-.45-1.17.26-.71.71l5,4.72c.47.45,1.17-.26.71-.7Z"/>
        <path class="cls-1" d="M10.25,9.85,5.3,5.12c-.47-.44-1.18.26-.71.71l4.95,4.73c.47.44,1.18-.26.71-.71Z"/>
        <path class="cls-1" d="M5.8,28.6l4.74-4.94c.45-.47-.26-1.18-.7-.71L5.1,27.9c-.45.46.26,1.17.7.7Z"/>
        <path class="cls-1" d="M23.38,10.27l4.74-4.95c.44-.46-.26-1.17-.71-.71l-4.74,5c-.44.46.26,1.17.71.71Z"/>
      </g>
    </g>
  </g>
</svg>
