<svg xmlns="http://www.w3.org/2000/svg" viewBox="0 0 873.47 314.4">
  <defs>
    <style>
      .cls-1 {
        fill: #fff;
        fill-rule: evenodd;
      }

      .cls-2 {
        fill: #2e7d32;
      }
    </style>
  </defs>
  <title>Ресурс 155</title>
  <g id="Слой_2" data-name="Слой 2">
    <g id="Слой_1-2" data-name="Слой 1">
      <g>
        <g>
          <path class="cls-1" d="M833.09,313.9,657.57,195.3l-.27.66-4.6,5.35L818.19,313.9h-4.77L651.13,203.38l-2.27,3.08,1.46.31,99.73,95.83,1.72.65-2,2.23-.75-1.56L632.38,194.75l-1-.84-7.64,9.6,96,91.73.7.61L719.22,298l-1.14-1.36-95.37-90.27,68.67,98.43.68,1.08-2.22,1.34-.85-.75L612.93,196.74l-10.3-9.31-1.64-.72-7.77,10.72-.42-.6-.56,3.66,1-1.32,67.6,98.2,1.18,1.34-2.38,1.68-.88-1.22-77-110.75,10.12,117.29.74,1.44-1.68-.79-17.18-3.12-.41-.07-.55-.74L563,161.92l-5.48-8.47L547,168.29l8,129.82-19.59,3.3-.72-113.76-76,111.78,75.85-114.11-.86-2.78L457.33,289.8l-1.65-.38L535.24,179l-.6-2.22-78.07,107-1.52-.66,79.82-109L535,135,431.45,288l-1.15-.57,91.34-137.16-.83-.57L429,278.88l-.76-1L535.1,129.39l-.3-1.68L428,272l-1.34-.22L535,125.14l-.67-9.76,3.59-6.08,6.8,9-.18,3.58,16.07,5.79-.82-2.7.16-.1.36-.92,6-9.73.4-.46,1.05.41,7.44,7.43-.07.23,0,7.79L873,231.65v6.16L742,193.06l-3.4,7L873,256v2.4l-161.4-67.32-5.24,8.39-.87,1.38L873,284.79v3.56L685.36,193.81l.14,1.1-1.78,3L873,293.8v2.25l-191-96.23-3.39,5.43.35.44L837.34,313.9ZM648.23,205.7l.13-3.17,1-3.26.75,1.41,1.86-3.57-.85-.53-1.61,2.21.12-.4-3.06,4.54-2.3-.24Zm5.92-16.51,21.61,15.2.9-1.34,2.56-3.85-23.39-12.31-1.57-.07Zm-15.55,6.74,5.8,6.56.45-1.57-.05-1.28-5.51-4.43Zm41.15-8.41,23.77,12.28.61-1.2,3.81-4.8-2.66-1.7.31-1.5,2.26-.88L587.28,139.17l-5-.3,94.3,47.18,2.94-3.63.44-.6,2.32,1.06-.56,1.7ZM617.3,198.77l5.63-8.86-.79-.6-6.77,7.44,1.3-.09Zm94.06-10.6,24.23,10h.54l4-6.45-27-9Zm-89.3-7.25,23.42,16.17,5.15-7.68-34.72-23.28-19.81-9.22Zm54.08,11.21-1,1.46,5.83,2.33,2.84-2.78-1.13-1.23-4.31-2.32Zm-61.7,2.27,7.87-10.22-2.49-1.47-27.41-19.14Zm-34.23-11.51,7.3,10.7,9.33-10.93-.14-.88-17.87-16.86ZM626,189l-1.77,3.63.87.49,2-3.24-.13-.85-.63-.56ZM593.5,148l22.75,15.33,57.1,28.77.48-.86,1.23-3.2L594,147.18Zm46.85,31.9,10.7,7.87,2.51-1.92-1.19-1.28-11.51-5.52ZM640,159.18l68.71,28.45,2.68-6.16-71-23.23Zm-62,2.69,28,25L587.17,160.7,577.75,154Zm10.26-3.7,14.55,9.12.6-.79-15.32-14.29-4.66-1.92Zm-42.17,6.51,2,.83,4.46-7Zm.42-4.62.64,2.47L555,151.44l1.28-3.24.59.54,2.16-2.65-1.61-.08-2,1.44.64.58Zm.18-1.7,7.06-9.57L545,137.13ZM560,149.22l-.62,2,3,4.41-.88-8.08Zm18,2,4.6,2-5.74-7.11Zm11-1.65,3.49,2.09.58-.81-6.82-5.54Zm-34-3.1,1.61-2.94-7-6.84Zm3.79-3,1.56.75,0-1.13.33-.48-.81-.58Zm-1.9-1.85,2.78-.34-2.15-1.69ZM545.26,127.1l15.16,8.09.1-5.27L545,124.68Z"/>
          <path class="cls-2" d="M537.93,110.2l6.24,8.26-.15,3,0,.74.7.25,14.78,5.33,1.88.67-.58-1.91-.43-1.39.11-.27.26-.69,5.95-9.66.17-.2.62.25,7.16,7.15v.15l0,7.36V130l.67.23L872.47,232v5.12L742.53,192.73l-.83-.29-.39.8-3,6.11-.47,1,1,.41,133.62,55.63v1.31L712.16,190.78l-.78-.32-.45.71-5,8-.58.92-.59.93,1,.5L872.47,285.1v2.44L686.42,193.78l-1.67-.84.23,1.86h0l-1.41,2.38-.55.92,1,.48,188.5,95.53v1.13l-189.9-95.66-.82-.42-.48.78-2.95,4.75-.38.6.44.55.08.1.1.12.12.08,157,107.26h-2.48L658.36,195.23l-1-.68-.47,1.13v0l-4.18,4.86-.73.85.93.63L816.57,313.4h-3L651.81,203.24l-.79-.54-.58.77-1.52,2.07-.19.26,0-1,.09-2.14.26-.85.37-1.2.63,1.19.88-1.69,1.42-2.73-1.62-1,.31-1-3.77,5.6-1,1.49-.22,0-1.12-.12.14-.51.18-.62,0-.15v-.16l0-1v-.46l-.36-.28-5.34-4.29-1.38,1.44,5.17,5.84-.84-.09,2.85,2.16,1.77,1.34,1.13.87-.3.41,1.51.32.57.12,99.55,95.66.15.14.19.07.94.36-1,1.13-.39-.8-.08-.17-.13-.13L632.72,194.39l0,0,0,0-.59-.5-.79-.65-.63.8-7,8.84-.57.72.66.63,95.7,91.44.38.33-.64,1.13-.68-.81,0,0,0,0-91.77-86.87-7.11-6.72,5.6,8L691,305l.41.67-1.47.89-.53-.47-76-109.59-.06-.1-.09-.07L603,187.11l-.12-.11-.15-.07-1.2-.52-.74-.32-.47.65-7.12,9.83-.74-1.07-.38,2.5-.05.37-.51,3.29-8.32-12-2.14-3.08.32,3.73,10,115.32v.2l.09.17,0,.06-.29-.14-.12-.06-.13,0-17.14-3.12-.2,0-.34-.46L563.5,162l0-.26-.14-.21-5-7.74-.8-1.25-.86,1.21-6,8.5,4.47-7.06-6,5.83-1,1,0-.06,7.24-10.17.07-.1,0-.11.35-.88.64-1.63.44.4.67-.81,1.2-1.48,1.26-1.53-2-.1h-.19l.4-1-.8,1h-.2l-.29.21-1.33,1-.27.2.52-.95,1-1.8.37-.67-.55-.53-4.33-4.21L547.51,134l3.31,5.94,3.35,6,.72,1.31-.2.15.74.68-1.28,1.61-5.94,7.41,5.7-7.72.44-.6-.44-.59-7.48-10-2.07-2.76.27,3.44,1.43,18.17.2,2.49h0l-.31.39.12.48.31,1.19.42,1.67-.54.52-1.08,1,1.39.59.87.37.57.24-1.28,1.81-.2.29,0,.35,7.93,129.19-18.57,3.13-.71-111.57,0-3.22-1.81,2.66-20.18,29.7,21.67-32.59.26-.4L535,185l-.5-1.6-.54-1.73,1.56-2.17.28-.39-.12-.45-.26-1-.54-2-1.24,1.69L456.4,283.15l-.57-.25,79.35-108.36.19-.27V174l.11-37.35v-3.28L533.66,136,431.28,287.34l-.25-.12,91-136.69-1-.71,14.36-20,.25-.34-.07-.42-.06-.33-.41-2.3-1.38,1.88L427.81,271.42l-.24,0L535.26,125.59l.22-.3,0-.36-.65-9.43,3.13-5.3m23,25.82,0-1.64.08-4.08,0-.73-.7-.24-14.46-4.87-1.52-.51.21,1.59.18,1.37.06.51.46.24,14.2,7.59,1.44.77m115.85,50.66.51-.63,2.7-3.35.19-.25,1.54.7-.4,1.2-1.63,2.42-.64.93,1,.52L702.84,200l.9.46.45-.9.36-.7,3.44-4.33.69-.86-.94-.6-1.9-1.22L706,191l.86-.33,2.29-.91-2.27-.95-119.35-50-.15-.06h-.17l-2.45-.15-4.88-.29,4.37,2.18L676,186.32l.72.36M556.23,142.25l1.53-.2.82-.1.81-.1-.62.87-.69,1,1.07.52.26.12,1.51.74-.07-1.68v-.12l.24-.34-1.54-1.1,1.42-.18-1.88-1.48-.64-.5-1.15-.9-.42,1.4-.19.6-.45,1.48m36,9.87,1.14-1.63L589,146.94l-4.89-4,3.42,5.29,1,1.51.12.2.2.12,3.4,2m-8,2.39-2.55-3.17-3.13-3.86-2.68-3.32.93,4.17.62,2.77.11.5.47.21,2.5,1.08,3.73,1.62M563,157.58l-.43-4-.54-5-.24-2.23-1.5,1.67-.67.74-.15.16-.06.21-.52,1.68-.14.46.27.39,1.72,2.55,2.26,3.33M673.55,192.8,674,192l.25-.45,0-.06,0-.07,1-2.71.32-.84-.81-.41-80.65-40.69-1,1.72L616,163.79l0,0,.05,0,56.62,28.52.85.43m-71-25.09,1.21-1.58-15.25-14.22-.14-.12-.16-.07L585,150.41l-2.84-1.17,1.61,2.62,4,6.47.12.2.2.12,14.44,9.06M609,190.32l-5.3-7.4-16.07-22.45-.1-.13-.13-.1-8.53-6.05L577.23,153l0,2,.2,6.63v.43l.32.28,24.4,21.87,6.78,6.07m36.63,7.47.56-.84.62-.92,4-5.93.55-.83-.83-.56-34.3-23-.07,0-.07,0L599.2,157.8l-5.78-2.69,4.68,4.33,23.62,21.85.06,0,.05,0,22.95,15.85.84.57m63.32-9.51.39-.9,2.26-5.21.44-1-1-.35-70.53-23.06-.69,1.88L708,187.9l.91.38m-94.51,7,.82-1.07,7.11-9.24.69-.9-1-.57-2-1.17-25-17.47-4.76-3.32,3.38,4.73,19.95,27.92.79,1.09m-27-.83.84-1,8.76-10.25.3-.35-.07-.46-.08-.49-.05-.33-.25-.23-16.81-15.86-1.88-1.77.2,2.58,1.27,16.55,0,.27.15.22,6.86,10,.74,1.08m63.59-6,.6-.45,1.76-1.36.36-.27,0,.94-.07,1.61,0,.55.45.31,21,14.74.84.59.57-.85.62-.92,2.25-3.38.61-.92-1-.52-22.8-12-.2-.11h-.22l-1,0-.94,0,.45-.34-.75-.81-.75-.81-.13-.14-.17-.08-11.42-5.48-1,1.71L650.46,188l.6.44m85.35,10.28.3-.48,3.53-5.66.67-1.08-1.2-.4-25.9-8.65-.94-.32-.32.95L711,187.56l-.3.89.86.36,23.71,9.81.17.07h.93m-110.89-5.3,1.92-3.08.2-.32-.06-.37-.08-.49-.06-.34-.26-.24-.07-.06-1-.89-.59,1.19-1.77,3.63,1.75,1M681,196.5l.47-.45,2.26-2.21.7-.68-.66-.71-.75-.82-.11-.12-.15-.08-3.88-2.09-.71-.38-.52.61-1.92,2.23,0,0,0,0-.65.91-.75,1,1.19.48,4.93,2,.6.24m-66.87.84,2.15-.15.2.67.62,2.1,1.18-1.85,5-7.93L621.77,189l-5.94,6.52-1.67,1.85m-21,2.69,67.2,97.63,0,0,0,0,.78.88-1.52,1.07-.58-.81L591.78,202l1.4-1.95m-76.47,5.51-59.59,83.7-.59-.14,60.18-83.56m-70.37,48.09L429,278.05l-.12-.15,17.46-24.27m91.49-145.22-4.05,6.85.67,9.74L425.8,272.1l2.45.41L534.51,128.94l.06.33L427.63,277.93l1.41,1.79L521.22,150,429.57,287.61l2.05,1,102.86-152L534.37,174,454.28,283.31l2.45,1.08,77.7-106.51.26,1L454.84,289.74l2.71.62,76-106.71.49,1.59-76,114.28.76.65L534.2,189.26,534.91,302l20.62-3.47-8-130.09,9.94-14.1,5,7.74,9.8,140.53.76,1,.6.1,17.12,3.11,2.93,1.38-1.35-2.65-10-115.32L658.3,299.46l1.18,1.62,3.23-2.28-1.51-1.71-68-98.79-.16.22.06-.37.1.15,8-11,1.19.52,10.2,9.22,76.06,109.69,1.17,1,3-1.79-1-1.53-65.87-94.41,91.77,86.87,1.62,1.9,1.74-3.09-1-.86-95.66-91.41,7.05-8.85.59.5,116.58,109.1,1,2.15,3-3.34-2.31-.86-99.76-95.86-.84-.18,1.53-2.07,162,110.34h6.55L653.44,201.21l4.29-5,.07-.17L832.93,314.4h6L679.25,205.32l-.08-.1,3-4.75,191.35,96.39v-3.37l-189-95.8L686,195l0-.34,187.5,94.49v-4.69L706.18,200.65l.58-.91,5-8,161.7,67.45v-3.48L739.24,199.79l3-6.11,131.26,44.83v-7.22l-297.83-102,0-7.36.21-.78-.37,0L568,113.74l-1.48-.58-.68.8-6,9.8-.3.78-.34.21.64,2.1L545,121.53l.17-3.39-7.36-9.73Zm22.11,26-14.21-7.59-.18-1.37L560,130.28l-.07,4.09ZM547.06,157l-1.43-18.17,7.47,10-6,8.18Zm8-11.52-3.35-6,4.34,4.21-1,1.8Zm121.44,40-91.76-45.9,2.45.15,119.34,50-1.36.54-.43,2.09,2.49,1.59-3.5,4.41-.41.79-22.82-11.79,1.72-2.53.73-2.19-3.1-1.41-.67.9-2.68,3.32ZM557.64,141.06l.18-.6.64.5-.82.1Zm2.62,1.29-.43.62,0,.47-.27-.13.68-1ZM556.84,148l-.58-.52,1.34-1,.44,0-1.2,1.47Zm116.31,43.47L616.53,163l-22.75-15.33,80.65,40.69-1,2.71-.25.45Zm-80.41-40.22-3.39-2-1-1.52,4.37,3.55Zm-11.82.71-2.5-1.08-.62-2.78,3.12,3.86Zm-19.31,1.72-1.72-2.55.52-1.67.67-.75.53,5Zm-6.68-3.37-.35.88-7.24,10.17-.3-1.19,7.89-9.86Zm48.12,16.54-14.44-9.05-4-6.47,3.16,1.3,15.25,14.22Zm-.17,16.64-24.4-21.86-.2-6.63,8.53,6.05,16.07,22.44Zm42.47,12.89-23-15.84-23.62-21.84,16.85,7.84,34.31,23-4,5.93-.62.92ZM708.41,187l-68.26-28.27,70.53,23.06L708.41,187ZM549.82,161.75l-2,3.14-.87-.37,2.86-2.77Zm64.64,31.81-20-27.92,25.06,17.5,2,1.18-7.11,9.24Zm-26.91-.8-6.85-10-1.28-16.55L596.23,182l.08.49-8.76,10.25Zm63.5-5.58-10.4-7.64L652.07,185l.75.81-1.77,1.35Zm84.81,10.52h-.17L712,187.88l1.52-4.49L739.39,192l-3.53,5.66Zm-60.23,6-21-14.74.07-1.6,1,0,22.79,12-2.24,3.38-.62.91Zm-51-10.8,1.77-3.63.07.06.08.49-1.92,3.08Zm-8.1,3.29,5.94-6.53-5,7.94-.42-1.45-.47,0Zm64.23-.84-4.93-2,.65-.91,1.92-2.23,3.88,2.09.75.81-2.27,2.21Zm-36.63,6.15L639,195.6l5.34,4.29,0,1-.18.62Zm7.36-4.6-1.42,2.72-.24-.45,1.66-2.27Zm-3.36,4.59-.31,1-.09,2.27L646,203.38l.82.08,1.35-2Z"/>
        </g>
        <g>
          <path class="cls-1" d="M.76,313.9v-85l14.5.52,13-.6,6.5,3.3,1.79,12.1,41.14,10.6,21.55.58V244.25l24.45.22,2.29-3.1.62-1,1.07-1,.39-98.93-3.58-2.57-.19-.79-3.2-1.42-.13-2.46,4.3-.18V127.1l-1.79.19v-1.6l1.47.18-.22-7.29-4.41-4.85-5.15.35v-2.5l-2.56-4.12c54.7-4.84,101.54-14.43,128.6-26.33,17-7.23,26.56-15.31,28.53-24,.43-7.48,0-17.76-7.2-31.82L352.69.52,446.37,25.3l-7.23,13.21L428.4,63v3.57l6.4-.15v6.1l-2.42,6.86-4.51.19,2.76,155.38,3.17,3.57.15,1.95-1.36,2.43,6.16,1.51-.46,2.4-.24,7-5.24-.68,2,30.83,438,13.21-.33,16.78Zm176-68.95,2.64-3.21,3.5-.2v-1.29l1.47-.91L183.52,147l-13.26,1.6.45,91.85,2.62,1.73,1-.33Zm137-2.46,10.18.65v-2.47l1.05-.26V237.9l1.14-1.05,1.53-105.13-3-.92L316.42,132l1.2,1.7-.35,1.76-3.6.15-3.37,2.1-.1,99.64,1.4.44-.87,1.4,2.09.65Zm-170.24,0,5.51-.51-.9-1.08,1.68-1.57.35-87.57-4.48-2.15.36-2.78-5-5.26,1.07,96.77,1.44,1.44Zm57-92.11.5,88.55,1,2.81,4.57-.76,2.58-2.73-.65-92.51-2.22.16-.34,2.12-3.27-.32Zm146.89-21.79-5,2.92L344.87,239l.83,2.78,7.15-.21,2.72-5.07,1.13-114.12-9.51,1.85,4,1.61.27,2.14Zm-99.87,13.44,2,97.17h1.57l1.9-1.17-.49-1.06,1.23-.34L253,141.45ZM372.1,122.63,375,237.39h3.74l.56-117.3Z"/>
          <path class="cls-2" d="M352.69,1l92.93,24.58L438.7,38.27l0,0,0,0L428,62.68l-.08.19v4.18l1,0,5.38-.13v5.51L432,78.86l-3.7.16-1,0,0,1,2.75,154.71v.37l.25.27,2.93,3.3.13,1.64-1,1.72-.65,1.15,1.28.31,5.06,1.24-.38,1.93v.16l-.21,6.35-4.09-.53-1.21-.16.08,1.22,2,29.77.06.9.91,0,437,13.19L872,313.4H1.26v-84l14,.5h.09l12.84-.59,6.15,3.11L36,244l.1.65.64.17,40.77,10.5.11,0h.11l21,.56,1,0V244.76l23.69.21H124l.3-.42,2.14-2.9,0,0,0,0,.56-.93.85-.76.33-.3v-.44l.39-98.45v-.51l-.42-.3-3.22-2.32-.08-.36-.12-.48-.45-.2-2.69-1.21-.09-1.64,3.31-.14,1,0v-7l-1.1.11-.69.07v-.48l.33,0,1.16.14,0-1.17-.2-6.52v-.37l-.25-.27-4.12-4.54-.32-.35-.49,0-4.37.3v-2.11l-.15-.24-2.06-3.31c54.41-4.87,101-14.44,127.94-26.3,17.12-7.3,26.82-15.49,28.82-24.36l0-.08v-.08c.41-7.37,0-17.57-7-31.45L352.69,1m21.87,236.85h4.72v-1l.55-116.09v-1.41l-1.33.46L372.28,122l-.69.25,0,.72,2.92,113.91,0,1m-23.82-111.7.17,1.37-3.39.56-.18,0-.16.1L342.55,131l-.5.29v.59l2.31,107.08v.14l0,.13.7,2.35.22.73.77,0,6.48-.19.57,0,.28-.51,2.53-4.71.11-.21v-.25L357.2,123v-1.23L356,122l-7.25,1.41-3.33.65,3.15,1.26,2.16.87m-33.66,7.61-.22,1.16-3.08.13h-.26l-.22.14-3,1.87-.47.3V138l-.1,99v.74l.7.22.43.14-.18.29-.68,1.1,1.23.39,1.24.38.79,2.14.23.61.65,0,9.32.6,1.07.06v-2.61l.29-.08.76-.19v-2.67l.82-.76.31-.29v-.43l1.53-104.53v-.76l-.72-.22-2.58-.78-.21-.06-.22,0-7.34,1.05-1.61.23.93,1.33.6.87M143.08,240v3.05l1.1-.1,4-.37,1.88-.18L148.88,241l1.17-1.09.32-.3v-.43l.35-87v-.63l-.57-.27-3.87-1.87.28-2.18.06-.47-.33-.35-4-4.17-1.75-1.83,0,2.53,1.06,95.3v.4l.29.29,1.15,1.16m106.1-.29h2.2l.25-.15,1.4-.86.76-.47-.38-.81-.06-.12.29-.08.74-.21v-.76L253.49,142v-1.11l-1.1.13-4.34.5-.9.11,0,.91,2,96.22,0,1m-43.54-92.23-2.53-.24-.54-.05-.34.41L200.35,150l-.23.28v.36l.5,88.29v.17l.06.16.82,2.33.29.79.82-.14,4-.66.33-.06.23-.24,2.33-2.46.28-.29v-.4l-.65-91.78v-1.07l-1.07.08-1.29.09-.8.06-.12.78-.2,1.26m-32.38,95.21.47-.16.39-.13,1.88,2.35.77,1,.79-1,2.1-2.56,2.81-.16.95-.06v-1.48l1-.62.47-.29v-.57L184,147.54v-1.12l-1.11.14L170.64,148l-.89.1V149l.45,91.15v.53l.45.3,2.19,1.44.41.27M352.68,0,261.82,25c6.78,13.05,7.95,23,7.44,32C267.1,66.53,255.61,74.45,241,80.67,212.56,93.19,164.35,102.43,111.76,107l2.92,4.68v2.9l5.44-.37,4.12,4.53.21,6.52-1.46-.18v2.72l1.79-.18v4.89l-4.32.18.17,3.27,3.25,1.45.18.72,3.52,2.54-.39,98.45-1,.85-.64,1.06-2.15,2.9-24.69-.22v11.11l-21-.56L37,243.8l-1.78-12-6.84-3.47-13.11.6L.59,228.38l-.33-2.89V314.4H873l.35-17.76-438-13.22-2-29.77,5.18.68.25-7.46.55-2.86-6-1.47,1.11-2-.17-2.27-3.16-3.55L428.38,80l4.36-.19,2.56-7.25v-6.7l-6.4.15v-3l10.68-24.33L447.12,25,352.68,0Zm22.85,236.89L372.61,123l6.23-2.18-.55,116.09Zm-29.46,4.37-.7-2.35-2.31-107.08,4.63-2.72,4.33-.72-.36-2.91L349,124.39,356.2,123l-1.13,113.38-2.52,4.71-6.48.19Zm-22.57,1.35-9.33-.6-1-2.59-1.7-.54.86-1.39L310.7,237l.1-99,3-1.87,3.86-.17.46-2.35-.85-1.21,7.34-1.05,2.58.78-1.53,104.54-1.14,1.05V240l-1.05.26v2.33Zm-73.35-3.87-2-96.22,4.34-.51.88,94.28-1.42.4.55,1.19-1.4.86ZM144.08,242v-2.36l-1.44-1.45-1.06-95.3,4,4.17-.37,2.9,4.52,2.18-.35,87-1.86,1.73.59.72-4,.37Zm62.4-93.38.35-2.19,1.29-.09.65,91.77-2.33,2.46-4,.67-.83-2.34-.5-88.29,1.89-2.33,3.47.34Zm-33.08,93-2.19-1.45L170.76,149,183,147.55l.86,91.51-1.47.91v1.1l-3.25.18-2.39,2.9-2.32-2.9-1.06.37ZM.26,222.69l-.26.56.26,2.24v-2.8Z"/>
        </g>
      </g>
    </g>
  </g>
</svg>
