<svg xmlns="http://www.w3.org/2000/svg" viewBox="0 0 705.58 241.39">
  <defs>
    <style>
      .cls-1 {
        fill: #2e7d32;
      }
    </style>
  </defs>
  <title>Ресурс 185</title>
  <g id="Слой_2" data-name="Слой 2">
    <g id="Слой_1-2" data-name="Слой 1">
      <g>
        <path class="cls-1" d="M340.57,1c1.91,0,3.61,1.21,4.93,3.5l.18.32,0,.06v.5L345.37,5c-2.09-2.45-4-3.63-5.83-3.63a3.91,3.91,0,0,0-1.64.35A5.52,5.52,0,0,1,340.57,1m6.61,1.39h0l0,0v0M340,4.61l.24.43c.5.9,1.18,2.11,2.4,2.24a2.16,2.16,0,0,0,1,.25,1.94,1.94,0,0,0,1.62-1l0,0,.45-.23v.92l.21.27c2.3,3,1.94,4.06.19,5.6l-.76.67.68.75,1.71,1.89.86.95.71-1.07.11-.16c0,.14,0,.29,0,.45a7.6,7.6,0,0,0,.39,2.85l.13.34.31.17,1,.54,1.39.77.06-1,.08.08c1.4,1.28,2.24,2.06,1.56,4.53l-.19.69.59.4,3.57,2.45.5.34.53-.28c1.28-.66,1.34-2.42,1.39-4,0-.4,0-.93.08-1.3a7.58,7.58,0,0,1,1,.85c1.42,2.23,2.62,3.23,3.89,3.23,1.5,0,2.38-1.38,3.15-2.6l.56-.84.92,6.35.06.45.38.25,12.26,8,1.15.75.36-1.33c.21-.77.55-1,1.91-1.59a2.83,2.83,0,0,0,1.43-.82,1,1,0,0,1,.86-.37v6.9l.38.3,3.85,3,.4.31.48-.13,9-2.42.22-.06.17-.15L407,39.87l.7-.6-.55-.75a6.77,6.77,0,0,1-1.75-3.92l0-.35-.24-.25-.41-.42.06,0,.35-.21.75.07.15-.92c1.13-6.88,5.38-11.13,13-13a1.48,1.48,0,0,1,.47.49,3.53,3.53,0,0,0,1,1l.26.17h2.1l.21-.11a3.7,3.7,0,0,0,1.7-1.92c4.74.82,9.65,3.24,13.88,13.28l.11.24-.34.21.34.8c.48,1.12-.09,3.08-.27,3.72l-.06.2,0,.18,0,.19.28,2.57.09.77.75.11,3.93.61.52.07.36-.37L447,38.87l.32-.33,0-.45a2.56,2.56,0,0,0-2.77-2.55h-.1c.51-3.42,1.14-4.15,1.31-4.29a1.88,1.88,0,0,1,.56.55l.33.42.53,0c1.34-.09,1.57-1.67,1.76-3.06a8.56,8.56,0,0,1,.41-1.89c.3.13,1.16.72,3,3.29l.54.76.79-.5a2,2,0,0,1,1-.27,5.53,5.53,0,0,1,3.6,2c-3.76.21-4.25,2-4.43,3.88a4.23,4.23,0,0,1-.38,1.68l-.35.61.45.53,1.9,2.25L456,42l.69-.3a4.62,4.62,0,0,1,1.86-.45,5.82,5.82,0,0,1,2.58.82,9,9,0,0,0,4.2,1.17,10.88,10.88,0,0,0,4.43-1.08,8.6,8.6,0,0,1,1.71,1.61c1.18,1.3,2.64,2.92,4.81,2.92a5.7,5.7,0,0,0,3-.94.39.39,0,0,1,.18,0,5,5,0,0,1,1.88.87,9.71,9.71,0,0,0,5,1.74,7.68,7.68,0,0,0,3.78-1.07l0,0a1.12,1.12,0,0,1,0,.13c.09,1.5,1.65,1.8,2.51,2a3.23,3.23,0,0,1,1,.29l.12.11.14.07a6.56,6.56,0,0,0,2.73.7,3.93,3.93,0,0,0,2.67-1.06c.53,1.43,1.32,2.59,2.85,2.59.19,0,.37,0,.56,0l.39,0a.81.81,0,0,1,.59.22l.1.1.14.06a8.16,8.16,0,0,0,3.28.84,3.1,3.1,0,0,0,2.19-.75,1.56,1.56,0,0,0,.73-.61A6.8,6.8,0,0,0,516.09,55a7.85,7.85,0,0,0,1.08-.08l.77-.11L518,54l.77-7h4.37l1.48,10.66.24,1.75,1.38-1.11.39-.31-.23,2.14-.08.76.72.28,1.28.48.52.82.19.3.34.11.57.19.58,2.23.19.72.74,0,1.12,0-.36,1.49-.43,1.78,1.73-.59,3.67-1.26.67-.23v-.66h4l-.11,10.94V78l.34.3,1.76,1.59L542.09,86l0,.16,0,.13v4.1l-1.55-.21.41-1,.18-.44.07-.18V80.23l-1.42,4-1.44-3.94V85l0-.05-1.75-2V84.8h-.05v0l-.16,0h-.47v0h-.1v-.06l-.51-2V78.48l-.62,1.91-.84-3.3V83l-.13.41-1.27-2.52v3.5l-.11-.08-.57-.48-.33-1V80.4l-.47.94-1-3v4.92l-.32.63h-.18l-2-8.07v7l-.45-.12-1.24-.34v-.17l-.69.2v-.85l-.68.65V80.67L523,82.36v-.77l-.73.33v-.2l-1.46.74-.39.21-.75-.22-1.27-.35v.5l-.34,0-.13,0V80.94l-1.47.78-1,.54h0l-1.75-2v1.61l-1-.16v.4l-.8,0V79.57l-1.41,1.79-1-4.33.63.16-.76-.74-.64-2.75v2.13l-1.3-1.28C493,60.6,475.4,45.43,447.31,42.19l-.3,2C474,49.25,486.52,60,501.2,74.74l.19.19.26.07,3.67,1-.5,2-.17-.37v1l-.73,2.82-1.08-.25-1-.24,0,0-1.46-1.44v0h0l-.21-.21v.37l-1.35.94-.79.55-1.86-5.17v4.52l-1-.83v1.05l-.87-.15-.38-.06-.56-.8v-6l-1.18,4.28,0,0V78l-.48,1.74-1.49-3.43v3.54l-.2.09-.64.27V76.26l-1.58,3.61-.71.23-.19.06-.7.22v5.27l-8.09,0,.31-.12.39-.15h0l1.18-.22.58-.11.44-.09.51,0,.53,0,1.09.1v-4l-.21-.27-.53-.7-1.8-2.36V80l0,0-1.77-2.13v2L477,77.58v2.1l-1.78-2.25v2l-.12,0-1.68-2.13v2l-1.2.29-.54.13v-.59l-1.25.31-.53.14V79l-1.2.24-.6.13v-.56l-1.22.28-.6.13v-.56L465,79l-.52.13V78.6l-1.21.26-1.59.34-.79.17V85.1L462,85l1.59-.14.91-.09V84.7l.78,0,.65,0h.82l.34,0,.95.09v.07l.84.13,1,.16v.43l-14.11-.07h-.07l.57-.27.83-.39.58-.27V79.79l-.9-.09-.5,0-.4-.14-.87-.3-1.33-.46v.53h-.34l-.88,0H452V77.47l-1.75,2-.28.32-.43-.3L448,78.36v1.43l-.23,0-.28,0v-.17l-1,0-.85,0h-.37v0l-.93-.07-.87-.06-.46,0V79.1H440.2v.81h-.55v-.1l-1,0-.81,0h-.4v-.17l-1,0-.85,0-1,0v1l-.59,0-.84,0-.46,0v-.07l-1,0h-.21V80l-1,0-.83,0h-.42V78.57l-1.67,1.5-.61.55-.67,0-.38,0v-.09l-1,0-.88,0-1,0v.17l-.09,0-.47-.14v-.32l-1,0h-.22l-.5-.15V80h-.5V79.9l-1,0-.86,0-1,0v.83H417v-.1l-1,0-1.22,0v-.26l-1.09.09-.87.08-.91.08V84.9l.55.28.61.3v.19l-4.53.58V81l-.26-.28-.87-1-1.74-1.92v2.61l-.56-.14v-.83l-.88.59-.78-.21v.74L403,81V79.25l-1.55,1-.87.57-.26.17,0,0-.7-.42v-.92l-.73.49-.89-.53v1.13l-.75.51-.31.21-.68-.42V81h-.12l-.07,0L394.48,80v1H392.3v.17l-.47-.28,0-.49-.55-.24-21.2-9.44-.18-.08h-.2l-4.53-.12-6.3-1.61-.17,0h-.18L343.31,70.4l-1.05.11.17,1,.6,3.78.17,1,1-.19,14.95-2.78,5,2.27.24.11.26,0,5.14-.45,20.82,9,.51.22v3.92l-.46.06-.23.52-.52,1.19-.67,1.52,1.66-.12,21.43-1.57,1,1.2.31.38h.49L453.17,91h.1l.09,0,2.48-.53,33.45-.88.11.54.15.75.77.05,1.79.1v2.67l.64-2.64,2.37.11v.62l.19-.61,5.22.19h.19l.59,2.46V91.37l.58,0,.4,1.45V91.41c3.89.14,8,.31,12.09.59l.47,1.69V92c3.64.25,7.28.6,10.77,1.11h.12l1.68,0v2l.51-2c3.5.12,7.07.29,10.69.59l0,.08v-.07l.29,0V94l.06-.14.64.06.75,3.15V94c1.22.12,2.44.25,3.67.4V99l1-4.51,2.08.29V95l.09-.21a100.38,100.38,0,0,1,15.88,3.6l.19.06.2,0,4.78-.42c6,1.53,10.88,4.79,14.84,7.79l.29.21h.36l13.32-.66,4.36,12-.7.11-.91.14.07.92.38,4.83-.71.09-.88.11v.89l.41,29.24V154l.25.28,3.55,4-1,1-.3.3v3.57h-2.08v6.33h23.32v-6.33h-20.2l18.26-.63,1,0v-1a4,4,0,0,0-.57-1.83v0a1.15,1.15,0,0,0,1.07-.78c.29-.88-.54-1.49-1.36-2.1a2.43,2.43,0,0,0-.61-.28.44.44,0,0,1,.17-.12l.4-.17a1.06,1.06,0,0,0,.65.19h.06l.21,0a1.49,1.49,0,0,0,.68-.18l0,.08a1.86,1.86,0,0,0,1.6,1.08,1.59,1.59,0,0,0,.5-.09c.12.13.09.32,0,.77a8.8,8.8,0,0,0-.06,1v.9h0a1.35,1.35,0,0,0-.91.78,1.37,1.37,0,0,0,.1,1.22l-.45,5.12v.12l0,.12.67,4.31.26,1.7,1.35-1.07a4.88,4.88,0,0,1,3.38-1.44,16.17,16.17,0,0,0,3.72.56,7,7,0,0,0,3.92-1.26,19.48,19.48,0,0,1,3.63-1.69l.49-.18.14-.5c.14-.49.25-.86.35-1.14a2.76,2.76,0,0,0,.23.27l.07.37a1.88,1.88,0,0,0,2.07,1.82,1.77,1.77,0,0,0,1.38,1.33l.09.81.64-.31.36.61.9-1.12c1-1.26,1.65-1.26,2.12-1.26l.45,0h.55a4.32,4.32,0,0,0,1-.12,8.84,8.84,0,0,0,3.63-1.75,5.07,5.07,0,0,1,2.05-1.06.59.59,0,0,1,.33.09l.12.07.14,0a13.74,13.74,0,0,0,3.27.47,7.81,7.81,0,0,0,5.16-2,14.15,14.15,0,0,1,3.06-1.89l.4-.18.14-.41q.15-.45.27-.72a2.22,2.22,0,0,0,1.37.8,1.45,1.45,0,0,0-.1,1.39,1.39,1.39,0,0,0,.87.7l-.14.07,2.08.84a4.07,4.07,0,0,0,1.49.27,12.43,12.43,0,0,0,4.49-1.28,14.67,14.67,0,0,1,5.51-1.52,5.65,5.65,0,0,1,.93.07h.65c2.81,0,6.46.83,8.27,3.15l.05.07.07.06a4.45,4.45,0,0,0,3.08,1.31,6.17,6.17,0,0,0,1.41-.19,4,4,0,0,1,.63-.1l.57.52.42.37a1.27,1.27,0,0,0-.68.33H700c-1.82,0-3.1-.27-4.29-1.7l-.21-.25-.32-.08a5.72,5.72,0,0,0-1.4-.2,2,2,0,0,0-2.13,1.76c-.16.55-.2.7-.87.79l-.18,0-.15.08-1.24.67-3.06,1.63,3.46.25a4.12,4.12,0,0,1,2,.46v.81l.88.1a7.27,7.27,0,0,1,4.91,2.59,3.58,3.58,0,0,1,.87,2.6l-.13.91.89.2a4,4,0,0,0,.85.09,8.64,8.64,0,0,0,3.26-.9c.5-.22,1-.42,1.45-.57v6.38a14,14,0,0,0-1.19,1.35c-.77,1-1.23,1.56-5.18,3h-.13a1.83,1.83,0,0,0-1.38.6c-1,1-1.34,3.3-1.18,8.32l0,1,1,0,8-.34v42.21l-278.7-.14a9.45,9.45,0,0,0,2.43-1.41c4.44-1.77,6.82-6.24,6.08-11.43l-.06-.36-.27-.25a1.27,1.27,0,0,1-.32-.69h1.2q3.81,0,7.5,0l7.18,0h2.77a7.6,7.6,0,0,0,.85,2.12c.07.12.13.24.19.37-1.07.2-1.16.64-1.22.91l-.15.81.54.25a3.55,3.55,0,0,0,2.33,1,2.19,2.19,0,0,0,1.06-.26l.1,0h.06a2.28,2.28,0,0,0,.61.08,1.92,1.92,0,0,0,.38,0l.56.37.08.17.2.16a6.59,6.59,0,0,0,2.11.82,10.4,10.4,0,0,1,1.05.33l.21.09h.22l.46-.06c.11,0,.24-.05.36-.06l.09.12a3.51,3.51,0,0,1,.36.52,4.23,4.23,0,0,0,1.38,1.44c2.19,2.62,5.69,4,9.88,4a19.44,19.44,0,0,0,3-.23h.07l.06,0a12.38,12.38,0,0,0,8.54-9.18,13.53,13.53,0,0,0-3.61-13,9.55,9.55,0,0,0-5.06-3.07,4.58,4.58,0,0,0-1.22-.74l-.25-2.44a1.39,1.39,0,0,0-1.39-1.36,2.25,2.25,0,0,0-.52.07h-.29a2.67,2.67,0,0,0-.78.11l-.15-.26.7-.53a.78.78,0,0,1,.17.63,1.75,1.75,0,0,1,.54-.66l.53-.44-.22-.65a2.11,2.11,0,0,1,0-1,1.84,1.84,0,0,0,.41,0,3.05,3.05,0,0,0,1.06-.25,3,3,0,0,1,1.05-.23h.09l.09,0c1.42-.24,2.44-.35,4.14-.52h.09a5.57,5.57,0,0,0,1.31-.37,4.77,4.77,0,0,1,1.7-.41,3,3,0,0,1,.73.09l1.24.32V204a2.81,2.81,0,0,0-2.29-2.66v0a2,2,0,0,1,.2-.3l.72-.09a1.57,1.57,0,0,1,.32,0h.1l.1,0,.26-.06a1.7,1.7,0,0,0,1.32-.76,2,2,0,0,0-.1-1.74l-.21-.55-.58-.09h-.25a8.33,8.33,0,0,0-1.6.27h0l.91-.7,1-.72-.89-.81a1.87,1.87,0,0,0-1.31-.49h-.32a1.62,1.62,0,0,0-1.54-1.16,1.87,1.87,0,0,0-.32,0,1.9,1.9,0,0,0-.47-.07.89.89,0,0,1-.32-.05l-.39-.18-.4.16a7.84,7.84,0,0,1-1.31.25,3.48,3.48,0,0,0-1.11.26,1.94,1.94,0,0,0-1,.41,1.51,1.51,0,0,0-.75.24,3.62,3.62,0,0,1-.55.26h-.81a8.5,8.5,0,0,1-1,0h-.21c-.3,0-.91,0-1.45,0H471v0a2.16,2.16,0,0,0-1.37-.65,2.55,2.55,0,0,0-1.4-.42,1.51,1.51,0,0,0-.77.18h0l0,0a4.86,4.86,0,0,0-.86.69l-.29.26h-.06l-3.43-3.57L465,197s.05.11.08.19a2.5,2.5,0,0,0-.16.24,1.24,1.24,0,0,1-.18.14c-.06,0-.16.13-.25.22a2.13,2.13,0,0,0-1.27,1.33l-.38.11c-.5.15-1.13.33-2,.65a6.67,6.67,0,0,0-3.52,2.64c-1.28.43-2.05.84-2.42,1.56a2.07,2.07,0,0,0-.18,1.22c-.17.19-.23.24-.35.28l.23,1-.69.56a.85.85,0,0,1-.2-.67c0,.07-.1.3-.15.43a3.61,3.61,0,0,0-.26.93v.1a10.32,10.32,0,0,0,.26,2.46,3.16,3.16,0,0,0,.08.42,1.24,1.24,0,0,0,0,.43c.13.64.65,1,1.29,1.32,0,1-.12,2.11-.9,2.4l-.6.19,0,.65a1.37,1.37,0,0,1-1.12.62.85.85,0,0,1-.49-.14l-.8-.53-.53.72a2.2,2.2,0,0,1-.19-1.61c0-.16.06-.34.09-.55l0-.24a1.22,1.22,0,0,0,.77-.87,1.1,1.1,0,0,0-.21-.88c0-.23-.07-.44-.1-.66a2.66,2.66,0,0,0-.21-1.36c0-.07-.05-.16-.08-.24l.12-.12-.13-.52a1.37,1.37,0,0,0,.14-.52,1.26,1.26,0,0,0-.12-.87l-2.72-5.52h1.61v-1l-.3-40.68v-.21l-.09-.2a3.79,3.79,0,0,0-3.52-1.92,3.17,3.17,0,0,0-2.9,1.4l-.11.22v.24l.16,41.16v1h5.16l.48,3.54-.3.2-.09-.05a1.84,1.84,0,0,0-.73-.31,5.53,5.53,0,0,0-2.27-.47c-.31,0-.59,0-.88-.07l-.28,0-.26.11a2.93,2.93,0,0,1-1.2.25,4,4,0,0,1-1.33-.26l-.29-.07-.17,0-.19-.33a5.16,5.16,0,0,0-.4-.68c-.35-2.87-3-3.87-4.45-4.36a1.1,1.1,0,0,0-.64-.19h-.08l-.25-.24c-.1-.09-.12-.14-.18-.4a2.51,2.51,0,0,0-.39-1,13,13,0,0,1,.42-1.42,13.79,13.79,0,0,0,.53-1.91l.15-.73-.66-.35a2,2,0,0,0-1-.25,4.7,4.7,0,0,0-.85.11,4.91,4.91,0,0,1-1,.11,4,4,0,0,1-.83-.09l-.64-.13-.18.26a1.13,1.13,0,0,0-.73.51,1.17,1.17,0,0,0-.11.25,1.22,1.22,0,0,0-.44.5l-.44-34.46a1.38,1.38,0,0,0-.3-1.09,2.8,2.8,0,0,0-2.19-.81,3.54,3.54,0,0,0-2.7,1.05,1.81,1.81,0,0,0-.35,1.47l-.09,38a2.5,2.5,0,0,0-2,.86l-.53.57.43.66.16.23,0,0,.28.31-3-1.18,2.77,3.11.16.21.06.08-.14.23a2.08,2.08,0,0,0-.22,1.61l-.35.33.13.56a9.28,9.28,0,0,1,.21,1.66c0,.1,0,.21,0,.31l-.79-.12a11,11,0,0,0-1.78-.19c-.19,0-.4,0-.6,0l-2.47.28,2,1.51a6.61,6.61,0,0,0,2,1.09l-.13.77a2.25,2.25,0,0,0-.4.07l-.36-.13a11.44,11.44,0,0,1-3.46-1.72l-.11-.09-.06,0c0-.41,0-.82,0-1.12V198.89l-1.33.48a4,4,0,0,1-.94.22h-.16c-.41,0-1.35.19-1.35,1.95v12.16l.45-.13a2.12,2.12,0,0,0,1.19,1.63l-.15.21-.4-.22c-2.1-1.15-3.77-2.07-4.34-3.82l-.12-.35-.31-.19a9.52,9.52,0,0,1-2.24-2.23l-.65-.78a5,5,0,0,0-.47-1.29,3.12,3.12,0,0,1-.45-1.7l.23-2.41-1.33,1.1a.69.69,0,0,0,0-.13,1.83,1.83,0,0,0-.11-1.32l.19-.3a11.71,11.71,0,0,1-1.27-1l-.26-.46a1.81,1.81,0,0,0-.44-.5l-.18-.17,4.06.33-3.44-1.34.48-.75-1.94.08h-.2l-1.24-.48a3.58,3.58,0,0,0-1.35-.33,2.29,2.29,0,0,0-.9.2,1.42,1.42,0,0,0-.64-.24l0,0,0,0h-.14l.12,0-.08.07a1.25,1.25,0,0,0-1-.38,2.42,2.42,0,0,1-.54-.07c-.78-.3-1.41-.56-2-.81-.8-.33-1.56-.64-2.57-1a1.79,1.79,0,0,0-1.1-.3h-.36c-.13-19.83-.27-29.9-5.26-30.34a4.45,4.45,0,0,0-1.4-.25,4.06,4.06,0,0,0-3.5,2.32l-1.37,2.3,2.55-.84a1.53,1.53,0,0,1,.52-.1,1,1,0,0,1,.75.34c2.23,2.26,2.14,12.54,2,23.43,0,1.2,0,2.41,0,3.64h-.37a11.37,11.37,0,0,0-2.78.45l-.05,0-.11-.62,1.67-.43,1-.26-.3-1-.81-2.72,0-.53,0-.82-.8-.2-.6-.15-.32-.24-1.15-18.35-2,.1.68,19.11,0,.75.73.18,1.14.29.21.15-.05,1-.75.17-.71.16-.06.73-.06.57-.22.06.14.79-.18,1.91c-1.37.09-2.79.16-4.25.16a1.88,1.88,0,0,0-.51.08l-.25.05-.14-.09.79-1.08-.86.2,1.68-3.76-3.7,4-.1-.15h-.52a3.73,3.73,0,0,1-1.08-.36,14.81,14.81,0,0,0-1.43-.53l-.74-.22,0-.39h-1.1l-.87-1.52-.48,1.55-.42-.15-.07-.11,0,.08-.58-.21-.05-.93,2.25-3.63-2.34,2.19-.11-1.8-.83,2.69-2.14,2h-.15a1,1,0,0,0-.56.16l-.07-.06,1.26-4.39-2.36,3.36-4-3.73,2.82,4.81h-.28a2.94,2.94,0,0,0-1.14.48l-.27,0-.15-.38H352a1.16,1.16,0,0,0-.61.19,2.06,2.06,0,0,1-.71.32,8.17,8.17,0,0,0-3.55,1l-.61.28a1.32,1.32,0,0,0-.27-.84,1.19,1.19,0,0,0-.94-.44h-.18l-.26,0-.2.16a4.84,4.84,0,0,0-.66.57,2.16,2.16,0,0,0-1.07-.28,2.37,2.37,0,0,0-.94.2l.11-19.06-2,0-.47,19.93a.78.78,0,0,0,0,.14,1.2,1.2,0,0,0-.46.51,1.59,1.59,0,0,0,.37,1.65l-.16,3.07-1.82,1.3-.43.31v.53l0,1.33-1.44,1.84-.2.26v.34l-.12,7.39-.19.14.19,0-.12,7.94v.52l.42.31,1.18.85,1.55,1.12,0-1.91.18-9.77,1.54-.44.12,0a3,3,0,0,0,1.5.47,2.13,2.13,0,0,0,2.06-2.22,3,3,0,0,1,.25-.3,3.06,3.06,0,0,0,.59-.86,2.69,2.69,0,0,0,.44-.49,2.6,2.6,0,0,1,.73-.72l1.75-1.12-.9-.3a3.2,3.2,0,0,1,1-.77h.05a1.49,1.49,0,0,0,.72-1.32l.07,0,.08-.14a1,1,0,0,1,.39.13l.23.12h.25a4.08,4.08,0,0,1,1.78.72l.22.36.4.1c.38.09.73.15,1.06.21a7.62,7.62,0,0,1,1.35.33,2.93,2.93,0,0,0,.89,2.51,3.89,3.89,0,0,0,1.42,2.51,2.39,2.39,0,0,0,.22.23,3.2,3.2,0,0,1,.34.39.53.53,0,0,1,0-.41l1.27,1.47a.66.66,0,0,1-.21,0,.92.92,0,0,1-.77-.42.88.88,0,0,1-.15-.61l.06,0-.06,0a.64.64,0,0,1,0-.07l0,.09-.36.15-.13.47a6.09,6.09,0,0,1-2,3l-.41.33,0,.53a2.38,2.38,0,0,1-.05.93h-.45l-.29.49a1,1,0,0,0,0,1.07,1.37,1.37,0,0,0-.15,1.55l.06.15c0,.31-.08.58-.11.82a4,4,0,0,1-.27,1.25,4.74,4.74,0,0,0-.47,1.42,3.38,3.38,0,0,1-.18.69l-.09.16,0,.19a4.76,4.76,0,0,1-.36,1.43c-.05.13-.12.28-.19.46l-.14.39.14.33a1.2,1.2,0,0,1,0,.24c0,.09,0,.2-.06.31a1,1,0,0,0-.17.22,1,1,0,0,0-.15.66H351v1a.85.85,0,0,0,.06.32,1.25,1.25,0,0,0-.19.34l1,.52V234a.91.91,0,0,1-.86-.57,1.19,1.19,0,0,1,0,.42l-.68.9,1,.55a1.86,1.86,0,0,0,.84.2,3.32,3.32,0,0,0,2.13-1l.06-.06a1.09,1.09,0,0,0,.44-.39l0-.06.08-.09,0,0a1.23,1.23,0,0,0,.07-.5,8.43,8.43,0,0,0,.91-.46l.6-.28-.09-.68a3.58,3.58,0,0,1,.17-.58,3,3,0,0,0,.2-.87v-.21l-.08-.19a1.54,1.54,0,0,1-.18-.8l0-.31c0-.63-.08-1.39-.07-1.72l0-.13a5.46,5.46,0,0,0,.24-1.34c.07-.58.13-1.23.39-1.45l.45-.37-.08-.47s0-.08,0-.12a5.26,5.26,0,0,0,.17-.85,1.93,1.93,0,0,0,.83-.82,9.16,9.16,0,0,1,.58-.82l0,0,0,0a4.86,4.86,0,0,0,.27-.47,1.35,1.35,0,0,1,.18-.28,1.39,1.39,0,0,0,.47-.5.67.67,0,0,1,.19-.24l.15-.1.11-.15a5.82,5.82,0,0,1,.52-.56,14.73,14.73,0,0,0,1.21-1.37,1.25,1.25,0,0,0,.65-.21l.44.2.49-.57a4.72,4.72,0,0,0,.35-.45,9.58,9.58,0,0,1-.07,3.48l-.17,1.06.74.07c0,.07,0,.14,0,.21a5.63,5.63,0,0,0,.25,1.54l0,.1.05.08c.09.17.2.32.29.47a2.19,2.19,0,0,0,.52,1.87l.1.13a12.1,12.1,0,0,0,.34,1.41c.35,1.23.54,2,.13,2.74l-.15.26,0,.29a2.5,2.5,0,0,0,.11.53c0,.13.08.27.12.44a3.17,3.17,0,0,0-1.39.56h0l-1-.2-.17,1a1.71,1.71,0,0,1-.28.8l-.07.13a1,1,0,0,0,.16,1.62l.94.62.23-.45.29.13a3.36,3.36,0,0,0,1.28.37,1.67,1.67,0,0,0,1.34-.76l.11-.12h0a1.73,1.73,0,0,0,1.53-1.14l.71-1.33-.7-.06.15-.13.21-.18c.92-.13,1.61-1.37,1.7-2.54l.05-.65-.58-.31c-.47-.24-.51-.26-.63-1.19a.37.37,0,0,0,0-.12,3.69,3.69,0,0,0-.73-2.48,1.5,1.5,0,0,0,0-.22c0-.15,0-.35.05-.61l0-.26.78,0-.43-1.34a3.8,3.8,0,0,1-.16-.67,3,3,0,0,0-.55-1.44,20.17,20.17,0,0,1-.25-2.55c0-.69-.09-1.27-.13-1.75.79,0,1.47,0,2.09,0a24.48,24.48,0,0,1,3.23.16l.29,0,.27-.13a1.72,1.72,0,0,1,.67-.15l-.24,2.73-.1,1.17,1.17-.08,1-.07.92-.06,0-.92.06-3.57a3.51,3.51,0,0,1,1.11-.22l.68-.09a30.84,30.84,0,0,0,.28,4.19l.11.76.75.1.6.08a1.4,1.4,0,0,0,.19.32c0,.49,0,.92.06,1.31a5.52,5.52,0,0,1,0,1.74l-.1.44.26.36a5.4,5.4,0,0,1,.75,1.7l-.1.24a5.82,5.82,0,0,0-.61,2.3,15,15,0,0,0-1.93,2.74c-.25.41-.47.8-.73,1.17a1.74,1.74,0,0,1-1.19.54,1.32,1.32,0,0,0-.87.4c-1,1-1.73,1.75-1.73,3.14v.84l.79.14-.33.25,3.47-.28a1.46,1.46,0,0,0,1.47-1,1.35,1.35,0,0,0-.12-1c0-.06.05-.11.07-.17l.63-.11a3.76,3.76,0,0,0,1.34-.39c1.15-.26,1.51-1.79,1.73-2.74,0-.16.09-.39.12-.48l.08-.13,0-.2a5.89,5.89,0,0,1,.31-1,12.36,12.36,0,0,0,.69-2.17,4.69,4.69,0,0,0,1.35-1.83,6.87,6.87,0,0,1,.87-1.4,2.86,2.86,0,0,0,.29-2.45,1.57,1.57,0,0,0,.11-.88,3.07,3.07,0,0,1,.1-1.25l.05-.2,0-.2a7,7,0,0,1,.45-4.49,5.56,5.56,0,0,0,.64,0c0,.06.1.1.15.15l.1.1s0,.1,0,.21l-.07,1,1,0c.72,0,1.08.48,2,1.72l.42.55.12.17.19.1a7.79,7.79,0,0,1,.79.53c.37.26.81.58,1.36.9a7.29,7.29,0,0,0,2.48,3.09l.16.47a4.75,4.75,0,0,0,1.61,2.59,10,10,0,0,0,.39,2.16,7.89,7.89,0,0,1,.31,1.5,3.28,3.28,0,0,0,.24,1.13l.06.19-.53.55.36.44-.06,0-1,.84.78.55a1.82,1.82,0,0,0-.61.84l-.19.65.53.42a4.63,4.63,0,0,0,2.94,1.08h.33l.54,0,.27-.47,0,0a1.54,1.54,0,0,0,1-1.7h0a1.34,1.34,0,0,0,.06-.12l.26-.33a1,1,0,0,0,.18-.82h0l-.12-2.8,1.49.77-2.06-3.18a58.92,58.92,0,0,1-3.37-6.2h0a4.1,4.1,0,0,0-.72-2.7,2.13,2.13,0,0,0,0-.55,34.62,34.62,0,0,1,6.88,2.33l.13.06h.14a20.62,20.62,0,0,1,2.93.52,3.1,3.1,0,0,0-.21,2.41v0c0,.07-.08.14-.11.2a3.22,3.22,0,0,0-.36.77l0,.08v.08c-.75,5.61.94,10.4,4.62,13.14a12.82,12.82,0,0,0,3.43,1.91L1,240V108.24l20,2.32,33.95,2.37L56,113V99.56l11.62.12,4.83-.1,1,0V96l2.19,0,.49,2.75.16.94,1-.13,56.27-7.27.16,0,.15-.07L138.32,90l8.76,1.72-.12.07-.5.29v6.57l1.21-.26L158.74,96l34.22,4.9.52.07.35-.38A13.69,13.69,0,0,1,203,96.07l1.27-.13-.43-1.2c-.07-.2,0-.26,0-.27.11-.17.69-.51,2.05-.58l.59,0V95.1l1.56-1a.6.6,0,0,1,.37-.11,1.79,1.79,0,0,1,1.19.64.87.87,0,0,1,0,.24.75.75,0,0,1,.68-.37l0,.94-.39,1a15.26,15.26,0,0,1,4.53,3.11c.44.4.86.78,1.27,1.1l.08.09c2.31,2.87,4,4.93,2.44,8.71l-.35.87.84.41,12.38,5.93.1,0,.11,0,6.67,1.54-1.66,1.49-.32.29v.42l-.4,11,0,1h2.66l-2,2.28-.24.28v.37l-.13,48.36v3.35l1.85-2.8a1.42,1.42,0,0,1,1.27-.8,7,7,0,0,1,2.33.7,8.8,8.8,0,0,0,3.27.88,3.88,3.88,0,0,0,1.14-.17l.95-.3-.29-1a1.55,1.55,0,0,1,.42-1.16,3.32,3.32,0,0,1,2.4-1.41h.05l.73,0,.25-.69c0-.11.54-.24.81-.31a5.21,5.21,0,0,0,1.23-.44l3.14-1.78-3.61-.09-1,0-.13,0h0a1.4,1.4,0,0,1-.07-.42c-.11-1.09-.61-1.64-1.49-1.64a2.15,2.15,0,0,0-.43,0c1.74-.88,3.41-1.17,6.37-1.47H255l.13-.05h.05a6.69,6.69,0,0,1,2,.81,8.82,8.82,0,0,0,3.69,1.23,3,3,0,0,0,1.52-.39l1.18-.68-.08-.07a2,2,0,0,0,1.4-.48l.66.09c.31,0,.56.07.78.08.62.05.62.05,1,.68l1.13,2-1.11,1.7c-.82,1.28-1.13,1.95-.79,2.58a1.09,1.09,0,0,0,1,.57,2.23,2.23,0,0,0,1.27-.57l.4-.3V169.24l-.05-.16-1.48-4.45.44-.85.31-.61-.47-.51L266.39,161l3.14-3.33.27-.28V157l.28-33.05v-.24l-.11-.21-2.93-5.86-.18-8v-.08l-.16-1.61,1.41-1.54,3.11-3.34.63-.66-.61-.69-1-1.1,1.07-1.54,0,0,0-.06.19-.37-.09,1.59,1.55-.79L277.69,97l.23-.12.15-.22L279.23,95l-.52,1.54-.63,1.88,1.89-.62,5.54-1.81-.61,41.54,0,1h8.35v-1l-.32-50.64v-.18l-.07-.17c-.58-1.47-3.19-2.29-4.78-2.29a2.79,2.79,0,0,0-1.74.48v-.56l0-.13-.42-1.47L298.44,80l5.35,3.32,1.13.71.36-1.29.55-2,.2-.72-.62-.39-6.8-4.31-.34-.22-.41.08-12.36,2.7-.22-1.06V71.73l-.43-.3-4.75-3.26-2.32-1.47-.2-.34,7.5-1.93.75-.19V61.58l3-3.15.27-.29V53l-.42-.29-2.42-1.7V49.61l-.22-.27-.81-1,.38,0,1.47,0-.59-1.35c-.95-2.16-.69-2.3.07-2.73A4.36,4.36,0,0,0,289,41.33l.07-.26L289,40.8c-.27-1-.28-1,.76-2.18l.23-.26,0-.36,0-.36a12,12,0,0,1,.12-1.4l.92-.11,0-.92a2.5,2.5,0,0,1,.53-1.82.73.73,0,0,1,.47-.26.21.21,0,0,1,.19.1,2.69,2.69,0,0,1,.14,2l-.12.59.46.38a3.12,3.12,0,0,1,.87,1.84c.17.77.44,2,1.67,2.06l.14,0,.15,0,2.29-.47.21,0,.18-.14,2-1.51.56-.42-.2-.67c-.67-2.23-.37-3.74.13-4.41a.69.69,0,0,1,1.2-.1c.3.31,1,1.31.93,3.83l0,1.2.21,0-.83,1.45-1,1.77,2-.29L344,34.5l.64-.09.18-.61.81-2.71.46-1.53-1.58.25-34.39,5.63,0-.26-.31-1.81,2.69-.14,1.12-.06-.19-1.11-.24-1.39,8.17-2,1.8-.44L321.73,27c-3-2.81-4-4.22-4.23-4.93.05-.48.2-.48.43-.48a4.22,4.22,0,0,1,.61.07,2.76,2.76,0,0,0,.55.07,1.1,1.1,0,0,0,1-.62,1.22,1.22,0,0,0-.19-1.27,2.52,2.52,0,0,1,.32-1.88.47.47,0,0,1,.34-.17.77.77,0,0,1,.55.31,2,2,0,0,1,.23,1.66l2,.41c.22-1,.68-1.32.77-1.32s.46.6.13,2.13l-.44,2,1.86-.91a5,5,0,0,1,2.16-.62c.88,0,1.43.44,2.33,1.22a6.71,6.71,0,0,0,3.91,1.94l2,.19-1-1.7c-1.87-3.07-1.27-5,2.69-8.47l1.13-1L337.46,13c-2.88-1.37-3.52-3.4-3.49-5a5,5,0,0,0,1.91,3.23l.34.29.44-.06a3,3,0,0,0,2.57-1.72c.24-.46.38-.71,1.31-.91l1.29-.28-.62-1.17a3,3,0,0,0-1.65-1.14l.05-.18L340,4.61m43.22,46.22.44,4.23-11.73-6.52-1.48-.83V51l.52.29L385.17,59l1.47.79V48.44l-.52-.29L371.8,40.28l-1.48-.82v2.95l.45.3,12.4,8.12m-79.85,8.26,1.23-.17,39.79-5.69.35,0,.24-.26,1.59-1.7,1.93-2.07-2.81.4L307.4,55l.39-5,38.34-5.58.34,0,.24-.25,1.56-1.64,2-2.1-2.86.41L305,47l-.8.11,0,.81-.69,10-.09,1.23m8,80.57v.27H306.8v7.43h11.07v-.05h4.52v0h4.48v-8.48h-10v0h-2.09v-.19L314,94.79v-.12c-.37-2.71.83-5.88,3.28-8.69a20.4,20.4,0,0,1,15.23-6.69,22.6,22.6,0,0,1,3.83.33l7.56,1.31-7-3.2a18.73,18.73,0,0,0-7.73-1.5,26.27,26.27,0,0,0-3.19.2c-11.32,1.06-19.35,9.55-19.55,20.65l.09,41.51v1l1,0,3.82.07m43.12-59.95.17,52.84v1h8.32v-1l-.65-52.82V79.6l0-.11c-.41-1.7-2.46-2.31-4.1-2.31A4.51,4.51,0,0,0,355,78.25a1.93,1.93,0,0,0-.55,1.46m-9.75,1,.16,51.63v1h7.29v-1l-.59-51.61a1.59,1.59,0,0,0-.29-1.28,3.7,3.7,0,0,0-2.87-1,4.79,4.79,0,0,0-3.23,1,1.71,1.71,0,0,0-.47,1.25m26.12,6.15,3.13-.25h.23a2.35,2.35,0,0,1,1.76.78c3.77,3.89,3.27,20.16,2.79,35.9-.13,4.58-.28,9.31-.33,13.86V138l.82.16,5.79,1.13,1.16.23,0-1.18c1-33.34-.48-49.54-5-54.17A4.42,4.42,0,0,0,378,82.67a7.61,7.61,0,0,0-4.74,2.16l-2.41,2m-77-.71.17,50.74v1h8.35l0-1-.58-50.1v-.1l0-.09c-.35-1.73-2-2.84-4.3-2.84a4.27,4.27,0,0,0-3.08,1,1.78,1.78,0,0,0-.52,1.35m164.62,16.3.18,40v1h5.77v1.41H480.9v-.74h5.67v-1l-.3-40.6a1.51,1.51,0,0,0-.33-1.14,3.24,3.24,0,0,0-2.47-.94,3,3,0,0,0-2.38.94,2.13,2.13,0,0,0-.43,1.72l.13,35.31H464.41v4l-.32-39.56a2.39,2.39,0,0,0-.62-1.84,3.23,3.23,0,0,0-2.42-1,2.75,2.75,0,0,0-2.22.92,1.83,1.83,0,0,0-.37,1.47m13.93,8.21a5.62,5.62,0,0,0,5.09-5.55c0-2.4-3.12-4.43-5.09-4.43-3.28,0-5.05,2.28-5.05,4.43,0,3.42,1.93,5.55,5.05,5.55m-70.81.06c2,0,5.09-2,5.09-4.49a5.58,5.58,0,0,0-5.09-5.48c-3,0-6.13,1.92-6.13,5.48,0,2.35,2.92,4.49,6.13,4.49m113.15-7.34.18,40v1h5.71v-1l-.19-24.7h1.17l-.42.18-.63.25v.69l.27,18.19v.9l.91.08,2,.17-.47,0-.07.84-.39,4.46-.07.74.7.27,2.11.84.19.08,0,.28.5-.09.61.24,0-.37.15,0,1.06-.21.75-.14.05-.68h0l.12,1.08,1.07-.21.78-.15,0,.23,1.21-.14,1.83-.22v.08l1.2-.14,1.06-.13.82-.09.06-.83.41-5.44.1-1.34-1.31.28-1.09.24-.73.16,0,.41-.09-.81-1,.17-.81.13,0-.22-1.22.15-1.33.17V121.26l-.06-.17-.31-.87.35.1V119l0-2.59.59.12-.18-1.39c-.7-5.53-3-7.23-5-8.74l-.27-.2-.52-.39-.57.32c-1.89,1.06-3.43,4.57-3.43,7.83v1l-.09.09-.09-11.27a2.35,2.35,0,0,0-.57-1.85,3.2,3.2,0,0,0-2.41-1,2.81,2.81,0,0,0-2.23.92,1.86,1.86,0,0,0-.38,1.48m-67,.1.17,40v1h5.72v-1l-.28-39.57a2.28,2.28,0,0,0-.57-1.8,3.23,3.23,0,0,0-2.45-1,2.79,2.79,0,0,0-2.24.93,1.73,1.73,0,0,0-.34,1.42M415.2,144.77h5.66V147H427v-1.49h14.08V147h6.17v-9.39h-.83V117h-4.37v1h0l-.42.13a4.48,4.48,0,0,1-1.32.21,7.08,7.08,0,0,1-2.71-.71,10.13,10.13,0,0,0-2.84-.82l-.4,0-.32,0a3,3,0,0,0-1,.18,10.49,10.49,0,0,0-1.74.75,4.82,4.82,0,0,1-2.09.71,2.62,2.62,0,0,1-1.08-.26l-1.95-.93V117h-.58l-1.66-.79.67.79h-2.82v8.63l-.16-22.5v-.28l-.15-.25a3.53,3.53,0,0,0-3-1.34,3.57,3.57,0,0,0-3.38,1.76l-.08.19v.22l.22,40.4v1m7.94-31.48h3.5v-1c0-1.69.87-3.25,2.8-5l.12-.11.08-.14a4.77,4.77,0,0,1,4.44-2.21l.83,0-.74.13v.16c-4.32.49-5.78,2.63-5.76,8.37v1h7v-.3h5.73v-1a16.48,16.48,0,0,0-.63-5.17,6,6,0,0,1,2,4.29v1H446v-1a15.69,15.69,0,0,0-2.47-8.21l-.14-.21-.22-.12a18.56,18.56,0,0,0-9.1-2.51,11.55,11.55,0,0,0-7.25,2.65,11.3,11.3,0,0,0-3.69,8.4v1m64-10,0,40.37v1h6l0-1-.86-40a1.51,1.51,0,0,0-.24-1.24,3,3,0,0,0-2.43-.95,2.72,2.72,0,0,0-2.25.86,1.29,1.29,0,0,0-.18,1m7.34,10.22-.28.13-.59.27v3.74h1.78l-1.17,1.12-.3.29v.42l-.18,18.29v1l1,0,1.31.06v7.28h16.43v-7.5h-5.51V120l0-.13-.26-1,.26-.9.47-1.69.14-.5-.32-.4-.5-.62.51-.26-.1-.71c-.67-4.74-2.52-7.68-6.19-9.82l-.35-.2-.38.09c-4,.93-5.85,3.78-5.71,9l0,.62M537.8,147h5.69v-1l-.06-5.71,2-.14v6.27H556v.32l0,1h6.5l0-1-1-36.39a2.08,2.08,0,0,0-.41-1.7,2.65,2.65,0,0,0-2.09-.91,2.14,2.14,0,0,0-1.84.83,1.47,1.47,0,0,0-.21,1.19l-.72,30.22H548l.93-.07v-18l-.08-.19-.65-1.53.36-.29.35-.29,0-.45.05-1.62.67.14-.29-1.48-.18-.95c-.51-2.71-.79-4.21-2.49-5.61l-.5-.42-.58.29a5.7,5.7,0,0,0-2.45,2.49l0-5v-.11l0-.11a3,3,0,0,0-3.09-2.14,3.13,3.13,0,0,0-3,1.75l-.08.19v.2l.92,39.24,0,1M143.35,124.71l1,0,5.84-.15,1,0V111.35l-1.07.08-5.84.43-.93.06v12.79m-20.18,1.77,1-.06,4.87-.25.95,0V112.82l-1.28.37-4.86,1.4-.73.21v11.68m342.29-6.12h.18v16.85h5v.25H477v-17.1h.72l-.52-1.36c-1.16-3-2.39-5.55-5.83-5.55a5.78,5.78,0,0,0-5.9,5.88l0,1m-281.62,4.81-.1.16.95.52,1,.51,1.47.8v-9.38l-.72-.21-5.24-1.52-1.31-.38,0,1.36.15,6.48,0,.78.75.17,3,.71m-80.3,3.62,1.07-.07,5-.36.93-.07V115.67l-1.1.12-5,.52-.9.09v12.39m-4.73,1V117.42h-1l-5.28,0h-1v11.82l.92.07,5.28.42,1.08.08m-40.93,3.72,1.72-1.76,3.95-4.05.28-.29v-7.12l-1.11.13-3.95.45-.89.11v12.53M395.36,126h.81v12.62H400v.63h4.27V126h1.91l-.87-1.49-.25-.44c-1.2-2.1-2.07-3.61-4.08-3.61-3.09,0-5.14,1.65-5.49,4.42l-.14,1.12M215.7,128.28c3.15,0,3.15-3,3.15-4.26a2.91,2.91,0,0,0-3.15-3.19,3.7,3.7,0,0,0-3.13,3.19c0,2.6,1.86,4.26,3.13,4.26M50,134.48l1.1-.11,4-.39.9-.09v-12.5l-1.11.13-4,.46-.88.11v12.39M33.72,136l1.08-.09,4-.33.92-.08V123.13l-1.13.14-4,.52-.87.11V136m-16.2,1.89,1.1-.11,4-.38.91-.08V124.66l-1.13.15-4,.51-.88.12v12.45m-14.7,1.39,1.08-.09,4-.32.92-.08V126.42l-1,0-3.95-.16-1,0v13.1m336.41-1.59H336v0h-4.58v0h-4.5v8.49h5.52v0h4.47v-.05h4.6v-8.48h-2.29M143.41,160l1,0,4.82-.15,1,0V143l-1.17.2-4.82.84-.83.14V160M188,161.1V143.34l-1.09.09-6.52.55-.93.08V145l.14,14.31v.88l.88.1,6.39.71,1.11.12m22.49.48,1.2-.25,4.93-1,.8-.16V146.71a3.56,3.56,0,0,0-3.73-3.34,3,3,0,0,0-3.2,2.82v15.39M123.81,161l1-.05,3.8-.16,1,0V143.89l-1.22.26-3.8.84-.78.17V161m-20,1,1-.06,4.1-.21,1,0V146.41l-1.06.07-4.1.24-.94.05V162M93,163.07l1.21-.26,4.9-1.05.79-.17V146.74l-1.09.09-4.89.4-.92.07v15.77m-11.82.52V148l-1.09.09-4.45.37-.92.07v14.71l1,.05,4.46.23,1.05.05m-23.3.32,1.11-.13,3.95-.45.89-.1V149.28l-1.08.1-4,.33-.92.08v14.12m-7.87.94,1.1-.12,4-.42.89-.09v-13.1l-.82-.15-4-.71-1.17-.2v14.79m-10.32,1.32V151.61l-1.08.1-4,.34-.91.08v13.2l.86.12,4,.56,1.14.16m281-7.82-3.61,3.42L314.7,164l3.21-.53,4.66-.76a5.15,5.15,0,0,0,1.11.34,14.79,14.79,0,0,0-6.93,4A21.45,21.45,0,0,0,311,182.42l.1,41.54v1h1l6.24.08h1v-1l-.75-43.85c1-9.7,5-14,12.91-14a23.17,23.17,0,0,1,2.92.19l6.33.76L335,164.42a18.93,18.93,0,0,0-6.69-1.77,2.39,2.39,0,0,0,.65-.5l5.12.71,3.77.52-3-2.31-3-2.31c-.54-4.85-3.38-7-6-7a4.71,4.71,0,0,0-3.55,1.61,6.77,6.77,0,0,0-1.51,5m-303.15,9,1.12-.13,4-.44.89-.11v-13.4l-1.09.09-4,.33-.92.08v13.58m-14.7.6,1.12-.13,4-.44.88-.11V154.61l-1.08.09L3.74,155l-.92.08V168m494.72,38.48,1,0,7.25-.28,1,0,0-1-.88-47.35,0-1-1,0-6.5-.09-1,0v1l.13,47.71v1m27-2.84,1.26-.39,3.83-1.18.71-.22v-.75l-.43-42.57v-1l-1,0-4.51-.09-1,0,0,1,1.11,43.85,0,1.32m26.41-3.27,0-1-.65-39.83,0-.95-.94,0L547,158.4l-1.06,0,0,1.07,1.11,39.9,0,1h1l1.81,0h1m119-34a2.57,2.57,0,0,0-1.89,1.3,1.49,1.49,0,0,0,.14,1.4l.26.42.49.05,2.24.22a1.08,1.08,0,0,0,.68.25,1.48,1.48,0,0,0,1.32-1.47,1.08,1.08,0,0,0-1.1-1.1H672a2.93,2.93,0,0,1-.54-.58,1.26,1.26,0,0,0-1-.6,1.12,1.12,0,0,0-.47.11m-4.68,8.18a2.21,2.21,0,0,0,1,.32,1.15,1.15,0,0,0,1-.52c.4-.61.12-1.36-.31-2.35l-.29-.67-.74.08c-.42,0-.65.06-.8.07a1,1,0,0,0-.28-.07l-1.24-.18.11,1.25a2.26,2.26,0,0,0,1.59,2.07M180.19,189.7l1,0,6-.28.93,0,0-.92.37-12.46v-.13l0-.14c-.78-3.21-3-4.35-4.78-4.35a3.46,3.46,0,0,0-3.7,3.07v.06l.14,14.21v1m-35-14.42v14.8l1.09-.11,4.59-.44.9-.09V175a3.83,3.83,0,0,0-.85-2.63,2.81,2.81,0,0,0-2.13-1h0a3.69,3.69,0,0,0-3.6,3.9m64.36,16.23,1.1-.11,5.76-.56.9-.09V172.33l-.91-.07-5.76-.5-1.09-.09v19.84m-84.88-.27,1.09-.11,4.59-.44.9-.09V176.12a5.08,5.08,0,0,0-.72-2.9,2.48,2.48,0,0,0-2.09-1.11h0a3.63,3.63,0,0,0-2.56,1.21,4.22,4.22,0,0,0-1.21,3.09v14.83m535.5-15.5a1,1,0,0,0,.79.75,1,1,0,0,1,.22.18l.06.05,5.5,5.3-4-6.54a1.91,1.91,0,0,0-.54-.58l.41-.77-1.11-.38-.39-.13-1.52-.52.21,1.59a2.6,2.6,0,0,0,.32,1.05m-555.68,1.67v15l1.09-.11,4.59-.43.9-.09V177.31a4.6,4.6,0,0,0-1.07-3.37,2.56,2.56,0,0,0-1.85-.76,3.55,3.55,0,0,0-2.52,1.18,4.16,4.16,0,0,0-1.14,3m570.89.72-.84-1.82a2.71,2.71,0,0,0-2.11-1.47c-.51-.12-.79-.2-1-.47l-.09-.12-.12-.09a2.25,2.25,0,0,0-1.31-.51,1.37,1.37,0,0,0-1,.41,2.26,2.26,0,0,0-.46,1.67v.06l0,.84.82.18,4.15.9,2,.42m-580.29-.29v14.61l1.09-.1,4.55-.39.91-.08V177.25l0-.12a3.94,3.94,0,0,0-3.7-3.34,2.94,2.94,0,0,0-2.82,4.05m509.33,1.94a1.35,1.35,0,0,0,.62-.14,3.63,3.63,0,0,0,.65.05,5.49,5.49,0,0,0,2.84-1l.62-.35a2.31,2.31,0,0,0,.8.15,2.35,2.35,0,0,0,1.94-1.27l.07-.11.45-.59L612,176A2.28,2.28,0,0,0,610,175a11.52,11.52,0,0,0-6.08,1.77c-.55.3-1.13.61-1.76.89l-3.91,1.76,4.28.16a8.47,8.47,0,0,1,1.2.12,4.37,4.37,0,0,0,.66.07M57.88,193.51l1.07-.08,4-.29.92-.07V177.65A2.44,2.44,0,0,0,61.31,175a3.66,3.66,0,0,0-3.38,2.46l0,.15v15.88m576.25-16.95A.65.65,0,0,1,634,176a.68.68,0,0,1,.41-.48l-.2,0-5.48,0a2.07,2.07,0,0,0-.82-.15,9.28,9.28,0,0,0-3.47,1l-.6.3,0,.67.1,1.29-.14.06.11.77.18,1.18,2-.22,0-.52.95-.44c.54-.26,1.07-.5,1.37-.63l.23-.1.16-.2c.3-.39,1.13-1.42.66-2.37a1.19,1.19,0,0,0-.36-.46l4.78,1.7a.54.54,0,0,1,.39.34,1.84,1.84,0,0,0,1.23,1c.49.55.87.83,1.36.83a1.2,1.2,0,0,0,.33,0l2.34,1.54.07.11.3.43h.43l1,.68a1.59,1.59,0,0,0,.29.15,3.87,3.87,0,0,0-2.13,1.79l-.06.1,0,.13a3.93,3.93,0,0,1-1.7,2.1l.08-.81a3.08,3.08,0,0,0-.2-2.75,2,2,0,0,0-1.64-.79,3.74,3.74,0,0,0-3.18,2.2,4.08,4.08,0,0,1-.71.17,1.82,1.82,0,0,0-2-1.43,2.47,2.47,0,0,0-1.92.88,2.11,2.11,0,0,0-.43,1.1,2.46,2.46,0,0,0-2.38,2.53l0,.42.25.29c0,.08.13.29.19.44s.14.36.23.56l-.12-.07c-.21-.11-.41-.22-.6-.3l-1.47-.67,0,1.61.28,7.57,0,1h1l38-.43,1.76,0-.92-1.5a2,2,0,0,0-.33-.41l0,0a2.28,2.28,0,0,1-.16-.59l0-.07,0-.07c-.32-.9-1.31-1.17-3.3-1.71a33.11,33.11,0,0,1-7.33-2.72l-.06,0-.06,0a7.8,7.8,0,0,1-4.17-3.14,10.45,10.45,0,0,0-2.66-2.71,3.16,3.16,0,0,0-.83-1.92,3,3,0,0,0-.33-.29,1.58,1.58,0,0,0,.61-1l3.52.73-6.39-3.32a.91.91,0,0,0-.31-.12,2.56,2.56,0,0,0-.42-.52l-.22.22a1.09,1.09,0,0,1,.21.26h0l0,.42h-.07l-.61-.26-.27.27-.72-.26a1.09,1.09,0,0,1,0-.17.82.82,0,0,1,.12-.2l-.22-.1a1.55,1.55,0,0,0-.19.5l-.15.41v0l-1.93-.59h0c.36-.52.28-1.13-.36-2.88l-.11-.28-.25-.18a3.49,3.49,0,0,0-1.18-.58,1.25,1.25,0,0,1-.45-.22l-1.28,1.53M75.07,191.8l1.07-.07,4-.27.94-.06V178.76a3.42,3.42,0,0,0-.8-2.65,2.67,2.67,0,0,0-2-.85c-1.53,0-3.13,1.27-3.22,3.71V191.8m188.47-15.3a1.18,1.18,0,0,0-.37.19,1.14,1.14,0,0,0-.47.92,1.21,1.21,0,0,0,1.25,1.18,2,2,0,0,0,1.11-.39l.53-.24a1.39,1.39,0,0,0,.63-.14,1.13,1.13,0,0,0,.62-1,1.18,1.18,0,0,0-1.21-1.14,1.75,1.75,0,0,0-.32,0,1.89,1.89,0,0,0-.56-.1,1.43,1.43,0,0,0-1.21.67M50,193.81l1.07-.08,4-.28.93-.06V178.47a2.33,2.33,0,0,0-2.42-2.56c-1.64,0-3.55,1.3-3.55,3v14.92m-10.32.69V180.22a3,3,0,0,0-.57-2.48,2.39,2.39,0,0,0-1.86-.83,3.77,3.77,0,0,0-3.54,3.56v12.81l.8.16,4,.81,1.2.25m642-11.57a1.43,1.43,0,0,0-.22.52l-1.33,5.86a5,5,0,0,0-2.7-.92,4.54,4.54,0,0,0-2.2.62l-.31.17-.13.34c-.11.27-.19.52-.26.75-.26.85-.38,1.24-4.94,2.4-1.55.07-2,1.45-2.46,2.8-.18.53-.38,1.14-.67,1.79l-.6,1.37,1.5,0,24.68.44,1,0v-3.74c0-1.34,0-2.68,0-4v-.27l-.13-.23a2.41,2.41,0,0,0-1.9-1.1,2.1,2.1,0,0,1-.69-.18l-.3-.18-.35.05a8.18,8.18,0,0,1-1.06.07c-.63,0-1.31-.06-2-.11s-1.6-.13-2.43-.13H684l.3-4.77a4.32,4.32,0,0,1,1.29-1.84l1.25.5-.4-1.84-.18-.79h-.55a16.66,16.66,0,0,1-1.43-1.39c-1-1.08-1.49-1.57-2.14-1.57h0a1.09,1.09,0,0,0-.87.43,1.63,1.63,0,0,0-.11,1.44l.06.18.11.15a2.48,2.48,0,0,1,.34,3.16M17.52,181.17v14.24l1.27-.35,4-1.07.74-.2v-12a4.2,4.2,0,0,0-1-3.27,2.82,2.82,0,0,0-2.08-.91,2.9,2.9,0,0,0-2.2,1,3.22,3.22,0,0,0-.71,2.55M669.58,179a1.72,1.72,0,0,0-.84.43l-.54.47.26.66a5.42,5.42,0,0,0,.43.8c.08.13.18.3.24.42l-.07.05-2.12,1.53,2.6.28c.31,0,.63,0,1,0a14.17,14.17,0,0,0,4.42-.84l.68-.22v-.71a1.52,1.52,0,0,0-.43-1.1,1.58,1.58,0,0,0-.54-.37,2.41,2.41,0,0,0-.42-1.43,2.65,2.65,0,0,0-2.24-1.07,3.11,3.11,0,0,0-2.39,1.05M2.82,181.86v13h1l4-.05,1,0V181.23C8.6,179,7.22,178.17,6,178.17a3.54,3.54,0,0,0-2.82,1.53,2.51,2.51,0,0,0-.35,2.16M630.64,180a2,2,0,0,0-1,1.78v1.11l1.12-.11a4.11,4.11,0,0,1,.54,0c1.12,0,2.66,0,3.46-.94a1.8,1.8,0,0,0,.45-1.41l-.08-.95-.95,0H634a3.59,3.59,0,0,1-1.23-.23,6.07,6.07,0,0,0-.83-.23l-2.12-.39.78,1.35m-19.75-.49a4.48,4.48,0,0,0-.8-.07,4,4,0,0,0-1.86.49,2.61,2.61,0,0,1-1.26.35,4.13,4.13,0,0,1-.57-.05l-.46-.07-.36.3a3.7,3.7,0,0,1-2.93,1.21h-1.21c-.45,0-.85,0-1.25,0l-1,.07,0,1c0,.76,0,1.7,0,1.84l.74.1h-.75v13.8h20.44V185.73l.36-.31,4.11-3.62L619,183.73a3.1,3.1,0,0,0-1,.57l.34.4h-.09l-.2-.26-.36.26h0v0a2.67,2.67,0,0,1-1.4.52,2.5,2.5,0,0,1-.76-.15,3.56,3.56,0,0,0-1-.18,2.3,2.3,0,0,0-.45.05H614c-.29.08-.57.16-.85.22a1.88,1.88,0,0,0,.2-.81c0-.06,0-.16,0-.19s.48-.66,4.81-.82a1.36,1.36,0,0,0,.3,0,2.21,2.21,0,0,0,.38,0l.27,0-.09-1.48.13-.09a.79.79,0,0,1,.16.46s0-.1,0-.18,0-.19,0-.31l.08-1.05-1.06,0c-.59,0-1.78,0-2.5-.11l0-.49-1.23.18h-.24a2.58,2.58,0,0,1-1.38-.55,2.45,2.45,0,0,0-1.31-.52,1.4,1.4,0,0,0-.91.34M263.6,181.89a2.34,2.34,0,0,0-1.53,1.53l-.86,2.24.49-.22a2.81,2.81,0,0,0-.08.31,4,4,0,0,0-2.1,1.56,9,9,0,0,1-3.17,2.56,63.2,63.2,0,0,1-6.26,2l-.87.21.11.89a8.86,8.86,0,0,1-.17,2.48,10.7,10.7,0,0,0-.17,3.06l.11.88h20.07V184.7a1.6,1.6,0,0,0,0-.31l-2,.06v.18a.25.25,0,0,1,0,.08c0,.2-.06.53-.08,1.35a2.73,2.73,0,0,1-.57-1.11l0-.07,0-.07a2,2,0,0,0-1-1l.55-.24a1,1,0,0,0,.7-1.06c-.06-.84-1.08-1.31-1.76-1.31a1.52,1.52,0,0,0-1.3.69m436.93,4.62a1.74,1.74,0,0,0,1.17-.47l.21-.19.09-.27c.1-.33.34-.53.73-.85a2.57,2.57,0,0,0,1.09-1.49l.13-.66-.56-.37a2.91,2.91,0,0,0-1.64-.51,4.31,4.31,0,0,0-1.25.22,2.79,2.79,0,0,1-.53.11l-.06-.05-.42-.45-.59.18c-.31.09-1,.44-.82,1.75s1,3,2.45,3M656.43,185a6.3,6.3,0,0,1-1-.85,4.44,4.44,0,0,0-.57-.49l-.33-.21h0a1.29,1.29,0,0,0-.82-.31,1.18,1.18,0,0,0-.67.21l-.84.57.58.83a2.85,2.85,0,0,1,.3,2.33c0,.25-.06.5-.08.76a1.83,1.83,0,0,0,.16,1.59,1.14,1.14,0,0,0,.89.43c.74,0,1.34-.65,2.64-2.13.36-.42.74-.85,1-1.17l3.57-3.62-4.68,2-.12.06m-400,4.06a1.17,1.17,0,0,0,.88-.39,1.35,1.35,0,0,0,.32-1.12,7.08,7.08,0,0,0-.34-1.57l0-.1.39-.16,0-.64a1.73,1.73,0,0,0-.4-1.29,1.22,1.22,0,0,0-.88-.37c-.81,0-1.51.72-2.49,1.83l-.36.4-.81.73.8.74.19.18c1.3,1.22,2,1.76,2.71,1.76m414.42-2a1.56,1.56,0,0,0-.61-.13,1.15,1.15,0,0,0-.93.45,1.27,1.27,0,0,0-.24.77,4.22,4.22,0,0,0,.71,1.92c.71,1.21,1.13,1.45,1.62,1.45l.54,0,.3-.42.13-.17,0-.21a2.54,2.54,0,0,1,1.1-1.48,2,2,0,0,0,1-1.42,1.43,1.43,0,0,0-.51-1.12l-.28-.27h-.4a4,4,0,0,0-1.26.31,5.4,5.4,0,0,1-1.16.34m-428.48-.38a1.17,1.17,0,0,0-.74,1.06,1.21,1.21,0,0,0,0,.19,1.16,1.16,0,0,0-.49-.13h0a1.1,1.1,0,0,0-.5.12c-.36,0-.72-.06-1.08-.08a10.38,10.38,0,0,1-1.11-.09l-.43,2,2.12.59-1.2,1.23-.28.29v7.55h8.55l.11-.87c.42-3.2,1-7.59-1.83-8h-.05a6.37,6.37,0,0,1-2.77-.66l0-.55a6.18,6.18,0,0,0,.79.48,1.3,1.3,0,0,0,.86.33c1.18,0,2.08-1.72,2.08-2.42a1.06,1.06,0,0,0-.16-.58,1,1,0,0,0-.89-.49,1,1,0,0,0-.59.18,1.68,1.68,0,0,1-.25-.08,2.88,2.88,0,0,0-1.08-.24,2.68,2.68,0,0,0-1,.22M505.85,76.1l.53.14,2.26.59v3.86l-1.18.53-.89.41,0,0-.7-1.51v-4m38.2,4h0v4.5h0V80.1m21.1,0a1.1,1.1,0,0,1,.81.48.67.67,0,0,1,0,.7l-.6,1.4-.32-2a1.19,1.19,0,0,1,0-.54h.07m-20.28.73,1.37,1.23-.41.5-.22.28V84.2l0-.14V83.3l-.14.12-.57-2.58m19.36,1.7,1.42,1.7-.18-1.1.9-.26c0,.07-.08.12-.11.18a1.72,1.72,0,0,0-.19,2.1,2,2,0,0,0,1.51,1.23l0,.72v0l-.54-.68v1.72l-.13-.06v4.64l.58.27.66.31.11,0v.34h.7l0,0,.25.24v.62l-.43-.14-.26-.08-.27.07-4,1q-2.65-.92-5.39-1.65V92.69l.06,0,1,.47,1.42.64v-.66l.48.06v-.75h1V89.13h-1V87.5l.61.09.85.12.25-.82.06-.22a5.17,5.17,0,0,0,.36-2l1.68-.12-1.19-1.49a1.93,1.93,0,0,1-.3-.57m10.56,1.06a16.61,16.61,0,0,1-.61,2.39l-.2.62-.17-.11c-.68-.43-.86-.66-.88-.84l0,0h.11c.88,0,1.2-.81,1.46-1.46.06-.15.15-.38.25-.58m-126.15.77.55.25v1.66l1.46-1,.25.11V85.1l.71-.48.32-.22.2,0,.87.23.63.17v.52l1.11-.12h.06v.6l-1.23.59L416.4,87l-.57-.36,1-.69.68-.46V87l1.56-1.07.86-.58.28-.19.66.15v1.55l1.56-1,.69-.46v1.32l1.52-.94.7-.43v1.55l1.16-.88v.12l1.42-.65.78-.36v1.55l1.51-1.07.53.07.83.1.54.07v.68l1.57-1.1.84-.59.31-.22.25.16.85.51,1.52.91v-1.4l.68.39,1.5.85V84.66l.55.3v.42l.63-.08,1,.56v-.7l.31,0,.26,0v1.46l1.56-1,.64-.43v1.42l1.14-.78v.75l1.58-1.13.86-.61.42-.3v0m28.33.52v.72h-1v-.1l.76-.45.28-.17m-5,.19.3.08,1.52.44-3,0,.39-.17,0,0,.36.06v-.21l.37-.16m73.81.09.64.09,1.15.17v.3l-.35,0-1-.16-.32,0-.07-.3m-57,.06.53.44h-1.16l.49-.33.14-.1m58.95.22,13.31,1.93-.47.39h0l-1.05-.18-1.17-.21v.27l-.83-.15-1.14-.17v-.4l-1.15.19-1.06.16-.13,0h-.45l-.81-.15-.68-.13h0l-.24,0-.21,0v-.15h-.54v-.66l-.8-.16-1-.21-1.2-.21h0l-.34-.07m-53.7.11,1.06.22v1.44l-1.45,0,.39-1.61m-78.77.35v.42l-.46-.28.46-.14m-7.89,0,.8.38L403,87v-.48l.51-.12v.24l1.12-.15,1.93-.24.88-.11v-.19m96.26.07v1.59l-1.37-.07V86.12l.43,0,.94-.1m-4.2.13.31,1.28-1.49-.06v-.75l.17-.06,1-.41m-98.73.25.55.5.3.28-3.17.4.81-.25L400,87l.7-.22v-.46m96,.11.34.81-.58,0,.24-.79m12.17,0,.51,1.34-2.55-.13,1.24-.74.8-.47m2.79,0,.67.37.7.39.21.77-2.47-.14v-.68l.44-.35.2-.16.25-.2m-6.32.14.06,0,1.16.5v.5L505,87.63l.39-.95m10,.08.23.2v.47l.63.11.81.74-1.63-.09-.59,0V87l.14,0,.17-.06.24-.09m59.05.35h0a2.65,2.65,0,0,0,.06,2.14l0,.06,0,.06a1.37,1.37,0,0,0,.7.56,2.69,2.69,0,0,1,.8.48.92.92,0,0,1-.12.16l-.67.77.78.66.44.37-.51.28-.21-.11v-.17l-.63-.25-.07,0V91l-1,0h-.27v-.22l-.8-.15-.1,0-.07-.06-.22-.17.39.22.43-1,.78-1.88.25-.62m-55.4,0V88l1,0,1.17,0,.9,0,.22,0,.85.66-5.33-.29v-.5l1,.17v-.82h.18m-121.12.08v.36l-.58.07V87.4l.58-.16m-4,.3.85.36L395,88l-3.46.44.91-.28.81-.24.71-.22v-.14m3.3.15-1.05.13v-.11h.19l.86,0m132,.16v.06l.57,0V89h-.21l-.64,0,.26-1.05h0m39,.21,1,.57-.78-.27-.24-.3m-40.91.27v.5l-1,0V88.5l.33-.17h.65m6.28.09v.15l.31.3.15.15.51.47-3.34-.38.7-.36.15-.09.12-.06V89l1.4-.6h0m59.7.1.13.36h.27c0,.08,0,.17,0,.28l-.06.47c-.1-.13-.21-.23-.3-.33l-.22-.23a3.42,3.42,0,0,0,.21-.55m-56.84.38h.08l.08.21.27.65-.43,0V88.9m2.09.81.07.28h-.07v-.27m-259.94.16,1.67,1.64-.25.73-1.42-2.37m265.35.36v.51l-.57-.09.12-.08.45-.34m2.55.08v.26l.43.3,0,0,0,0v.32L545.74,91l.14-.66h.23l.5,0m48,.38a1.38,1.38,0,0,0,.25.36l.34.38.13,0a4,4,0,0,0-.45,1.91L595,94.6l1.21-.43,1.3-.47a.26.26,0,0,1,0,.11l-.32.34.13.53.77,3.12.26,1,.66-.21-.08.16.11.36,4.45,15.65,0,0-4.21-12-.23-.68-.73,0-14.3.26a19.3,19.3,0,0,0-1.77-1.62V99.54a1.1,1.1,0,0,0,.47-.29,1.7,1.7,0,0,0,.38-1.28l0-1.8,6.08.57.19,0,.17-.05,4.27-1.2,1.37-.38L594.33,94a2.23,2.23,0,0,1-.2-2,3.63,3.63,0,0,0,.13-.91l.39-.33m-41.76.58h.47v.67l1.11-.13.39,0v1c-1.19-.28-2.38-.53-3.57-.77l.78-.36.81-.37m-2.23.1v.5l-1.45-.27h0l1-.16.4-.06M556,92.54l.27.56-.71-.18.44-.38m1.39.46.51.51-.51-.14V93m12.54,1.62.28.27-.46-.15.18-.12m1.19.48.1.11-.1,0V95.1m3.83,1v.52l-1-.39v-.07l.51,0,.42,0h.07m6.8,0,.28,0-.28.14v-.16m.54,0,.56.05-.56.44V96.1m-6,.79v.25l-.51-.23.51,0m-.51,0h0m.86.39.33.12.15,0v.07l-.48-.23m1.89.8.1.14.07.11-.25-.14.08-.11M426.18,118.8l.76.9,1.71,2,.34.41.54-.06,1.11-.14.48-.06.25-.41a14.58,14.58,0,0,1,.93-1.37v.5a2,2,0,0,0,.49,1.56,1.89,1.89,0,0,0,.9.48v.48h-6V138.7H427v-1.11h-.83V118.8m117.41.44.18.81-.26.11-.3.12v-1h.39m-101.53,1.11v17.24h-.4V122.51h-3.12l.1,0,1.73-.54.25-.08.18-.18,1.26-1.33m-4.72,1.48.17.24.28.44h-1.73a3.25,3.25,0,0,0,1.28-.68m173.71,62.63c0,.08,0,.16-.07.25l-.24.82h-.53c-.31,0-.64,0-1,0l.4-.24c.42-.25,1-.58,1.4-.81m71.47,1.26.53,3.6a8.66,8.66,0,0,0-2.12.42,2.54,2.54,0,0,1-.39-.21l2-3.81M428.58,197.25h0a1.24,1.24,0,0,0,.31.51,1.3,1.3,0,0,0,.55.34v1.1h-.85l0-2m-89.13,7.66a1.81,1.81,0,0,1,0,.25h0c-.05.4-.06,1-.09,1.93a4.44,4.44,0,0,0-.34,1,4.22,4.22,0,0,1-.23.73l-.11.11,0,.12v-.32l.36-2.25.37-1.58.06,0m135.27,7.27,1,.86a3.1,3.1,0,0,0-1-.17,2.23,2.23,0,0,0-.7.11l-.48-.06a3.39,3.39,0,0,0,1.11-.68l0,0,0,0h0m-136,.27.1.08-.2.16v-.24h.1m73.93,2.86a7.91,7.91,0,0,1,1.53.48c.3.11.62.24,1,.36-.24.22-.47.45-.68.68l-1.83-1v-.48m22.31,1a12.81,12.81,0,0,1,5.12,1.09l.16.07h.18c1.63.09,2.23.94,3.14,2.23a15.84,15.84,0,0,0,1.2,1.55l.13.14.17.08a1.53,1.53,0,0,1,.46.29,1.1,1.1,0,0,0,.77.33l.18,0a2.38,2.38,0,0,0,1.31.45,3.08,3.08,0,0,0,1.15-.28l.37-.14a2.77,2.77,0,0,1,.42,0,9.85,9.85,0,0,1,1,.08,10.05,10.05,0,0,0,1.26.1h.08c0,.25,0,.53.06.8l-.38,0h-.37a1.05,1.05,0,0,1-.72-.28l-.54-.39-.56.36a4.76,4.76,0,0,1-1.25.11,5.48,5.48,0,0,0-1.77.21c-1.69.09-3.14.11-4.56.13s-3,0-4.5.16a5,5,0,0,0-.53,0,7.32,7.32,0,0,0-2.67.44,3.55,3.55,0,0,0-1.46-.36h-.21a2,2,0,0,1-.05-.91l.3-1.13-1.16-.12c-.6-.07-.66-.2-.86-.64l-.25-.52h-.07a1,1,0,0,1,0-.18l0-.41-.32-.28a8.08,8.08,0,0,1-1.38-1.67l-.14-.2a17.14,17.14,0,0,1,4.29-.93h.31a13.8,13.8,0,0,1,1.68-.11m-21,1.19c-.26.33-.5.66-.73,1h0a1.24,1.24,0,0,0,.08-.48v-.47l.66,0M340.57,0C334.49,0,328.9,10,337,13.91c-3.84,3.39-5.25,5.85-2.88,9.74-3-.28-3.73-3.17-6.34-3.17a6,6,0,0,0-2.6.73c.48-2.24-.24-3.35-1.09-3.35-.68,0-1.45.7-1.77,2.1v0c.43-2-.68-3.16-1.76-3.16s-1.95,1-1.62,3.44c.32.39.31.5.12.5s-.69-.14-1.16-.14c-.67,0-1.37.27-1.45,1.6.33,1.17,1.89,3,4.56,5.53L312,29.92l.39,2.31-3.8.2.49,2.91-5.18.84c.1-3.55-1.24-5.15-2.51-5.15-1.48,0-2.87,2.22-1.71,6.1l-2,1.51-2.28.48c-1.06-.1-.44-2.41-2-3.69.45-2.27-.37-3.3-1.31-3.3s-2.08,1.13-2,3.12c-1,.11-.92.8-1,2.7-1.29,1.44-1.33,1.79-1,3.12-.94,3.44-4.64,1.23-2.43,6.26l-2.38.09L285.3,50v1.61l2.84,2v4.17l-3.31,3.44v2.29L274.57,66.1l1.87.3.6,1,2.52,1.6,4.72,3.24V77l.46,2.2v0l13.34-2.92,6.79,4.31-.56,2L298.63,79l-14,2.78.71,2.51.14,10.64-5.78,1.89,1.87-5.57-2.8-2.75-1.79.37,2.43,4.08-2.14,3.21-4.65,2.35.27-4.55-2.36,4.55L269,100.68l1.52,1.69-3.11,3.33-1.72,1.88.21,2.06.18,8.21,3,6.05-.28,33L265,161l2.16,2.37-.62,1.22,1.61,4.85v5.54c-.77-1.35-1-1.06-2.48-1.26-.25-1.2-.36-1.56-.48-1.56s-.39.79-1.13.79a1.3,1.3,0,0,1-.54-.12,8.45,8.45,0,0,0-3.54-.68,23.22,23.22,0,0,0-3.13.28,62.93,62.93,0,0,1,7.36,1.31c0,.24-.29.36-1,.36a17.65,17.65,0,0,1-2.65-.29l1.29,1.18a2,2,0,0,1-1,.25c-1.88,0-4.29-2-5.72-2a1.1,1.1,0,0,0-.41.07c-3.28.33-5.18.66-7.36,1.91-2.09,1.44-2.45.36-3.58,1.57a.55.55,0,0,0-.29-.08c-.56,0-1.13.81-1.59,1.3a1.28,1.28,0,0,0,.77.26,2.82,2.82,0,0,0,1.4-.52c.41,0,.81.07,1.19.07a4.2,4.2,0,0,0,2.63-.81,2.68,2.68,0,0,1,1-.28c1,0-.13,1.76,1.56,2.11l1.15,0c-.82.46-2.16.34-2.5,1.29H249c-2.1,0-4.23,2.41-3.78,3.86a2.68,2.68,0,0,1-.84.13c-1.84,0-3.87-1.58-5.6-1.58a2.41,2.41,0,0,0-2.11,1.25l.13-48.36,3.41-3.93h-3.81l.4-11,3.08-2.79-8.54-2L219,109.78c1.79-4.42-.31-6.88-2.75-9.91-1.39-1-3-3.1-6.12-4.41h.05c.18,0,.36-.38.36-1a2.44,2.44,0,0,0-2.19-1.5,1.65,1.65,0,0,0-.93.28V75.1h-1.64V92.89c-2.07.1-3.41.81-2.92,2.19a14.63,14.63,0,0,0-9.76,4.79l-34.4-4.93-11.24,2.45V92.63l2.44-1.4-11.72-2.3-4.85,2.38L77.06,98.58,76.43,95l-4,0v3.6l-4.82.1L55,98.55v13.39L21,109.56,0,107.11V241l705.58.36V197.14l-9.06.38c-.13-4.09,0-7.89,1.56-7.89l.24,0c6.17-2.31,4.83-2.77,7.26-5v-8c-1.89.07-3.88,1.67-5.71,1.67a3.18,3.18,0,0,1-.62-.06c.37-2.65-2.48-5.87-6.66-6.32,0-1-1.61-1.29-2.91-1.38l1.24-.67c2.49-.35,1-2.54,2.86-2.54a5,5,0,0,1,1.16.17,5.85,5.85,0,0,0,5.06,2.06l1.33,0c0-.25.12-.33.31-.33s.76.19,1.14.19a.64.64,0,0,0,.47-.16c-.24-1.15-1.36-1.84-2.33-2.8a1.18,1.18,0,0,0-.5-.1c-.57,0-1.25.29-2,.29a3.46,3.46,0,0,1-2.41-1c-2.17-2.79-6.38-3.54-9.06-3.54h-.51a7.71,7.71,0,0,0-1.07-.08c-3.82,0-7.34,2.8-10,2.8a3,3,0,0,1-1.12-.2l1.76-.86c-1,0-1.74.06-2.35.06-1.63,0-2.07-.19-1.46-1,3.11-.69,12.59-1,10.36-2.09a14,14,0,0,1-1.77.08l-3,0a26.35,26.35,0,0,0-5.48.44,1.49,1.49,0,0,1-.87.35c-.9,0-1.28-1.29-1.76-1.29-.29,0-.61.44-1.1,1.86-3.56,1.57-4.34,3.85-7.81,3.85a12.81,12.81,0,0,1-3-.44,1.62,1.62,0,0,0-.83-.22c-1.7,0-3.54,2.52-5.88,2.83a3.18,3.18,0,0,1-.85.1c-.34,0-.66,0-1,0a3.42,3.42,0,0,0-2.9,1.63c-.15-.26-.22-.35-.25-.35s0,.26,0,.29c0-.23-1.27-.2-1.34-.82l1.78-.86c-1,0-1.7.06-2.23.06-1.37,0-1.47-.19-1.62-1,4.16-.4,12.58-1,11.41-2.09-2.84.27-7.87.77-10.21,1.56a1.35,1.35,0,0,1-.58.15c-1.09,0-1.52-1.69-2-1.69-.31,0-.65.59-1.17,2.48-4.09,1.43-4.6,2.9-7.22,2.9a15.67,15.67,0,0,1-3.61-.56,5.81,5.81,0,0,0-4.11,1.65l-.67-4.31.47-5.44c-1.13-1.59,2.52-.13,2.49-2.49l-1.71-.18c0-1.33.64-2.23-1.15-2.93.06.12-.09.3-.33.3s-.48-.14-.73-.58c0-.7-.21-.92-.45-.92s-.89.52-1.14.52a.14.14,0,0,1-.12-.08.29.29,0,0,1-.15.06c-.32,0-.13-1.12-.32-1.12a.06.06,0,0,0-.05,0h0c1-.78.39-2.9-.68-2.9a1.33,1.33,0,0,0-1,.55l.57,3.5c-1,.42-.92,1.75-2.87,2-.13.18-.07.24.12.24.39,0,1.32-.26,2.1-.26a1.6,1.6,0,0,1,.91.21c1.22.9,1.17,1.06.58,1.06h-.14c-1.76.35,0,1.53,0,2.84l-18.26.64v-2.16l1.71-1.69-4.17-4.75-.41-29.24,1.65-.21-.45-5.78,1.77-.27,0-.49-4.87-13.36-14.05.7c-3.95-3-9-6.42-15.36-8l-4.95.43c-11.94-3.8-24-4.9-37.6-5.26-11.86-1.72-25-1.63-35.38-2.25l-.27-1.36-34.39.9-2.57.55-39.06.64L412.8,89l-22,1.6.53-1.19,22.44-2.85L416.12,88l37.69-.61,1.91-.92,36.44.17.4,1.46c12.31.33,24,1.19,37.05,1.79,11,1.23,23.46,2.65,34.63,6.54l4.3-1c5.3,1.63,11.08,3.64,15.08,8l14.74-.27,4.53,12.92,1.9-.59-4.72-16.59L601,97l-1.82.57-.77-3.12c.56-.61-.07-1.46-.28-2l-2.17.78c-.11-1.22,1.62-2.87.05-2.87l-.32,0c-.47-.52.15-1.61-.13-1.61-.1,0-.32.15-.75.51.16-1.27-.21-1.4-.41-1.4h-.11s0,0,.07-.07l-2-2.29c0,1.38.53,2.06,0,3.13s.93,1.38,1,2.25c.17.61-.85,2.06.28,3.64l-4.27,1.19L581.19,95l-4.48-3.76c1.32-1.51-1.17-2.19-1.27-2.35-.84-2.11,1.61-1.89-.31-2.58.81-2.51,1-4.32.22-4.32a1.34,1.34,0,0,0-.74.33c-.9.41-1.07,2.33-1.53,2.33a.27.27,0,0,1-.13,0,5,5,0,0,0-.6-1.29c-.13,0,.26,1.66-.19,1.66h0c-.45.84-.22,1.51,1.15,2.39l-.77,1.88-3.89-2.16-.06-1.47c-.85-.27-1.33-.14-1.6-.92-.46-.57.07-.79.59-1.82,1.05-.88,1.77-1.53,1.06-1.53a7.24,7.24,0,0,0-1.68.36,1.9,1.9,0,0,0-1.77-2.58c-.69,0-1.25.49-1.06,1.71a2.84,2.84,0,0,0-2.18-1.08c-1.32,0-2.1,1-.25,1.21,1.6.35,1.27,1.77,2.09,2.79a2.78,2.78,0,0,0-1.14.23c.67.73.5,1.13,0,2.63l-16-2.33V83.2l1-1.23-4.85-4.37.12-11.95h-6v.94l-3.67,1.26.65-2.68-2.34-.09-.72-2.76L529.7,62l-.7-1.1-1.58-.6.47-4.54-2.26,1.83-1.58-11.42.84-.1h-7.61l.59.22L517,53.93a6,6,0,0,1-.94.07c-2.7,0-5-1.64-5.43-3.59-.23-.48-.41-.66-.54-.66-.42,0-.49,1.78-1.2,1.78h0a2,2,0,0,1-1.67.66,7.18,7.18,0,0,1-2.86-.74,1.76,1.76,0,0,0-1.25-.48c-.32,0-.64.06-.95.06-.75,0-1.46-.35-2.19-2.76a.64.64,0,0,0-.39-.14c-.69,0-1.2,1.37-2.94,1.37a5.42,5.42,0,0,1-2.3-.61c-.84-.8-3.29-.3-3.21-1.73-.32-.68-.35-1.23-.71-1.23a1.63,1.63,0,0,0-.85.46,6.64,6.64,0,0,1-3.29.94c-3.12,0-5.2-2.61-6.87-2.61a1.47,1.47,0,0,0-.67.16,4.67,4.67,0,0,1-2.49.82c-2.93,0-4.38-3.87-6.51-4.63a10.4,10.4,0,0,1-4.44,1.18c-3,0-4.37-2-6.78-2a5.55,5.55,0,0,0-2.26.53l-1.9-2.25c1.26-2.22-.92-5.08,4.72-5.08.43,0,.9,0,1.42,0-2.17-2.9-4.22-4-5.8-4a2.89,2.89,0,0,0-1.55.42c-2-2.77-3.21-3.74-3.94-3.74-1.65,0-1,4.91-2.14,5-.52-.68-1-1-1.37-1-1.76,0-2.31,5.49-2.4,6,0,.23.17.28.47.28l.74,0a1.56,1.56,0,0,1,1.77,1.64L443.57,41l-3.92-.6-.28-2.58c.17-.64.95-3,.28-4.58l1.4-.87c-.37-.4-.56-.66-.84-.66a1.22,1.22,0,0,0-.66.3C435,21.36,429.64,18.81,424.1,18a3.24,3.24,0,0,1-1.51,2.15H421c-.84-.56-.77-1.33-1.92-1.73-5.89,1.36-12.54,4.66-14.06,13.87h0c-.38,0-1.35.89-2,.89H403l1.45,1.5a7.87,7.87,0,0,0,1.94,4.42l-3.88,3.34-9,2.42-3.85-3V34.52a6.33,6.33,0,0,0-1-.09c-1.59,0-1.45,1-2.63,1.22-1.43.62-2.23,1-2.58,2.3l-12.25-8-1.15-8c-1.78.07-2.6,4.19-4.47,4.19-.79,0-1.78-.75-3.11-2.86-1-1-1.64-1.4-2.05-1.4-1.44,0-.13,4.77-1.64,5.55l-3.57-2.45c1.15-4.21-1.63-4.78-3.48-7.23l-.09,1.75-1-.54c-.71-1.82.18-4.1-1-5.22l-1.26,1.89-1.71-1.89c2.29-2,2.41-3.8-.06-7V5.06c.63-1.63,1.41-2.44,2.81-2.44a5.12,5.12,0,0,1,1.15.15c-1.85-1.5-3.78-.79-4.73-2.64L346.37,4c-1.66-2.87-3.76-4-5.8-4Zm-4,10.5c-3.18-2.71-.67-5.37-.12-6.22a4.21,4.21,0,0,1,3.13-1.87c1.28,0,2.94.79,5.07,3.28-.25.12-.42.84-1,.84a1.44,1.44,0,0,1-.71-.24h-.07c-1.42,0-1.94-3.15-3-3.15a.88.88,0,0,0-.59.28l-.56,2.44-.85,0c-2,.67,2.12,1.26,2.55,2.06-2.74.59-1.27,2.28-3.8,2.62ZM303.09,39.27l1.06-1.85,40.48-6.62-.81,2.71-40.73,5.76Zm81.71,17.6-.68-6.61-12.8-8.39v-.71L385.64,49v9.08L371.4,50.45v-1l13.4,7.46ZM347.55,41.81,346,43.46l-39.13,5.69-.56,7,39.49-5.64-1.59,1.7-39.79,5.69.69-10,42.45-6.15ZM506.64,75.27,501.91,74C487,59.11,474.32,48.28,447.19,43.18c27.16,3.14,44.69,17.7,59.45,32.09ZM344,75.18l-.6-3.78,15.17-1.54L365,71.49l4.64.13,21.2,9.43.18,2.36-21-9.14-5.39.47-5.31-2.4L344,75.18ZM313.77,138.7l-6.25-.11-.09-41.51c.2-11.55,8.82-18.73,18.64-19.66a26.73,26.73,0,0,1,3.1-.19,17.71,17.71,0,0,1,7.32,1.41,23.1,23.1,0,0,0-4-.35c-11.95,0-20.46,9.43-19.5,16.52l.78,43.89Zm41.84-6.16-.17-52.86c-.07-1,1.29-1.5,2.71-1.5s2.88.5,3.13,1.54l.65,52.82Zm-9.76-.23-.16-51.65c-.07-.82,1.37-1.26,2.7-1.26s2.4.38,2.16,1.18l.59,51.73ZM461.9,84V80.18l1.59-.34v4L461.9,84Zm1.78-.28V80.33l1.56-.37v3.72l-1.56,0Zm3.38,0h-1.6V80.45l1.6-.36v3.58Zm-16.87.71V81.07l.85-1v3.68l-.85.59Zm-9-.14V80.12h.85v4l-.85.11Zm13.43,0v-4.1l.88.3v3.7l-.88.1Zm20.3.43-.55-.64V80.16l.55.7v3.83Zm-21.67-1-.88-.24V80.24l.88,0v3.45Zm15.6.15-1.68-.16V80.6l1.68-.35v3.62Zm-19,0-.9-.4V80.29l.9.63v2.92Zm-6.46.83V80.29l.87.06v3.73l-.87.59Zm32.74-.47V80.3l.55.7v2.87l-.55.33Zm-5.54.07L469,84V80.8l1.61-.41v3.88Zm7.33.29V80.45l.54.68v3.22l-.54.21Zm-70.41.32-.87-.43v-4l.87,1v3.45Zm38.08-.29V80.48l.85,0V84l-.85.58Zm-9.17-.22-.86-.51V80.53l.86,0v3.82Zm34.36.13V80.92l1.58-.38v3.27l-1.58.69Zm8.9-.36V80.57l.58.71V84l-.58.11Zm-23.93.19V80.61l.83.09v3.24l-.83.39Zm-9,.18V80.63l.86.12V83.9l-.86.61Zm27.43.15-1.63-.46V81.06l1.63-.4v4Zm7.85-.63-.54,0V80.72l.54.7V84Zm-43.41.23-.82-.46v-3l.82,0v3.46Zm-11.13.26v-3l.82-.73v3.33l-.82.37Zm-9,.58V80.83l.86,0v3.65l-.86.59Zm71.81.09-1.26-1V81.38l1.26-.55v4.36Zm-49.47-1-.82-.44V80.94l.82,0v3.23Zm-11.15.49V81l.83,0v3.11l-.83.59Zm-8.14-.25L419.67,84V81l1.91,0v3.38Zm70.73.74-.18-.14V81.68l.18-.68v4.17Zm-4.2-.67v-3l.19-.44v3.32l-.19.13Zm-1,.4V81.11l.19-.06v3.74l-.19.11Zm4.19.19-.17,0v-4l.17.38v3.62Zm-89.35,1-.88-.8V81.66l.88-.57v5Zm91.15-.91V81.1l.2.28v3l-.2.8Zm-61.39-.49-.83-.11V81.19l.83,0v3.5Zm-27.25.73V81.19l1.93.52v3.51l-1.93.24ZM421.89,85V81.24l.88.26v2.88l-.88.59Zm-8.09-.25-.87-.44V81.4l.87-.08v3.4Zm84.28.87V82.21l1.24-.87v3.75l-1.24.5Zm-99.15.74v-5l.8.48v4.25l-.8.25Zm34.2-1.78V81.36l.83,0V84l-.83.59Zm67.18.83-.19-.8V81.36l.19,1.24v2.78Zm-97,0V82l.83-.56v3.78l-.83.2Zm20.84-.5V81.42l.87,0v2.87l-.87.54Zm-10.05.36V81.48l1.91,0v3.13l-1.91.59Zm81.25-.42-1.26-.27V81.49l1.26.21v3.11Zm-97.6,1.45v-4.2l.81-.55V86l-.81.22Zm28.62-1.43V81.6l.81,0v2.6l-.81.61Zm74.93.73-.2-.75V81.6l.2.2v3.76Zm-85-.41V81.64h.88v2.93l-.88.59Zm81,0-.19-.45V81.65l.19.53v3Zm-101.8,1.56v-5l.87.53v4.42l-.87,0Zm100.64-1.65V81.77l.22.18v2.42l-.22.71Zm8.54.71V82.57l.19-.73v3.49l-.19.46ZM395.19,87l-1.89-.8V82h1.89v5Zm110.65-1.19-.19-.08V82l.19.41v3.36Zm2-3.37.95-.39v3.38l-1.22.72V85l-1,.22V82.72l1.28-.58v.28Zm-5.25,2.66v-3l1.22.28V85l-1.22.12Zm-110.48,2.1v-5l.8.48v4.25l-.8.24Zm118.49-1.06V82.71l.19-.25V86l-.19.16Zm-.82-.05-.17-.44V82.47l.17.72v2.88Zm6.82.45-1-.9V83.27l1.24-.67v.8l1,.14V86.8l-1-.17v.12l-.17-.15h-.08v-.07Zm-2.78-.13-.23-.83V82.89l.23,0v3.46Zm.8-.42v-3l.17.19v2.8l-.17.06Zm-1.79.07-1.24-.7V83.17l1.24-.07V86Zm8.36-2.57.73-.34v3.72l-.73-.15v.22l-1.17,0V86.1l-.7,0V83.42l1.12.31.75-.37v.11Zm4.22,3.89-.18-.4V83.42l.18,1.08v2.86Zm-2.08-.29-.21-.19V83.69l.21-.24v3.62Zm-.74-.19-.14-.1V83.55h.14v3.32Zm2.11-.1-.16-.31V83.61l.16,0v3.22ZM373.86,85.59a6.74,6.74,0,0,1,4.1-1.92c6.66,0,8.28,19.51,7.22,54.6l-5.79-1.13c.27-23.84,3.06-51.56-5.22-51.56Zm152.85-1v-.9l1.14.31v3.32h-1.14v-.09l-.73.38V84.47l.73.13ZM524,87.39l-.2-.3v-3l.2-.19v3.5Zm5.16.4-.09-.63V84l.09.57v3.2Zm-.78-.63V84.25l.12.46v2l-.12.44Zm1.87.63-.09-.73V84.85l.09-.18v3.12ZM295,136.87l-.17-50.77c-.06-.83,1.22-1.37,2.6-1.37s3,.59,3.32,2l.58,50.1ZM530.87,87.4V84.75l.17.56v1.9l-.17.19Zm3.29-.14H534V85.43l.2-.62v2.45Zm1.4,1.15-.13-.16V85l.13.75v2.7Zm-.71-.12-.15-.15V85l.15.6v2.65Zm-3.3-.43V85.08l.16.12v2.58l-.16.08Zm1.75-.35V85.09l.15.31v2l-.15.07Zm2.79,1V85.21l.14.91v1.57l-.14.81Zm-250.19,49,.76-51.41c-.06-.62.56-.87,1.39-.87,1.43,0,3.49.75,3.85,1.65l.32,50.63ZM543.54,89.17V86.38l1-.89v3.36l-1,.33.21,0-.76.57V86.48l0-.16v2.8l.49,0Zm-5.89-.43-.18-.44V85.65l.18.2v2.89Zm-.87.09v-3h.14v2.34l-.14.69Zm2.61-.33-.13-.55v-2l.13.35V88.5Zm.55.31V86.45l.18-.49v2.41l-.18.44Zm5.12.58v-3l.05.21v2.58l-.05.21Zm.49.41v0Zm.52-.47V86.51l1,.16v2.61l-1,0Zm1.56.73h0V86.57l0,.16v3.33Zm.46,0V86.79l0-.16V90l0,.05Zm1,0-.49-.08V86.64l.49.1v0l1,.21v3.54l-1,.15v-.54Zm1.54.43,0-.62V88l0-1.24v3.73Zm.49,0,0-.52V87.87l0-.87v3.53Zm2.2.48,0-.72V88.2l0-.89V91Zm-1.67-.28v-2.8l1,.19v2.17l-1,.44Zm2.7.09V88.27l1-.17v2.59l-1,.13Zm-.51.45v0Zm2,.06v-3l0,.18v2.8l0,0Zm.51-.24,0-.06V88.39l0,.15v2.55Zm1.53,1-1-1V88.45l.49.07v0l1,.18v2.62h-.48v.84Zm1-.44,0-.41V88.52l0,.2v3Zm1.52.59-1-.47V88.57l1,.19v.47l.48-.41v3.29l-.48-.06v.23Zm1.49.2v0Zm6.15-2.68v-.46l.7.88v2.12l-.16-.09v.19l-.67-.31V89.74l.13.06Zm1.22,2.92V89.66l.62.21v.23l.19.15V93.4l-.69-.68Zm-7.88-.37V89.72l0,.21V92l0,.31Zm10,1.59-.65-.75v-2l.65-.69v3.49Zm-1.17-.8V90.53l.32,0v2.37l-.32.22Zm1.35.52V91.18l.39.28v2l-.39.18Zm.6-2.12V91.4l.26.19.32.07v.18l.14.1v2.77l-.49-.73-.38-.36V91.51l.15,0Zm1.24,2.88V92.07l.64,0v.88l.18.12v1.58l-.69.28v-.62l-.13.13Zm.93.66V92.89l.41.16v2l-.41,0ZM576,93.77l.43-.23V94l.16.08v1.44l-.16.06v.12l-.11-.08-.41.15v-.44l-.16-.12V93.91l.16-.09v-.09l.09,0Zm.71,2.11V94.71l.38-1v2.14Zm1.2.81-.69-.23V95.09l.69-.46v2.06Zm.14.27V95.1l.34-.39V96.5l-.34.46Zm.7-.91V96a.19.19,0,0,1,.13-.06c.13,0,.24.18.32.29l0,0v0s.05,0,.07,0l0,0v1.39l-.6-.83-.23.11V96l.21.06Zm1.34,1.23-.22-.32v-.89a2.3,2.3,0,0,1,.75.55V97a.92.92,0,0,0,.09-.23v1l-.09,0v.32l-.28-.4-.25-.08v-.29Zm.81.49a1.05,1.05,0,0,1,.35-.24v.85l-.35-.61,0,0V98s0,0,0,0-.1-.11,0-.27v-.08l0,0Zm.6.7.6-.48c0,.47-.07.61-.22.61a1.07,1.07,0,0,1-.38-.13l-.09.07v-.11l.09,0Zm-121.88,44-.18-40.13c-.2-.84.66-1.29,1.59-1.29s2.15.56,2,1.77l.32,39.65Zm22.16.67L481.65,103c-.22-1.13.8-1.57,1.81-1.57s1.94.4,1.8,1l.3,40.68Zm-9.41-33.49c-2.64,0-4.05-1.73-4.05-4.55,0-1.71,1.41-3.43,4.05-3.43,1.59,0,4.09,1.72,4.09,3.43a4.59,4.59,0,0,1-4.09,4.55Zm-70.81.06c-2.64,0-5.13-1.72-5.13-3.49,0-2.77,2.49-4.48,5.13-4.48a4.57,4.57,0,0,1,4.09,4.48c0,1.77-2.52,3.49-4.09,3.49Zm114.33,33.66-.18-40.1c-.19-.84.68-1.3,1.61-1.3s2.13.56,2,1.77l.3,39.63Zm-67,.12-.17-40.13c-.21-.8.65-1.24,1.58-1.24s2.16.55,2,1.74l.28,39.63Zm-32.72.29-.22-40.4a3.19,3.19,0,0,1,4.66-.28l.3,40.68Zm7.95-31.48a10.26,10.26,0,0,1,3.36-7.65,10.56,10.56,0,0,1,6.58-2.4,17.43,17.43,0,0,1,8.63,2.4,14.64,14.64,0,0,1,2.3,7.65h-1.53c0-2-.8-3.74-3.05-5.77-1-1.91-3.11-2.73-6.35-2.73a5.72,5.72,0,0,0-5.32,2.73c-2.2,2-3.12,3.81-3.12,5.77Zm64,31.36,0-40.52c-.2-.45.59-.7,1.43-.7s1.94.32,1.67,1.06l.86,40.16Zm6.45-27v-2.1l3-1.37-2.19-.31c-.13-4.82,1.46-7.17,4.93-8,3.3,1.93,5.06,4.47,5.71,9.1l-1,.5,1.27,1.58-.48,1.69-.7-.28.7,2.69v18.11l-11.19-.5.18-18.29,1.54-1.47.26-1.37ZM538.78,146l-.92-39.24a2.2,2.2,0,0,1,2.1-1.12,2,2,0,0,1,2.12,1.37l.4,39ZM435.17,113.17v-7.39a5.82,5.82,0,0,1,1.06-.1c2.84,0,3.93,2.48,3.92,7.49Zm-5.76.3c0-5.64,1.43-7,5-7.39v7.39Zm92.09.53c0-3.16,1.51-6.17,2.92-7,2,1.51,4.21,2.92,4.89,8.27l-1.81-.38,1.39,1.4,0,2.7-1-.24,1,2.64v17.12l-7-.59-.27-18.2,1.06-.43.54-1.67H521v-1.79l2.39-2.42-1.9.55ZM557,146.73l.89-37.15c-.23-.56.37-.88,1-.88s1.74.46,1.49,1.53l1,36.5Zm-13.71-31.32a5.4,5.4,0,0,1,2.7-5.07c1.59,1.31,1.69,2.65,2.33,6l-1.83-.38L548,117.4l-.05,1.65-.95.78.95,2.22v16.88l-4.86.36.85-18.21,1-.42-.53-2.42h-1.06v-1.19l1.86-1.74-1.88.1Zm-399,8.28V112.85l5.84-.42v11.11l-5.84.15Zm-20.18,1.74v-9.88l4.87-1.4v11l-4.87.25Zm342.32-6.07a4.76,4.76,0,0,1,4.9-4.91c2.77,0,3.77,2,4.9,4.91Zm-361.95,8.36V117.3l4.95-.52v10.58l-4.95.36Zm81.59-2.24-1-.52.29-.44-4.41-1-.15-6.48,5.24,1.52v7Zm248-7.71.28,0,.31,0c2,.2,3.51,1.53,5.64,1.53a5.36,5.36,0,0,0,1.61-.25L440.08,121l-1.74.53c-1.64-2.49-3-3.75-4.25-3.75a4.58,4.58,0,0,0-.74.13c-.91.35-1.82,1.35-2.83,3l-1.11.13-1.7-2a3.39,3.39,0,0,0,1.5.36c1.52,0,2.72-1.1,4.14-1.51a2.08,2.08,0,0,1,.73-.13Zm9,20.1V118h2.37v19.92Zm-20.27,0V118h2.39v19.92Zm-325-9.2-5.28-.41v-9.89l5.28,0v10.25Zm336.78-7c-1.39,0-1.29-.6-1.29-1.26s-.1-1.26,1.29-1.26,2.41.58,2.41,1.26-1,1.26-2.41,1.26Zm32.05,4.64v-5.48H476v5.48ZM58.88,131v-9.18l3.95-.46V127l-3.95,4Zm337.62-6c.28-2.27,1.88-3.54,4.49-3.54,1.53,0,2.16,1.27,3.46,3.54Zm-180.8,2.24c-.73,0-2.13-1.21-2.13-3.26a2.79,2.79,0,0,1,2.13-2.19,1.94,1.94,0,0,1,2.15,2.19c0,2-.35,3.26-2.15,3.26ZM51,133.37V123l4-.47V133l-4,.39Zm383.68,4.5V123.51h6v14.36Zm-6,.49V124.09h4.35v14.27Zm-394-3.45V124.78l4-.52v10.32l-4,.33Zm-16.2,1.88V126.31l4-.51v10.61l-4,.38Zm378.65-6.45v-4.27h6.11v4.27Zm69.47,5.87v-9.53h4.05v9.53Zm5,.25v-9.53H476v9.53ZM3.82,138.19v-11l4,.16v10.49l-3.95.32Zm393.35-.53v-7.2h2.6v7.2Zm3.84.63v-7h2.27v7ZM442.09,146v-7.39h4.17V146Zm-20.23,0v-7.39H426V146Zm-82.63-.81v-6.48h1.29v6.48Zm-2.22,0v-6.48h1.22v6.48Zm-2.31.05v-6.49h1.22v6.49Zm-2.27,0v-6.49h1.29v6.49Zm-2.22,0v-6.49h1.24v6.49Zm-2.28,0v-6.49h1.28v6.49Zm207-.31.39-5.33,1.08-.24-.4,5.45-1.07.12Zm-57.21-1.06v-4.45h2.19v4.45Zm-3.31,0v-4.45h2.14v4.45Zm-3.39,0v-4.45h2.21v4.45Zm-3.29,0v-4.45h2.14v4.45Zm-2.31,0v-4.45h1.11v4.45Zm66.48,1.35.39-5.5,1.09-.18L534,145l-2.12.26Zm-2,.07-.61-5.42,2.08-.27-.41,5.48-1.06.21Zm-19.51-.18v-5.5h1.05v5.5Zm-3.38,0v-5.5h2.19v5.5Zm-3.32,0v-5.5h2.14v5.5Zm-3.39,0v-5.5h2.19v5.5Zm-3.29,0v-5.5h2.18v5.5ZM440,144.49V139.7h1.11v4.79Zm-3.32,0V139.7h2.16v4.79Zm-3.36,0V139.7h2.16v4.79Zm-3.37,0V139.7h2.15v4.79Zm-2.29,0V139.7h1.14v4.79Zm99.13.95.4-5.42,1.07-.29-.41,5.5-1.06.21Zm-202.16.86v-6.48h1.23v6.48Zm-2.25,0v-6.48h1.28v6.48Zm-2.24,0v-6.49h1.24v6.49Zm-2.28,0v-6.49h1.23v6.49Zm-3.34-6.44h2.34v6.49h-4.55v-6.49Zm211.37,5.5-2.11-.84.39-4.46,2.07-.17-.35,5.47Zm-215.85,1v-5.43h1.3v5.43Zm-2.25,0v-5.43h1.26v5.43Zm246.9-5.42h2v4.45h-8.3v-4.45h6.29Zm-8.31,4.45v-4.45h1.19v4.45ZM144.41,159V145l4.82-.83V158.8l-4.82.15Zm67.09,1.4V146.24a2,2,0,0,1,2.2-1.87,2.58,2.58,0,0,1,2.73,2.37v12.59l-4.93,1ZM187,160l-6.39-.7L180.48,145l6.53-.54V160Zm-62.2,0V146l3.8-.83V159.8l-3.8.15Zm-20,1V147.72l4.1-.25v13.26l-4.1.22ZM94,161.83v-13.6l4.9-.4v12.95L94,161.83Zm-13.82.71-4.46-.23V149.47l4.46-.37v13.44Zm-21.3.25V150.7l3.95-.33v12l-3.95.45Zm-7.87,1V151.25l4,.71v11.36l-4,.42ZM38.69,165l-4-.56V153.05l4-.35V165Zm279.06-2.52,3.95-3.75c-.42-3.88,1.72-6,4-6s4.7,2.06,5.06,6.56l3.38,2.58-5.74-.79c-.29.83-1.64,1.14-3,1.14a5.7,5.7,0,0,1-2.7-.54l-5,.82ZM18.52,166.24V154.7l4-.34v11.43l-4,.45Zm-14.7.6V156l4-.33v10.69l-3.95.45ZM498.54,205.4l-.13-47.71,6.5.09.88,47.34-7.25.28Zm26.95-3.14-1.11-43.85,4.51.09.43,42.57-3.83,1.19Zm24.43-2.94-1.81,0L547,159.4l2.27.09.65,39.83Zm-106.29,2.21-.16-41.16a2.24,2.24,0,0,1,2-.86,2.8,2.8,0,0,1,2.61,1.34l.3,40.68ZM423,200.21h.46l.09-39.08c-.26-1,1-1.41,2.05-1.41.85,0,1.62.28,1.49.82l.5,39.67h2.84v-3s0,0-.06,0-.27,0-.44,0-.44-.08-.44-.42c-.35-.24-.26-.55-.14-.55s.06,0,.09.07c-.18-1.14.13-.72.5-1.18-.16-.47.35-.24.48-.43a5.12,5.12,0,0,0,1,.11c.82,0,1.37-.22,1.84-.22a1.09,1.09,0,0,1,.53.13c-.32,1.6-.73,2.11-1.05,3.84.69.53.3,1.17,1,1.79l-.12,0c-.35,0-.51.75-.5.75h0a13.71,13.71,0,0,0,1.63-.22c.07,0,.11,0,.11.06,1.78.59,3.86,1.44,4,3.87.64.74.63,1.63,1.56,1.63h.13a5.17,5.17,0,0,0,1.66.31,4.09,4.09,0,0,0,1.6-.33c1.09.15,2.09,0,3,.54H447c.28,0,.57.4,1,.4a1,1,0,0,0,.51-.17c.06.43.32,1.06.06,1.06a.45.45,0,0,1-.22-.08,4.34,4.34,0,0,0,1.26.61h.05a.94.94,0,0,0,0-.22c.06.12.07.19,0,.22,0,.57-.31.2-.12.94-.31.31.52,1.61.26,1.92.05.41.11.78.19,1.21.4.41,0,.27-.66.72.14.07-.1.66,0,.69a3.92,3.92,0,0,0,.42,3.26.78.78,0,0,0,.57.33c.29,0,.58-.24.87-.65a1.91,1.91,0,0,0,1.05.31,2.16,2.16,0,0,0,2.11-1.52c1.67-.62,1.62-2.82,1.51-4-.82-.45-1.51-.74-1.19-1.13a1.87,1.87,0,0,1-.17-.61,9.56,9.56,0,0,1-.24-2.3c0-.33.55-1.4.35-1.4h0c.73-.21.85-.77,1.4-1.09a1.64,1.64,0,0,0-.22.14c-.37-1.13,0-1.55,2.16-2.24a5.66,5.66,0,0,1,3.17-2.52c1.68-.6,2.43-.72,3.09-1-.21-.83.52-1.07,1-1.27h-.08c-.17,0,.53-.41.6-.61.38-.68.65-.19.14-1.36.13.13.22.18.29.18s.21-.36.29-.36,0,0,.07.07c.73-.54.74-.72,1.41-1.15a.53.53,0,0,1,.27,0,1.34,1.34,0,0,1,1,.42h.16c.48,0,1,.3,1,.71.66-.08,2.38,0,3.1-.08.33,0,.69,0,1,0h1c.7-.24,1-.5,1.14-.5s.12.08.16.3c.42-.15.11-.71,1.25-.76-.3-.19,1.49-.21,2.31-.53.62.29,1.31-.07.92.52a.84.84,0,0,1,.62-.35c.52,0,.85.7.34.94l.3-.13s-.27.17-.58.39a1.19,1.19,0,0,0,.52.11c.43,0,.87-.16,1.28-.16a.89.89,0,0,1,.63.22c-1.25.94-2.42,1.89-3.61,2.86a3.2,3.2,0,0,0,.64.05c1.5,0,3.62-.69,4.3-.69h.1c.42,1.11.18,1-.76,1.23-.29,0-.75.14-1.53.18,0,.06-.66.6-.71,1.28v0h0c-.05,0-.37.54-.88.63,1.26.2,3.2.51,3.2,2.05a4.22,4.22,0,0,0-1-.12c-1.33,0-2.29.7-3.11.79-1.77.18-2.82.28-4.3.54h0c-1,0-1.58.48-2.09.48a.68.68,0,0,1-.54-.27c.22-.34-.16-.39-.41-.39h-.18c0,.6-.56,1.9-.23,2.89-.85.71-1,1.42-.83,1.42h0c-1.18.77-1.79.94-2.21,1.74a2.7,2.7,0,0,0,.6.07c1.09,0,1.62-.74,2.57-.74l.27,0c.15,0,.36-.09.54-.09s.35.09.39.47a0,0,0,0,0,0,0c-.15,0-.37.46-.63.76-.85.82-2.87.8-3.89,1.88h.06c.58,0,.26.42.34.42s.06,0,.13-.08a1.27,1.27,0,0,0,.69.19c.49,0,.91-.23.91-.37.74.48.93.24,1.94.46a1.09,1.09,0,0,1,.58-.15,3,3,0,0,1,1.9.9,8.59,8.59,0,0,1,4.83,2.85c6.66,6.37,4,18.15-4.5,20.54a18.56,18.56,0,0,1-2.86.22c-3.69,0-7.07-1.16-9.2-3.8-1.08-.71-1-1.06-1.63-1.83.08-.41-.22-.52-.61-.52a11.07,11.07,0,0,0-1.13.14,19.75,19.75,0,0,1-2.94-1c-.12-.26-.53-.91-.82-.91a.18.18,0,0,0-.17.11.79.79,0,0,0-.38-.16c-.13,0-.21.1-.46.1a1.52,1.52,0,0,1-.38,0c-.38-.12-.19-.24-.37-.24a.66.66,0,0,0-.17,0,1.14,1.14,0,0,1-.91.4,2.48,2.48,0,0,1-1.73-.82c-.15-.07.65-.27,1.71-.27-.56-1.67-1.77-2.93-1.55-4.29-.13-1-.31-3-.37-4.09a3.76,3.76,0,0,1-1,.13c-.76,0-1.54-.18-2.3-.18a3.78,3.78,0,0,0-.67,0,4.66,4.66,0,0,1-1.27.4,2.15,2.15,0,0,1-1.21-.59c-.18.11-.24.16-.28.16a3.46,3.46,0,0,0-.79-.51c-1.62-1.79-2.14-3.94-5-4.11a13.76,13.76,0,0,0-5.51-1.17,14.31,14.31,0,0,0-1.8.12h-.19c-1.74,0-4.24.89-5.93,1.38a20.32,20.32,0,0,0,2.5,3.17c0,.73-.12,1,.42,1.07a1.76,1.76,0,0,0,1.67,1.21c-.27,1,.31,1.82.19,2.54a1.59,1.59,0,0,1,1-.38,3.13,3.13,0,0,1,1.5.5,4.73,4.73,0,0,1,2.63-.58l.52,0c2.85-.24,5.55-.08,9.3-.3.73-.37,2.61,0,3.32-.46a2,2,0,0,0,1.29.46h.37a2.37,2.37,0,0,1,1.09.25c-.5,0-.15.68,0,.85H453s0,0,0,0,0,0-.07,0h-3.26c-4.8,0-9.65,0-14.68,0h-2.65c.55.61.33,1.74,1.11,2.43.67,4.71-1.5,8.85-5.59,10.42a8.45,8.45,0,0,1-5.38,1.94,10.59,10.59,0,0,1-6.42-2.37c-3.74-2.78-4.86-7.6-4.25-12.22.18-.57.87-1.22.44-1.66A3,3,0,0,1,413,221a24.13,24.13,0,0,0-4.38-.89c-3-1.27-6-2.47-9-2.63a1.6,1.6,0,0,1,.41,2.27c1,.06.95.95,1,2.45a60.82,60.82,0,0,0,3.52,6.5l-.08,0c-.19,0,.81,1.16.63,1.21-1.35.29-.66.72-.71.72l-.05,0c-.35,1.27.14,1.47.27,2.35a1.34,1.34,0,0,1,.45.52l0,0a.49.49,0,0,0,0,.14v0l0-.1c-.58,1.2-.48.75-.48,1.19,0,1.16-.4.38-.88,1.24h-.27a3.6,3.6,0,0,1-2.32-.87c.09-.29.65-.54,1.22-1.34a1,1,0,0,1-.26.06c-.16,0-.07-.2-.42-.44a1,1,0,0,1,.41-.16.12.12,0,0,1,.09,0c.07-.47.17-.79-.08-1.09.55-.57-.13-1.16-.11-2-.15-1.65-.69-2.14-.72-4.11-1.31-1-1.28-1.47-1.92-3.21a6.46,6.46,0,0,1-2.53-3.16c-1.11-.58-1.75-1.2-2.45-1.59-1.2-1.55-1.8-2.58-3.18-2.66.07-.95-.31-.87-.79-1.56,0,0-.09,0-.22,0a3.77,3.77,0,0,1-1.33-.2c-1.31,1.83-1.24,3.71-1,5.77-.35,1.29.05,2-.2,2a.58.58,0,0,1-.17,0c.25,1,.36,1.95.07,2.29-1.15,1.37-1.08,2.55-2.36,3.28-.22,1.58-1,2.84-1.09,3.59-.23.42-.43,2.71-1.31,2.71h-.11c0,.44-2.26.3-2.36.87s-.21.42-.64.69c.69.47.87,1,0,1.1.73-.54-.43-.05-1.37-.54.13.52-.19.67-.66.67a4.89,4.89,0,0,1-.82-.09c0-1,.58-1.56,1.51-2.49a3.28,3.28,0,0,0,2.06-.95,23.55,23.55,0,0,1,2.93-4.21c-.29-.91.67-2.5.67-2.77a5.55,5.55,0,0,0-.94-2.38c.26-1.15-.05-2.17,0-3.79-.35-.05-.24-.29-.53-.73l-1.14-.15a31.88,31.88,0,0,1-.22-6,.45.45,0,0,0-.17-.05c-.27,0-.13.57-.34.87-1.64.34-2.57.11-3.32,1l-.07,4-1,.07.35-4.07c-.56.44-1.28.05-2.22.5-2.45-.3-3.83,0-6.74-.28.48.11.37,5.39.84,5.92s.32,1,.6,1.88h-.05c-.65,0-.95.27-.38,1.16-.09.84,0,1.08-.19,1.08h0c1,1.11,1,2.24.85,2.33.18,1.46.28,1.74,1.18,2.21-.07.94-.61,1.62-.85,1.62a.09.09,0,0,1-.07,0c-.25,0-.84.67-.93.67s0,0,0-.07c-.49.73-.46.78-.55.78H368c.24,0,.18.84.58.87-.3.55-.47.61-.65.61h-.14c-.18,0-.4,0-.76.48-.22.28-.37.4-.58.4a5,5,0,0,1-1.31-.47,2.73,2.73,0,0,0-.76-.11h-.08a.43.43,0,0,1,0,.07c-.06,0,0-.06,0-.07a3.28,3.28,0,0,0,.58-1.47,2.42,2.42,0,0,0,.45,0c.54,0,.84-.21.61-.21l-.19,0c0-.25.41-.31,1.83-.62a8.64,8.64,0,0,0-.33-1.81c.9-1.6-.15-3.3-.39-5-.51-.76-.74-.8-.52-1.78a.27.27,0,0,0,.11.08s-.33-.43-.58-.88c-.4-1.21.05-2.33-.8-2.41.41-2.55.19-4-.38-5-1.22,0-.84.25-1.65,1.19a.53.53,0,0,0-.23,0c-.29,0-.42.28-.63.28s-.19-.05-.33-.2a24.23,24.23,0,0,1-2.17,2.54c-.4.26-.53.7-.6.7s0,0,0,0a4.45,4.45,0,0,0-.75,1.13c-.84,1.06-.79,1.38-1.21,1.38a3.41,3.41,0,0,1-.44-.06,6.41,6.41,0,0,1-.19,2c-.87.73-.62,2.33-.93,3.23a7,7,0,0,0,0,2.55,2.43,2.43,0,0,0,.25,1.12c0,.31-.42,1.11-.36,1.56-1.11.6-1.2.5-.88.52-.84.08-.9.79-.61.79h0c.09.18,0,.21-.09.21h-.19c-.1,0-.14,0,0,.22a2.35,2.35,0,0,1-1.46.74.81.81,0,0,1-.37-.08c.31-.41.2-1.42,0-1.42h0l-.06.09a.17.17,0,0,1,.06-.09c.45-.66.62-.58.56-.82l-.17-.06c-.21,0-.29-.05-.23-.05a.78.78,0,0,1,.23.05h.15s0,0,0,.06l.2.09c0-1.45-.48-1.31,0-1.39.1-.93.3-1.19.13-1.59a6.7,6.7,0,0,0,.6-2.1c.29-.51.3-1.53.64-2.1a8.51,8.51,0,0,0,.55-2.68c-.26-.85-.51-.62.2-1.4,0-.37-.35-.76-.29-.76s.07,0,.16.11c.88-.48.81-1.55.77-2.11a7.21,7.21,0,0,0,2.35-3.57c.34-.15.7-.86.47-.86s-.21.07-.41.24c.72-.62,0-1-.61-1.77-.49-.17-.74-.84-1.15-2.3a2,2,0,0,1-.61-2.44,9.93,9.93,0,0,0-3.32-1,4.28,4.28,0,0,0-2.64-1.21,2,2,0,0,0-.93-.25.77.77,0,0,0-.66.25c-.77.16-.14,1.06-.65,1.36a4.67,4.67,0,0,0-1.72,1.49c-.06.38-.43.68-.22.75-1.08.7-1,1.35-1.51,1.35h-.07c.29.57-.89,1.07-.89,1.78s-.34,1.3-1.06,1.3a2.28,2.28,0,0,1-1.26-.51.51.51,0,0,1-.17,0l-.47.14c.67-.53-.73-1.51-.79-1.57l0,0a10.38,10.38,0,0,1,.54-1.9c.43-.39.51-1.86.84-2.14,0-.86.09-2.25.09-2.25h0c0-1.06-.46-1.36-.34-1.51l-1.59.49-.5,2.18-.38,2.35-.28,15.48-1.19-.85.25-15.43,1.66-2.12-.05-1.69,2.21-1.58.21-3.94c-.39-.45-.81-1-.16-1h.1c0-.48.12-.64.17-.66l.48-20.2-.13,21a1.47,1.47,0,0,0,1.23.75,1.1,1.1,0,0,0,.47-.1c-.73,0-.42-.89-.38-1.64a1.39,1.39,0,0,1,.64-.17,1.2,1.2,0,0,1,1,.59.61.61,0,0,1,.16.44c.27.14.58.33.93.56-.26-.56-.51-.71-.65-.72a.78.78,0,0,1,0,.16c-.18,0-.16-.16,0-.16h0c0-.4,0-.76.84-1.36h.05c.49,0,0,1.08,0,1.74,1.92-.39,3.38-1.74,5.4-1.74a3.68,3.68,0,0,0,1.32-.51s0,0,0,0a.94.94,0,0,0,.8.35c.53,0,1-.26.94-.27a.26.26,0,0,1,.2-.09l.11,0c0-.13.1-.19.21-.19h.11a1,1,0,0,1,.34.19l0,0c.15-.17.25-.26.42-.26a1.12,1.12,0,0,1,.35.07h0l.13,0-.11.13c.1.08.14.13.15.18a3.06,3.06,0,0,0,.56,0,4.52,4.52,0,0,0,.69,0l-.08-.08a1.83,1.83,0,0,1-.87-.8l.87.8c.37.18.71.25.85.65a1,1,0,0,0,0-.89h-.3c0-.15,0-.21.08-.21s.15.07.22.2a.53.53,0,0,0,.36-.16l-.07,0c-.08.06-.12.08-.14.08s0-.08.13-.08h0a2,2,0,0,0,.2-.17l-.13.19a.26.26,0,0,1,.11.12c0,.27.84.59,1.32,1a4.76,4.76,0,0,1-.58-.92l0,0c1,.05.75.67,1.11.9h0c.1,0-.19-.48-.21-1a1.41,1.41,0,0,1-.28-.36h.08a.59.59,0,0,1,.23,0s0,0,0-.06v.06c.47.17.56.78,1.05.86a5.08,5.08,0,0,0,.12-.84v0c0,.36.42.95.59.95a.06.06,0,0,0,.06,0q.06.09.12.09h0c-.05-.29-.12-.44-.26-1.08a.73.73,0,0,1,.26,1.08,3.33,3.33,0,0,1,.07.49,3.4,3.4,0,0,0,.72-1.59c.07.13.14.24.2.34a.53.53,0,0,1,.53-.32h0c0,1-.34.69.05,1.26a1,1,0,0,1,.85-.68.59.59,0,0,1,.34.11c-.36,0-.21.11,0,.11s.24,0,.21-.23a16.8,16.8,0,0,0,2.77.93,1.83,1.83,0,0,0,.88.28.16.16,0,0,0,.11,0,.33.33,0,0,1-.16.17l.29-.08-.06.07c.51,0,.57.44.9.44a.79.79,0,0,0,.36-.11,1,1,0,0,0,.56.17c.31,0,.58-.13.76-.13,1.78,0,3.46-.1,5.17-.21l.27-2.91h0l.12-1.27,1.5-.34.09-1.95-.12-.41-.65-.49-1.35-.34-.68-19.1,1.18,18.8.85.64.8.2,0,.7.85,2.89-2.56.67h0l.46,2.55a17.56,17.56,0,0,1,3.63-.68,5.81,5.81,0,0,1,1.43.19c.33-.23-.4-.54-.07-.78.1-15.25.65-28.81-3.76-28.81a2.67,2.67,0,0,0-.84.15,3.1,3.1,0,0,1,2.64-1.83,3.28,3.28,0,0,1,1.19.24c4.23.2,4.35,11.24,4.47,30.32a5.63,5.63,0,0,0,.69,0h.67c.29,0,.48,0,.53.16,1.95.69,3,1.2,4.85,1.91.94.27,1.29-.1,1,.48a.65.65,0,0,0,.31.13c.19,0,.14-.26,0-.51l-.06-.08a.21.21,0,0,1,.06.08c.51.64.6-.06,1.13.74a4,4,0,0,1,1.16-.37,2.71,2.71,0,0,1,1,.26l-.87-.07,1.07.67-.33.06a.39.39,0,0,0,.34.21,9.83,9.83,0,0,1,1.65-.33c-.71,1.1.36,1.53.54,1.84-.33.15,1.1,1.3,1.84,1.8l-.76-.43c.45.43.35,1,.16,1a.14.14,0,0,1-.1-.06c.41,1,.66,1.73,1,1.73a.48.48,0,0,0,.3-.13c-.15,1.57.92,2.47.95,3.49,1.44,1.7,2.12,2.71,3.33,3.45.8,2.45,3.24,3.49,5.83,5H412a2.93,2.93,0,0,1-1.46-.49l.37.64a1.19,1.19,0,0,1,.73.74h0v0a1.61,1.61,0,0,1,.06.33l.21,0c.13,0,.24,0,.23.22l.1,0c0,.4-.62.39-.8.43l.1.12c-.17-.07-.17-.1-.1-.12a.18.18,0,0,0-.1-.06,0,0,0,0,0,0,0,2.32,2.32,0,0,1,.56.57c.47.22.22-.08.2.34-.36-.33-.43-.42-.39-.42l.19.08c-.42-.24-.56-.47-.56-.57a.46.46,0,0,0-.23-.06.74.74,0,0,0-.24,0s0,0-.08,0l.08,0a.18.18,0,0,0-.11,0c-.07,0-.07.08.43.37l-.95-.34a2.39,2.39,0,0,1-.57.07,2.51,2.51,0,0,1-1.18-.32,3.35,3.35,0,0,1-1.24-.65l-.21-.09c1.09,1.3,3.74.91,5.75,3.26,1.62-1.87,2.39-3.9,4.89-4.94-2.38-.34-3.67-1.31-5.05-1.44-.93-.11-.67-2-1.09-2h-.06V201.53c0-.41.07-.95.35-.95h.09a4.4,4.4,0,0,0,1.34-.28v8.84c0,.82,0,2-.52,2a2.24,2.24,0,0,0,.51.1c.22,0,.13-.14.25-.14a.77.77,0,0,1,.27.08,14.9,14.9,0,0,0,4.44,2.14,1.3,1.3,0,0,1,.63-.15H419c.25,0,.4-.07.52-.76h.05c.56,0,1.44-.86,2-1.26-1.81-.63-2.6-.39-4.23-1.63l.49,0c1.09,0,2.14.35,3.18.35a3.67,3.67,0,0,0,.66-.05c-.41-.58-.16-1.64-.52-3.19.64-.62-.14-1,.32-1.76l.17,0c.27,0,.58-.18.84-1.11-.1.2-.21.27-.32.27-.31,0-.63-.6-.88-.87l.13,0c.37,0,0-.93-.16-.93h0c.79-.84.63-.56,0-1.51a1.52,1.52,0,0,1,1.33-.54ZM318.33,224l-6.24-.08-.1-41.54c-.09-10,6.11-18.8,15.28-18.8a17.36,17.36,0,0,1,7.26,1.71,25.42,25.42,0,0,0-3-.19c-10.6,0-13.16,7.82-13.91,15l.75,43.91Zm302.36-59.81h1.08v4.33h-1.19v-4.33Zm-1.25,4.33v-4.33h.11v4.33Zm-1.06-4.33h.07v4.33h-2.4v-4.33h2.33ZM615,168.56v-4.33H615v4.33Zm-1.08,0v-4.33h.06v4.33Zm-1.14-4.33h.08v4.33h-1.18v-4.33Zm-2.27,4.33v-4.33h.11v4.33Zm-1.1,0v-4.33h.07v4.33Zm-1.1,0v-4.33h.07v4.33Zm-1.17-4.33h.14v4.33h-3.43v-4.33h3.29Zm-3.31,4.33v-4.33h0v4.33Zm-1.15-4.33h.12v4.33h-2.31v-4.33h2.19Zm69.24,4.7s-.09-.06-.1-.2l-2.73-.27c-.31-.5.16-1,1.31-1.24,0,0,0,0,.07,0s.35.63,1.37,1.29a.68.68,0,0,1,.3-.11c.27,0-.05.57-.22.57Zm-5.6,4.86a1.92,1.92,0,0,1-.68-.28c-.44,0-.87-.57-.92-1.19.13,0,.05.08.38.08.17,0,.46,0,1-.07.49,1.1.52,1.46.27,1.46Zm-485.1,14.87L181,174.45a2.5,2.5,0,0,1,2.7-2.12c1.49,0,3.18,1,3.81,3.59l-.37,12.46-6,.28Zm-35,.32V175.25a2.69,2.69,0,0,1,2.6-2.87c1,0,2,.76,2,2.58v13.57l-4.58.45Zm64.36,1.43V172.76l5.76.49v16.59l-5.76.57Zm-84.88-.27V176.41a3.2,3.2,0,0,1,2.77-3.3c1,0,1.81.83,1.81,3v13.57l-4.58.45Zm-20.18,1.18V177.39a3,3,0,0,1,2.66-3.21c1,0,1.93.87,1.92,3.12v13.58l-4.58.44Zm555.61-16a1.4,1.4,0,0,1-.26-.76l.39.13a1,1,0,0,0-.13.63c.24.29.57.23.83.67a2.05,2.05,0,0,0-.78-.53s0,0,0,0,0-.06,0-.17Zm12.53,1.4-4.15-.9c0-.22-.11-1.18.44-1.18a1.35,1.35,0,0,1,.72.32c.89,1.18,2.42.51,3,1.76ZM96.08,191.36v-13.7a2,2,0,0,1,1.82-2.87c1.08,0,2.28.76,2.73,2.58V191l-4.55.4Zm540.8-12.73c-.15,0-.44-.28-.84-.77-1.12-.06-.6-.92-1.8-1.34,1,0,.82-.45.58-.69.68.5.85.24,1.64.81.52,1.41.62,2,.42,2Zm-32.47.15c-.3,0-.92-.16-1.82-.19,2.57-1.16,4-2.58,7.43-2.58a1.29,1.29,0,0,1,1.13.53c-.2.27-.52,1-1.21,1a1.6,1.6,0,0,1-.81-.27c-1.39.67-2.21,1.44-3.45,1.44a3.77,3.77,0,0,1-1-.16c0,.19,0,.25-.23.25ZM58.88,192.44V177.78A2.65,2.65,0,0,1,61.31,176a1.45,1.45,0,0,1,1.52,1.63v14.49l-3.95.3Zm17.19-1.71V179c.07-1.8,1.19-2.71,2.22-2.71s1.89.82,1.76,2.46v11.75l-4,.26Zm549-11.39-.15-2a8.05,8.05,0,0,1,3-.93c.76,0,1,.42.1,1.58-.63.27-2.27,1.07-3,1.37l.09,1.21-.18-1.18.09,0Zm-360.82-1.85c0-.11.07-.66.51-.66a1.08,1.08,0,0,1,.57.22.45.45,0,0,1,.31-.16c.24,0,.35.27-.1.27h-.14l-.83.37a1.12,1.12,0,0,1-.61.26c-.33,0-.34-.36,0-.36a.74.74,0,0,1,.27.06ZM51,192.74V178.89c0-1,1.41-2,2.55-2A1.36,1.36,0,0,1,55,178.47v14l-4,.29Zm-12.32.53-4-.81V180.57a2.78,2.78,0,0,1,2.54-2.66c.92,0,1.68.7,1.43,2.24v13.12Zm643.88-9.8a3.49,3.49,0,0,0-.41-4.31c-.12-.42-.1-.59,0-.59.46,0,2.4,2.56,3.3,3h0c-.22,0-2.06,1.69-2.14,2.91a5.42,5.42,0,0,0-.26-1,.94.94,0,0,0-.28-.06.28.28,0,0,0-.23.09,1.24,1.24,0,0,0-.1.2.34.34,0,0,1,.1-.2ZM18.52,194.1v-13a2,2,0,0,1,1.91-2.49c1.08,0,2.19.94,2.06,3.15V193l-4,1.08Zm651.53-13.7a1.76,1.76,0,0,1,1.92-1.48c1.07,0,2.08.72,1.48,2.34h.23c.58,0,.93.21.92.63a13.33,13.33,0,0,1-4.11.78,7.89,7.89,0,0,1-.84,0c1.11-.8.1-1.57-.26-2.45a.74.74,0,0,1,.4-.21c.13,0,.24.11.26.45ZM3.82,193.87V181.69c-.52-1.24.89-2.52,2.17-2.52.86,0,1.66.58,1.78,2.13v12.52l-3.95.05Zm637-14.33a.53.53,0,0,1,.09-.25c0,.06-.06.15-.09.25s0,.08.07.08.25-.15.13-.28h0c.48.48.28.63.79.77h0a.34.34,0,0,1,.16,0l-.18,0c-.3,0-.43.58-1,.58a1.35,1.35,0,0,1-.37-.06s0,0,0,0l.4-1.12ZM267.5,181.26c-.24,0,0-.53.67-1.6v1.23a1.67,1.67,0,0,1-.67.37Zm363.17.55c0-1.28,1.57-1,1.13-1.76a8.58,8.58,0,0,0,2.24.48h.2c.13,1.48-2.74,1.19-3.57,1.28Zm-19.37-1.14c.14-.34.31-.47.5-.47.55,0,1.34,1.07,2.69,1.07l.38,0c0,.33,1.83.39,3.53.43,0,.43-.07.62,0,.69h.67c-.27,0-.44.06-.55.06s-.1,0-.12,0c-8.22.27-5.1,2.15-6.44,2.62.39-1.3.21-1.77-.28-1.77-1.18,0-4.21,2.63-5.82,2.67a15.59,15.59,0,0,0,4.37.65,14.4,14.4,0,0,0,4.08-.6.91.91,0,0,1,.23,0c.5,0,1,.33,1.74.33a4,4,0,0,0,2.4-1v-.18l0,0s0-.1,0-.38v.36a2.12,2.12,0,0,1,.7-.39c-.25.22-.48.41-.7.57V197.5H600.22V184.73s.07-1.1,0-2c.44,0,.83,0,1.18,0l1.21,0a4.67,4.67,0,0,0,3.59-1.45,5,5,0,0,0,.73.06c1.46,0,1.86-.84,3.12-.84a4.44,4.44,0,0,1,1.21.2Zm31.7.91c.63,0,.52-.15.47-.4,1,.47,1.09.47.55,1l-1.88-.58h0a.35.35,0,0,1-.19-.06l.2.06c.23,0,.43-.29.56-.29s.13.08.17.3Zm-380,2.2c.59-1.52,1.84-.64,1.4-1.28a.54.54,0,0,1,.5-.3c.44,0,.92.4.71.43L263,183.78Zm437.53,1.73c-1,0-1.8-2.71-1.35-2.84a1.06,1.06,0,0,0,.8.36c.53,0,1.1-.33,1.77-.33a1.91,1.91,0,0,1,1.09.35c-.15.8-1.43,1-1.8,2.24a.79.79,0,0,1-.51.22Zm-69.58.24c1.41-.07,2.76-.32,2.77-.86a2.75,2.75,0,0,1,2.28-1.63c.81,0,1.38.66.85,2.34l-.28,3.1c2-1.41,3.42-2.26,3.86-3.94a2.87,2.87,0,0,1,2.47-1.48,2,2,0,0,1,2,2.34c3.52,2.2,2.55,4.37,7.46,6.23,5.13,2.75,9.83,3,10.15,3.88a2,2,0,0,0,.67,1.37l-38,.43L624.9,190a6.89,6.89,0,0,0,3.27,1.07A5.56,5.56,0,0,0,629,191c-1.79-.34-2.16-2.71-2.56-3.18.11-1.24.81-1.61,1.48-1.61a2.71,2.71,0,0,1,.41,0c-.12,1.24.81,1,1.59,1.44-.87-.65-1.33-1.53-1-2a1.21,1.21,0,0,1,1.31-1.46c.72,0,1.35.49.81,1.55Zm23,3.14c-.17,0-.21-.25-.06-.86.12-1.45.5-2.56-.39-3.82a.19.19,0,0,1,.11,0c.2,0,.36.36.61.36h0c.36.23,1.32,1.43,2.25,1.59a2.55,2.55,0,0,1,.42-.23c-1,1-2.51,3-3,3Zm-397.55-.8c-.47,0-1.6-1.09-2.22-1.67.37-.34,1.61-2,2.18-2,.18,0,.3.17.28.63-1,.42-.18,1,0,2.6,0,.29-.06.41-.21.41Zm11.75-3.42v-.22a.8.8,0,0,1,0,.22v13.7H250c-.24-1.85.58-3.7.34-5.55a63.35,63.35,0,0,0,6.45-2c4.35-2.37,3.06-3.72,5.77-4.23a1.71,1.71,0,0,1,1.73-2,1.35,1.35,0,0,1,1.26.61,3.23,3.23,0,0,0,2.58,2.51l0-1.33a15.48,15.48,0,0,1,.1-1.7Zm402.48,3.41c1,0,2.08-.66,2.61-.66.86.8-1.43,1-1.84,3.09l0,0c-.29,0-1.85-2.59-1.16-2.59a.9.9,0,0,1,.4.14Zm-426.38,1a.3.3,0,0,1-.26-.16c-.67-.28-1.77-1.13-1.27-1.32a1.51,1.51,0,0,1,.64-.15c.53,0,.89.32,1.33.32a1,1,0,0,0,.51-.15l.08,0c.25,0-.49,1.49-1,1.49Zm-3.54.32-2.44-.67c.75.12,1.8.09,2.67.24.06-.11.13-.18.18-.18s.09.07.11.23l-.29,0c-.07.11-.15.27-.23.43Zm429,4.25c6.1-1.54,5.31-2,6-3.79a3.53,3.53,0,0,1,1.71-.49c1.51,0,2.51,1.21,3.49,1.41a9,9,0,0,1,3.26-.53c1.54,0,3.07.24,4.45.24a7.8,7.8,0,0,0,1.2-.08c.83.48,1.77.14,2.24.92,0,2.25,0,4.5,0,6.75l-24.68-.44c1-2.3,1-4,2.32-4Zm-430.09,4.7v-6.14l2-2.1c0,.52,1.17,1.15,3.65,1.37,1.64.24,1.46,3.16,1,6.87ZM507.87,82.42l-.27.11V85l.27-.06V82.42Zm8.76.94v3.16l.08.08.17,0V83.4l-.25,0Zm4.59.11-.5.22V86.6l.5.1V83.47Zm41.13.25c.16.18.19.28.19.32a.22.22,0,0,1,.07-.07,3.18,3.18,0,0,0-.26-.25Zm-41.88,0-.42.22V86.1l.46,0V83.74Zm42.07.31v0Zm-35.83.56v2.64l.47-.25V84.68l-.47-.08Zm22.39,2.14v3.32l.56.1V86.85l-.56-.11Zm8.27,1.78v2.79l.53,0V88.6l-.53-.08Zm-13.83.65h0Zm16.89.06-.55.46V92l.55.06V89.23Zm9,.49v3h.51V90.1l-.51-.38Zm-1.33.08v2.25a2.31,2.31,0,0,1,.54.2V90.07l-.54-.27Zm4.14,1.74v2.1l.23.34.35.33V91.84l-.32-.25-.26,0Zm1.37,1v1.72l.51-.47v-.89l-.51-.36Zm2.44,1.2-.09,0v1.5l.41.29.11,0V94l-.43-.22Zm2.75,2.28v.73l0,0,.48-.24v-.32l0-.06-.45-.14Zm1.87,1c-.07.14-.16.24-.27.24a.34.34,0,0,1-.26-.18v.21l.25.37.28.08V97Zm-266,42.87h-.1v6.49h.1v-6.49Zm240.07,1.06h-.22v4.45h.22v-4.45Zm-2.08,0h-.15v4.45h.15v-4.45Zm-2,0h-.13v4.45h.13v-4.45Zm70.1,23.29h-.06v4.33h.06v-4.33Zm-2.31,0h0v4.33h0v-4.33Zm-1.09,0h0v4.33h0v-4.33Zm-1.13,0h0v4.33h0v-4.33Zm-3.4,0h0v4.33h0v-4.33Zm-5.59,0h-.07v4.33h.07v-4.33Zm-1.09,0h0v4.33h0v-4.33Zm-1.1,0h-.05v4.33H605v-4.33Zm-2.29,0h-.05v4.33h.05v-4.33Zm-1.15,0h0v4.33h0v-4.33Zm-345,8.12c-.07,0,0,0,.14.06l.22,0-.36,0Zm426.58,11.08h0l.14.07a.44.44,0,0,0-.13-.08Zm.13.08.07.05-.07-.05Zm-26.69,2.61c-.15.1-.22.17-.19.17a.92.92,0,0,0,.24-.16Zm-26.65,1.54.19.13-.19-.13Zm-270,7.51a1.12,1.12,0,0,0,0,.32l.12.1a2.29,2.29,0,0,1-.07-.42Zm-5.58.23c-.07,0,.16.38,0,.38a2,2,0,0,0-.28-.2,1.85,1.85,0,0,0,0,.62,3.69,3.69,0,0,0,.67-.58l0,0a1.41,1.41,0,0,0-.36-.19Zm8.57,0c-.12.3,0,.69.26.69a.29.29,0,0,0,.16-.06h0s-.14-.15-.42-.63Zm-7.41,0a1.53,1.53,0,0,0-.19.33l.12-.08.07-.25Zm4.51.16a1.94,1.94,0,0,0,.37.74c.18-.56-.05-.51-.37-.74Zm-4.49,0,0,0,0,0Zm-.79,0h0l0,0,0,0Zm.76,0-.06.05-.15.53c.12-.26.4-.3.39-.43s-.23-.08-.18-.15Zm-.18.13c-.27.14-.5.12-.44.45.43-.18.31-.18.44-.45Zm5.95.26-.17,0h-.1s0,.07,0,.07a.69.69,0,0,0,.23-.08Zm2.07,0Zm-8,.17a.57.57,0,0,0,0,.14l0-.14Zm74.25.07c0,.1,0,.21,0,.34a.86.86,0,0,0,0-.34Zm-69.15.05,0,.07s0,0,0-.07Zm3.13,0c0,.1,0,.16.11.16h0l-.11-.16Zm-4,.11h0Zm-18.84.41h0v.2c.07-.09.05-.2,0-.2Zm2.84.08a1.11,1.11,0,0,0-1.1,1.1c.24-.53.53-.75.9-.75a1.86,1.86,0,0,1,.85.26,1.22,1.22,0,0,0-.15-.43.7.7,0,0,0-.5-.18Zm25.17,0-.11,0h.14s0,0,0,0Zm0,0s0,0,0,0l0,0Zm-.22,0h0Zm.21,0h0Zm-24.54.53v0Zm-3.59.67,0,.31.3.34c-.17-.51-.17-.1-.28-.65Zm82.54,2h0Zm58.35,1.62a1,1,0,0,0,.42.1h.14l-.56-.09Zm-140.85,1.7c-.24,0-.36.07-.4.12l.4-.12Zm115.85,1.74a1.34,1.34,0,0,0-.4.16,2.23,2.23,0,0,1,.4-.16Zm-8.07,2.83h0ZM339,211.43h0Zm28.69,3h0ZM410.44,216s0,.09.08.16a1.19,1.19,0,0,1-.08-.16Zm-4.25.48a6.05,6.05,0,0,0,1,1.06c.47.22.86.46,1.24.65a4.15,4.15,0,0,0,1.22.16h.23a9.78,9.78,0,0,1-3.7-1.87Zm4.5.29a.51.51,0,0,0-.25.06c.09.38.26.59,1,1a.23.23,0,0,1,0-.09c-.21-.31-.4-.6-.6-.92a.69.69,0,0,0-.2,0Zm.93.77a1.29,1.29,0,0,0-.13.18l.12.18h0c0-.1,0-.22,0-.34v0Zm-.16.27c0,.07,0,.09.1.09h.05l-.15-.09Zm.23.08h-.06l.06,0v0Zm-.07,0h0l0,0v0Zm0,0a.21.21,0,0,0,.24.2l.17,0-.36-.17V218l-.05-.08Zm.49.16-.08,0,.08,0v-.06Zm-1.39.18c-.3,0-.58.07-.85.08l.3.09a3.76,3.76,0,0,0,.55-.17ZM368,232h0Zm34.21,1.17,0,.25c.05-.13.06-.21,0-.25Z"/>
        <path class="cls-1" d="M704.93,189.08c-.43,0-.37.37-1,.37h-.07l1.56.28a2,2,0,0,0-.87,2.83c.32-1,0-.29,1-.94v-2.38a2.1,2.1,0,0,0-.65-.16Z"/>
      </g>
    </g>
  </g>
</svg>
